<svg xmlns="http://www.w3.org/2000/svg" version="1.0" viewBox="0 0 1024 1024"><path d="M392 4v4h-32v8h-16v8h-8v8h-8v8h-8v16h-8v16h-8v8h-8v8h-8v8h-8v8h-8v8h-8v8h-8v8h-8v8h-8v8h-8v8h-8v8h-8v16h-8v16h-8v24h-8v16h-8v16h-8v8h-8v8h-8v16h-8v24h-8v48h8v16h8v48h8v16h8v16h8v16h8v16h8v88h-4c-4 0-4 0-4 4s0 4-4 4c-3 0-3 1-4 4 0 4 0 4-4 4s-4 0-4 4v4h-8v8h-8v8h-4c-4 0-4 0-4 4s0 4-4 4h-3l-1 8v8h-4c-4 0-4 0-4 4v4h-8v48h4c4 0 4 0 4 3 0 4 0 4 4 4 3 1 4 1 4 4s2 5 5 5 3 0 3 3c0 5 2 5 18 5h14v64h8v32h8v24h8v16h8v128h8v48h680v-40h-4l-4-1v-23h-8v-24h-8v-32h-8v-24h-8v-24h-4l-3-1-1-11v-12h-8v-40h8v-16h-8v-16h8v-40h8v-40h8v-16h8v-16h8v-72h-8v-24h-8v-16h-4c-3 0-3-1-4-4 0-4 0-4-4-4s-4 0-4-4v-4h-4c-4 0-4 0-4-4s0-4-4-4c-3 0-3-1-4-4 0-4 0-4-4-4h-4v-16h-8v-64h8v-64h-8v-16h-4c-3 0-3-1-4-4 0-4 0-4-4-4s-4 0-4-4v-4h-8v-16h-8v-56h-8v-8h-8v-16h-4c-3-1-3-1-4-4 0-4 0-4-4-4-3-1-3-1-4-4 0-4 0-4-4-4-3-1-3-1-4-4 0-4 0-4-4-4-3-1-3-1-4-4 0-4 0-4-4-4s-4 0-4-4 0-4-4-4c-3-1-3-1-4-4 0-4 0-4-4-4s-4 0-4-4v-4h-8v-8h-8v-16h-8v-8h-8v-24h-4c-3-1-3-1-3-4l-3-3c-4 0-6-1-6-5 0-2-1-3-4-3-3-1-4-2-4-4 0-4-1-5-8-5s-7 0-8-3l-1-4-8-1h-7v-8h-16v-8h-24v-8h-32v-4c0-4 0-4-4-4h-3l-1-7c0-7 0-7-4-8-3-1-4-2-4-4 0-3-1-3-5-4-10 0-11-1-11-5 0-3-1-3-4-4-4 0-4 0-4-3l-1-5h-15V7l-12 1h-12V0h-88v4zm80 5v4l-1 3h-27l-27-1c-1-2-5-2-7 1-2 2-3 2-6 2l-7 1c-3 2-6 3-10 3l-5 4c-4 4-5 4-12 2l-3 1-2 1-2 2h2l-1 2-2 4-2 2v-4c-2-1-2-1-2 1l-1-1c-2-2-2-2-3-1l1 3v3c-1 2-2 2-4 1l-4 1-1 3v4c0 3-1 4-3 3l-2-1-1-2-3 4h2v2l-1 1c0 3-2 3-6 1s-4-3-4-11l1-6h3c3 1 3 1 4-6 0-2 1-3 4-3 4 0 4 0 4-4v-4h9c6 0 10 0 9-1l-1-3c0-2 1-3 3-4l28 2c1 0 2 0 3-2l-1-2c-1 0-2-4-1-5a781 781 0 0 1 79 0zm24 9v4c-2 2-2 2-12 2l-11-1v-6l11-1c8 0 11 0 12 2zm20 7c2 1 2 1-1 1-2 0-3 0-3 3 0 2-1 3-4 3-2 0-3 0-4-2l-1-2v-2c2-2 8-3 13-1zm-132 8c-1 1-1 0-1-1s0-2 1-1v2zm111 3c-1 1-1 0-1-1 0-2 0-3 1-2v3zm5 0c0 2-2 1-3-1-1-3-1-3 1-2l2 3zm27-2 1 3v4h7l8 2 1 7v6h8v10h2l3-1c3 1 2 5 0 6l-1 1-4 8c-2 1-2-1 0-3l1-3 1-3v-2h-2l-3-1h-3c-1 1-1 1-1-1l-1-2h-2c-1 0-2-1-2-3s-3-4-5-3h-2l-4-2c-3 0-4-1-3-2l3 1h2c0-2-3-6-3-4l-4 1c-2 1-3 1-2 2v1c-2 0-3-3-3-6h2c3 0 4-1 1-3v-2h-12l-2-1h-5l-2-1-1-2-2-2 1-1 2 1c2 3 3 2 2-1 0-1 0-2 1-1l2 1v1c-1 1-1 1 1 1l2-2c0-3 6-6 11-5l7 1zm-34 3-2 1c-1 0-2-2 0-3l2 2zm-71 0-1 1-1-1 1-1 1 1zm-54 3-1 1 1-4v3zm2 5-1 1v-1l1-2v2zm-16 1-2 1c-1 1-1 0-1-1 0-2 2-2 3 0zm147 0h-2v-1l2 1zm19 1 2 1v1l-2-1h-3l-1 1c-2 0 1-3 3-3l1 1zm-160 2h-1l1-2v2zm14 1 1-2v5l-1 1v4c0 2 0 2-2 0-1-1-1-1-1 1h-3l1 41-1 2h-1l1 2v2l-1 1-2-1c-6 0-7-5-6-14v-6c1-1 1-1-1-2h-1l-2 2c-1 1-1 0-1-1l3-4 2-3c1-2 1-2-1-1v2h-1c-3 0-4 1-4 5 0 3-1 4-2 4l-1 1 1 1c1 0 1 4-1 5l1 1c2 0 2 0 2 3-1 1 0 4 1 6 2 3 2 4 1 5v4l1-1 2-1c2 0 2 7 0 9h-2l-2-1c0 1 0 2 2 3l1 2c-1 2 1 10 2 12 2 1 13 0 13-2l-1-2-2-3-3-3c-2-2-3-3 0-3 1 0 1-1-1-5l1-2h1v-2h1l2-1v-1l1-1 1-2h-1l-1 1v-2l1-4c1-2 1-3 2-2v6l1 4c-2 0-2 0 0 2l1 7c0 3 1 4 2 4v2c0 2 0 2 2 2l3 1-2 1c-2-1-3 0-4 1h-1v-1l-1 2 2 2 2 1-3 1c-1 0-2 0-1 1 0 1 1 2 2 1h2l1-2v-3l1 3c0 2 1 3 2 1 1-1 1 2 1 6 0 8 2 13 4 11l4 1c2 2 2 4 0 9l-1 3-1 3-1 2h-1l-2-2v-3l-1-4c0-7 0-7-4-6h-4v-7c1-8 1-9-3-10-5-1-7 1-7 9 0 7 0 7-3 6-2 0-2-1-2-5 0-10 0-10-3-11s-5-5-4-8l-1-4v-1c2 0 2 0 1-3l-1-5v-4l-1-1c-1 1-3-2-2-3l-1-2c-3 1-7-2-8-5 0-1-1-2-2-1v-2c2-2 2-4 0-2v-2l3-3h2l2-2h2l2 1-1-2-1-4-2-4c-2-2-1-3 1-3h2v-1l2 1h1l3-3 1-2v-3l1-6 1-4h2l1-1 1-2 2-3 5-4-2 2c-3 2-2 2 1 1l2-2 1-4c1-2 1-2 2 0h1zm-22 6-1 2v-2l1-2v2zm-8 1h-1l1-2v2zm-17 2v3l3 1c1-1 2 0 2 1 0 2 0 2 1 1h1l-1 2-1 1v1c-3 0-3 4-1 8l1 3-1 2c-1 2-3 2-6 1s-3-1-3 4c-1 4 0 5 1 5l1 1h-1v2c1 1 0 2-1 3-2 2-3 7-1 9v1l-1 3c-1 2 0 3 1 3 3 1 5-1 4-4h1v8l-2 2-5 3-1 10v9l-2-1h-5l-1-1-4-2c-2-1-2-2-2-9l1-8h3c4 1 4 0 5-2l-1-4-1-3c0-1-1-2-3-2-3 0-3-4 0-4s4-2 4-6 1-6 5-6c4-1 4-3 0-3s-5-3-5-8l1-7c1-2 1-2 4-2 2 0 3-1 3-3 1-14 1-14 4-14 2 0 3 1 3 2zm202 1h3c3 2 3 4 0 3l-2 1c1 2 1 2-2 1-2-1-3-4-2-5h3zm-191 4 1 4-1-1c-4-3-5-6-2-5l2 2zm6 4c-1 1-1 0-1-2s0-3 1-2v4zm194-4h-2v-1l2 1zm2 4c0 1 0 2-1 1l-1-2 1-1 1 2zm-8 1h-1l1-2v2zm15 2-2 2c-2 0-2 0-1-2l2-1 1 1zm5 1-2 1-2-1 3-1h1l1-1-1 2zm-10 4 1 2h1l1-3 1 3c0 3 0 3 2 3 3-1 4 0 2 4l-2 2v-2c-1-3-2-3-5-3-3 1-4 1-5-1-2-1-2-1 0-3 2-1 3-3 2-3l1-1 1 2zm21 0 1 3c1 2 1 2-1 1l-3 1-2-1c-3-3-3-4 0-4l2-1h1l2 1zm-215 0c-2 1-2 1-1 2v1c-2 1-2 0-2-2 0-1 0-2 2-2s2 0 1 1zm44 25v21l-4-1-4-1v-7a1013 1013 0 0 0 2-33c6-1 5-2 6 21zm-56-20h-1l-1 2-1 1v-3h3zm268 1h-8c-3-1-1-1 3-1 5 0 7 0 5 1zm-33 2 2 3-1 2v2l-1-1-1-3c-2-1-2-1-2 1v8l1 5 2 4 2 2c3 3 2 4-2 4-3 0-4 0-5-2l-2-1-3 1c-3-1-4 3-3 5 1 3 0 5-2 5s-2 0-2-3l2-6 2-7c0-7 2-10 5-9 4 1 3-6-2-8l-2-1 2-2c4-1 6-1 10 2zm13 1c-1 1-1 0-1-1-1-1-1-1 0 0l1 1zm-227 7c0 3 0 4-1 3l-1-4c1-4 2-4 2 1zm225 1 2 1v1h1c1 0 2 0 1 2l3 3c3 1 4 2 2 6l-3 3c-2-1-3-3 0-3v-1l-2-2-2-3c-2 0-3-2-1-2 1-1 0-1-1-1-2 0-5-3-3-4l-2-1c-2 1-2 1-2-1 0-3 0-3 3-1 2 0 3 2 4 3zm-280 2c0 6-1 9-3 7s-3-1-3 4-2 9-3 8v2l-1 1c-1-1-2 0-2 1-1 2-1 2 1 2l-1 1-5 3c-1 0-2 1-2 3v3l-2 4c-1 2-2 3-1 5 0 2 0 3-2 3l-4 1c-1 2-2 3-2 1v-1c-2-1-2-5-1-8 1-2 1-3-1-4-3-3-4-2-5 2 0 4 0 4-4 4-3 0-4 1-4 5 0 3-3 6-5 5l-2-1 1 2c1 1 2 7 0 6l-2 1-3 2-2 2v1l1 1-1 1-1 3c0 3-1 5-4 7-2 1-2 1-2-1 1-1 0-1-1-1s-2 1-2 4l1 4c1 1-4 8-6 8l-1 1v2l-1-1h-1c0 2-5 8-7 8l-1 1c-1 3-2-12-1-16 0-3 1-4 3-4h3l1-7 1-9h2c2 1 2 2 1 3l1 2 2-2 1-7c0-5 0-5 4-5s4 0 4-4c0-3 1-4 4-4 4 0 4 0 4-4s0-4 4-4h4v-8h8v-8h4l6 1 3 1c3-1 3-1 1-3-1-2-4-3-3-1l-1 1-1-3c0-3 0-3 3-3 4 0 4 0 5-4 0-4 1-5 3-4 3 0 5-2 5-5 0-4 2-4 7-2 2 0 2 0 2-3-1-5-1-6 2-6 2 0 2 1 2 6zm328-5h-4c-2-1-1-1 1-1 3 0 4 0 3 1zm-289 2h-1l-2 1h-1c0-2 2-3 4-1zm13 1h-1l1-2v2zm-26 2-1 3v-3l1-2v2zm269 8-1 3c1 0 4-2 3-3 0-1 4-2 6-1h3l2-1v6c0 3-2 4-4 2l1-1 1-2h-4c-1-2-6 0-6 2l-1 2v-1c0-2-2-3-4-2h-1l1-2 1-2v-1l1-1h1c2 0 2 1 1 2zm19 2-1 4v1l1 5c-1 5 1 9 5 9l2 1-3 1c-3 0-4 0-4-2l-1-2v1c0 2-1 2-3 1-2-2-1-4 1-4h1v-17c2-1 2-1 2 2zm8 0h1l5 1-1 3c-1 2 1 4 2 2 1-1 1 0 2 3l3 4c2 1 2 1 1 2-3 0-5-1-5-4 0-2-1-3-3 0-2 2-5 3-4 1l-1-3-2-3c0-2-2-4-4-3v-3c-1-2-1-2 2-1l4 1zm-248 2c-1 1-1 0-1-1s0-2 1-1v2zm-14 1-1 2-1-2 1-2 1 2zm258 4-1 2c-2 2-2 1-2-1s1-3 2-2l1 1zm-76 4c0 3 0 4-2 4-4 1-6 0-6-3 0-5 1-5 4-5s3 1 4 4zm65-1h-3v1-4c0-1 3 1 3 3zm4-2-1 1-1-1 1-1 1 1zm-9 1-1 1h-1l1-2 1 1zm-256 5c2 1 2 2 2 3s-2 1-2-1l-2-1-1 2v3c-2 0-4 8-2 9 1 1 0 2-1 3l-1 5v4l-1-2c0-2-3-3-3 0-1 1-1 1-1-1l-1-2c-1 0-3-6-3-10l1-3 1 4 1 4v-4c-1-5 1-9 4-9l1-1 5-5 3 2zm276 2 4 1c4 0 4 0 4 3s0 3-2 2l-4-2-2-1-2-2-3-1 2-1 3 1zm18 1v1h1c0 2-3 2-3-1 0-1 0-2 2-2v2zm-278 0-1 1-1-1 2-1v1zm212 0 3 1 2 1h2l3 1-1 1-1 1h-2c-2-2-3-2-8-2-4 1-5 0-5-1l1-2h6zm-178 2-1 1-1-1 1-2 1 2zm197 1v1l-1-1v-1l1 1zm48 3v3c-3 3-3 2-3 0v-3l-2-1c0-3 4-2 5 1zm-65-1 1 1-4 1-1-1h-2l-2-1h8zm-44 1c2 1 2 2 2 8 0 8-1 9-5 9-3 0-3-1-3-8v-9h6zm38 3h5c2-2 3-2 5-1v5c0 2-1 1-3-1h-11c-1 0-1 1 1 1 2 1 2 1 2 4 1 3-2 4-3 1l-1-1v1h-7l1-1 1-1v-1l-1-1v-2c-2-5 4-7 11-3zm59-1v2l1-2 2-2 2 1-1 1c-2 0-1 6 0 6l1 1-3-1-3-2-2-1c-2-2-2-2-1-3 2-2 4-3 4-1zm-231 11c0 3 0 5 2 5l2 1c1-1 2 1 3 3l1 10c0 8 1 13 3 10 1-2 4 0 3 2 0 2 1 3 3 5 4 4 7 3 7-2l1-8c0-4 1-5 2-5l1 2 1 2c1 1 2-1 1-2-3-3 0-4 13-4 11 0 12-1 12-3 0-5 1-5 8-5 9 0 14-1 12-3s-1-3 1-3 2 0 2 2c-2 2 1 4 6 4h5v4c0 3 1 3 4 3 14-1 16-1 18 1l2 3c0 4 3 5 18 5 13 0 16 1 15 3-1 3 1 4 11 5 10 0 12 1 11 4 0 2 2 4 5 4s3 1 4 4c0 3 0 4 3 4s4 1 4 4 1 3 4 4l5 1 3 1c2 0 4 3 2 4h-3c-2-2-3 0-3 6-1 7-1 9-3 10-1 1-1 0-1-3s-2-2-3 1l-1 8v6h7c8 0 11-1 10-2l1-1v-2c0-2 0-3 2-3h4l1-2 1-3v-1l1-1h3l4 2 4 2c0 2 0 2-1 1-2-1-4 0-6 3-2 2-2 2-1 4 2 1 2 1 0 3l-3 1-1 1c0 2 2 2 3 1s1 0 1 1c0 2-1 2-3 2l-5 2-1 2 3 4 4 4 2 1-11 3c-2-1-3-1-2-5l1-8v-3c0-1-1-2-5-2h-8c-3-2-5 0-4 6 0 9 0 9 2 9 1 1 2-1 2-4 0-7 1-5 2 4 0 10 0 12-3 9h-3l-1 5-1 4-11 1c-7 0-10 1-11 2-1 2 1 3 2 1 2-1 4-1 4 1s-2 2-11 4c-4 0-4 1-4 4l-1 4h-6l-7 2-2 7c0 7 2 14 5 14l1-3c0-3 0-3 3-3 13-2 13-2 13-4 0-4 2-5 6-5s4 0 4-4v-3l7-1c7-1 9-3 7-4h-4c0-2 6-4 11-4l5 2c4 2 6 1 6-5v-4l8-1h8v5c0 8-2 11-6 10h-17l-5 2-3 2 3 1 3 1-4 1-2 1-9 1c-6 1-7 1-7 3s1 2 3 1l3 1c0 1-1 2-3 2-4 0-5 1-5 5 0 2-1 3-3 2v-1c2-2 1-4-1-4s-2 0-2 3c1 3-1 5-4 5s-4 1-3 2c0 1 1 2 2 1l2 1c0 2-1 2-2 1-3 0-6 4-6 8 1 2 2 2 5 2h5v8h32v9l1 10c2 1 3 5 1 4l-1 1a1629 1629 0 0 0 2 76l2-1h1v2l1 1v5l1 2v-5h2l1 1 2 2 2 4v9c-2 0-1 5 1 8 1 2 1 2 0 0l1-2c1 0 2-7 1-8v-1l1 1 2 1c2-1 2 6 1 11-1 6-2 7-3 5l-1 2 1 4 1-2 2-2 2 1-1 1-1 2c0 1-1 2-9 2h-14l3 1c2 1 2 2 1 4l1 3 1-4c0-5 1-3 1 3v6c1 1 0 3-2 3-1 0-6-4-6-6l-3-1c-3 1-3 1-2-1s1-2-1-3v-1l-1-1h-3c-1-1-2 0-3 2 0 3-1 4-4 4-5 0-5 1-5 14l-1 10h-3c-3 1-4 1-3 5v7c1 2-2 5-5 5s-3 0-3 4l-1 7-1-1-1-2h-2c-3-1-4 1-3 4 0 2 0 3-3 5l-4 4c0 4 0 4-5 4-4 0-5 1-3 4 3 3 2 4-8 4l-9 1c0 2 6 4 14 4 7 0 7 0 8-2l-2-2c-2 1-1-2 2-5h3c3 2 4 1 4-1l-1-3-1-1 2-1 1-1h8c1 2 2 18 0 19l-3-1c-3-2-4 1-4 10l2 9c2 4 4 0 4-7l1-6c1 1 1 1 1-1 0-1 0-2 1-1l3 1c2 0 3 0 2-1 0-2 0-2 2-1l1-1v-4l2-5 2-4c1 0 2 1 2 8l1 9 2 1c5 0 6 1 6 4l-1 3-2 1h-3c-2 0-2 1-2 7 0 7-1 9-6 9l-2 1-1 8c0 7 0 7 6 9 3 0 3 0 3-7 1-8 2-9 5-9 2 0 3-1 3-5s1-4 4-5c3 0 4-1 4-4s1-4 4-4 3-1 4-4v-4h7c8 0 9 0 9-7l2-2c5 0 5 0 5-3 1-3 1-3 6-4h5v-4c-1-4-2-5-6-5l-3-1v-4c0-4 3-8 5-8l4-4 4-3c0 1 3 2 13 3 5 0 8 0 7-1s-1-1 1-2c3-1 3-1 3 2l1 4 1 4c-1 2-2 2-7 2h-12c-5 0-5 0-6 2v7l2 2h2l3-1 30-1 28 1 1 3v4h15v4l1 4h7c7-1 8-1 9 4 0 2 1 3 4 3s4 1 4 4c1 2 2 3 4 3l3 2 4 2 1 2c0 2 5 6 7 6l2 2-2 1c-1-1-2-1-2 1l2 1c2-1 5 2 5 6 0 2 1 3 3 3h3l1 7c1 7 1 9 3 7h3c3 2 3 5 3 10-2 6-1 7 4 7h4v16h3c3 1 3 1 4 6l1 6h2l2-1c2 0 2 1 2 7l1 12c0 5 1 6 3 5 3 0 3 0 3 4l-2 19 2-5c1-3 1-3 1 3 0 5 0 6-1 5-1-2-1-1-1 4v4c0-1-1-2-2-1-2 0-1 3 0 3l2 1-1 1c-2 0-4 4-4 9s1 7 6 7c4 0 4 2 2 6-1 3-2 4-4 4s-3 0-3 7l-1 8h-5l-2 1v8l1 1 1 2h1c1-1 4 1 6 6 0 2 2 3 2 3 2 0 3 2 3 5l2 4 2 3 1 5c1 1 1 1 1-1v-4c0-4 2 3 2 11 1 5 1 7 3 9 3 5 4 4 4-4 0-10 0-9 5-9 4 0 4 0 5 3 0 5 0 5 3 5 5-1 5 0 5 12v11h8v17h3l4 1 1 12v11h4l3 1 1 12v11h3c4 1 5 3 5 19v12h8v11c0 14 0 15 4 14h3l1 18c0 12 1 17 2 18s1 1 1-1c-1-3 1-5 3-2l1 11v11h-16c-16 0-20-1-17-3 2-2 1-4-2-4l-4-1v-34h-2c-4 0-7 4-6 11 0 9-1 11-4 11h-3c-1 1 2 3 5 3 2 0 2 0 2 6l1 9v2H615l1-8c0-10-1-11-9-11-5 0-6 0-6 2v3l-1 4c1 2 1 2 3 2 4-1 6 1 6 5l-1 3h-99a4827 4827 0 0 1-103-3c1-2 2-9 1-11l-4-1c-2 1-3 1-2 6l1 6v3H232v-20l-1-20-3-1h-4v-60l1-62c0-1 1-2 3-2 4 0 6-2 4-7v-9c1-5 1-5 4-4h3c1-2 1-3-2-6s-4-5-3-16c0-6 1-7 4-6 1 0 2-1 2-6 0-9 1-17 2-15s4 3 5 1l1-11v-12c1-2 1-2 3-1 3 2 5-1 5-9 0-6 0-6 3-6 4 0 5-1 5-9l1-11v-9c-1-8 0-16 3-16 2-1 3 0 3 2l2 4c1 2 2 2 3 1l2-2a395 395 0 0 0 13-1l-1-2c-2 0-1-3 0-3 2-1 3 1 2 3l1 2 1-3 2-4c2-2 2-3 1-7-1-5 0-9 2-9 3 0 4 3 4 9l1 6h2c3 2 5 0 5-3l-1-3 6-1c6 0 6-1 6-3s1-3 2-3c2 0 2 1 1 2 0 2 0 3 2 4l4 1c3 0 5 0 5 2l-3 1h-4l4 2 7 2c3 0 3 0 3-4s1-5 5-5c2 0 3-1 3-3 0-3 1-3 5-4 4 0 4 0 4-4s0-4 4-4c3 0 3-1 4-4 0-4 1-4 4-5 3 0 3 0 3-3-1-3 1-5 5-5h4v-15h4c2 0 3 0 3-2l1-3c-1-2 0-3 3-3 5 0 5-2 5-13-1-9-2-11-5-9-3 1-3 0-3-14l-1-10-3-1c-4 0-4 0-4-4s-2-7-4-6c-3 1-4-4-4-23a179 179 0 0 1 2-22l2-1c3 0 3 1 3 3l7 2c2-1 2 0 2 4v5h10l10 1h1l1-4c2-2 0-3-5-3-8 1-9 1-9-5v-4h-10l-1-1h-1l-1 1-1-4c0-3-3-6-7-6-2 0-2-1-2-2l1-3v-7c-1-8-1-9 3-9l2 1 1-30v-53h3l4 1 1 19c0 19 0 21 5 21h2l1-20 1-21h3c3 1 3 0 4-3v-8c-1-7 0-13 3-15 3-3 4-5 2-5v-2c3-3 2-5-1-5-2 0-3 1-3 3 0 3-2 4-6 4-3 0-3 0-3-4v-4h4c4 0 4 0 4-4l1-5 1-7c-1-6-1-6 2-7l4-1h4l3-1-1-12c0-2 3-3 8-3 2 1 2 1 2 4s1 4 3 4c3 0 4-1 5-9v-7h-16v-7l12-1h12v4c0 4 0 4 4 4 4 1 4 1 4 5 0 3 0 3 4 3h3v-14h-3c-4-1-4-1-5-5 0-3-1-3-3-3-3 0-5-2-5-6 0-2-1-3-2-3l-1 3c0 5-3 4-4-1-1-7-1-9-3-9-5 0-6-5-4-12 2-5 5-5 6-1l1 3 1 4c0 2 1 3 7 4a69 69 0 0 1 14 3c2 1 1 1-1 1-2-1-3 0-3 1l2 1c3-1 3 0 5 4 1 3 2 4 4 3l5 1h4l1-12c0-11 0-11-2-11-6 1-9 0-12-2l-4-3c-4 0-6-2-6-5-1-3-1-4-10-5h-5v-8h-16v-8l-1-7-3-1h-4v-6l-2-9-1-4-1-1-1-10h2c2 0 3 4 1 4l-1 1h1l1 1v2c0 2 4 3 5 2 1-3 4 3 4 9 0 3 0 3 5 3l5-1h2v5c-2-1-3 5-3 8 1 3 5 3 5 0l1-3v-3h4c6 1 7 2 6 5-1 4 0 5 4 5l8 2h3v-6c-1-9-2-10-3-10v2l-2 2c-2 0-2-1-3-5-1-7-1-8-3-8l-2-1-10-11-1-1-2-1c-2 0-4-2-5-6-1-3-1-4-5-4-3 0-4-1-5-4s-1-4-4-4l-3-2-3-10-3-3c-2-1-3-2-3-4 0-3-1-5-4-5-2 0-3-1-3-7l-2-9c-1-2-1-2 1-3 4-2 3-3-2-5-5-1-5-1-5-5l-1-8c0-3 0-4 2-5l3-2c1-1 1-1 3 1l1 7zm240-7 2 2 2 8c-1 0-4-4-4-6l-2-2-2-2c0-3 3-2 4 0zm10 3c2 2 3 3 2 4-1 2-1 2 1 2 3-1 4 0 1 2-2 3-4 2-4-1l-1-2-1 2c0 1 5 7 6 6l3 3 3 2v-2l1-3 1 3 1 3 1 2c0 2 0 2-1 1s-1 0-1 2c1 4 1 5-1 7-5 6-4 5-5 3v-5l1-1c2 3 3 2 3-2v-3l1-2c0-2-2-3-4-1h-1c0-1-1-2-2-1-2 0-3-1-1-3v-1l-3-2-4-2v-5l-1-5c-1-2-1-2 2-3l3 2zm-74 0-1 1-1-1 2-1v1zm-273 4 2 2c3 2 3 2 5 1 1-1 1-1 0 0l-2 2c-1 0-3 3-3 5l2 1c2-1 2-1 1 3 0 4 0 5 2 6s3 3 0 3v1c1 0 1 1-1 2s-3 1-4-2l-1-1c1 2 0 2-3 0l-5-3v-8c0-8 0-9 3-11 2-3 2-3 3-1h1zm254 1c-3 0-4 0-3-2h3l2 2h-2zm48-1c1 1 2 2 1 3 0 2 0 2 2 2h1c-2 1-1 2 1 1l2-1 1-1c2 1 2 4 0 5-1 1-1 2 1 4 1 3 2 13 1 14v3c1 3 0 5-3 4-1 0-1-3 1-4v-1c-2 0-2-1-2-4v-6l-3-3c-2-1-3-2-4-5l-3-7c-1-2-1-2 1-4s1-2 3 0zm-335 4c0 3 0 3-3 3-3 1-4-1-1-4 3-2 5-2 4 1zm10 0h-1l1-2v2zm3 3-1 2-1-1 2-2v1zm307 3v2c0 4-4 4-4 1l1-2 1-3c0-2 0-2 1 0l1 2zm53-2v1l-1-2c0-1 1-1 1 1zm-13 1v8c0 4 1 7 3 10l2-1h3l1 2v16l-1 2c1 2-1 3-5 4l-2 3v7c2 6 1 13-1 15-1 1-1 1-3-1s-1-7 1-9v-11c-1 0-2-1-2-3l-3-2c-5 0-6 0-6-2s3-4 5-2h13l-1-4v-8c-2-2-7-1-6 0l-1 1c-1 0-3-3-2-4v-10c0-9 1-13 3-13l2 2zm40 6c-1 2-2 4-4 2l1-2v-1h-2l-1-1 3-1c2 0 3 1 3 3zm-344 5 1 4 2 3c1 2 2 4 1 7 0 6-3 7-4 3l-2-2c-1 1-1 0-2-9l1-10c2-2 3 0 3 4zm328-2h1v1l-1 4c1 4-1 12-1 8l-1-2-2-5 1-4 1-1v-2h1l1 1zm20 1-1 2v-2c0-3 1-2 1 0zm-308 2v2l1 1c-1 2-4 3-5 1-1 0-1-1 1-2l1-3 1-2 1 3zm-86 1-1 5c-1 1-2 2-1 3 0 3-2 4-4 2h-2l-1 1-1-2v-1l-1 1v2l-1 1-1-3 1-4c0-2 1-2 2-2l3-2c2-1 2-1 1 1h1l1-3 2-2c2 0 2 1 2 3zm12 0c0 2 5 4 9 5l-1 1v3c2 0 3 3 0 3l-1 1-1 1c-2-1-1 0 0 3h3c2-2 3-1 2 1v3l-1 1v1c1 3 1 4-1 4s-2 0-2-2v-2l-1 2c0 2-4 0-7-2-4-3-4-6-3-13l2-11c1-1 3 0 2 1zm59 0-1 2-2-2 1-2 2 2zm-83 0c1 1 0 2-1 3-2 2-2 2-2-1s1-4 3-2zm398 2 1 1 1-1 1-1h4c3-2 4-1 3 2 0 2-1 2-2 1s-1-1-2 1c-1 3 0 5 1 6v7c2 1 3 0 3-2 0-1 0-2 1-1v4c-2 1 2 4 4 4 1-1 2 0 1 1 0 3-2 4-4 4l1-1c1-1 1-1-1-3l-4-3-2-2-1-2-1-2-1-2-1-5c1-4 1-4-2-3-2 1-2 1-2-2l1-3 1 2zm-405 8h1l1 1 1 1 2 1v6c-1 1-1 2 1 2 1 1 1 1-1 1l-2-1-3 1-3 4c3 10 2 10-2 12l-4 3v1c-1 1-1 0-1-1h-1l-1 2-1 2c1 2 1 2-1 1v2c0 2 0 3-2 3l-1 1-3 1c-4 0-4-1 0-2 2-1 3-1 2-2l1-2v-1l-1-2v1l-1 1-1-8c0-3 0-6 1-5v2l1 1 3-1 1-1-2-1h-1 4l3-2h-1c-1 1-2 0-1-7l1-8v3c0 4 0 4 1 1l3-1 1-1v-1l3-1v-1l-1-3c0-3 1-5 2-3l2 1zm391 4h-1v-1h1v1zm13 1c2 1 2 1 0 3v3l1 2 1 2 3 3c1 1 1 2-1 3l-3 2c-2 0 3 4 5 4l1 2h-9l-1-6c-2-9-2-9-5-8l-3 1c-2 3-2 0-2-5l2-6 1 1c-1 3 3 5 7 3l-1-2v-2c2-2 2-2 4 0zm-341 5 1 3c0 3 1 5 2 5l1-1c0-2 5-4 6-3l-1 7-1 10c-1 3-1 1-1-4l-1-6-2 5c-1 1-1 1-1-3s0-4-3-4c-2 0-2 0-2-4 0-2 0-3-1-2l-3 4v2l2-1 1-1-2 5h-1c0 1 3 2 5 1l1 1-1 6c0 4 0 4-2 2l-1-3-1-2-1-2h-1l-1 2 1 2 1 2-1 2-2-2c0-2-3-3-3-2l-1 3 1 1 1 1 1 1 1 2v2c1 1-1 6-2 6l-2 1-3 1c-2 1-3 3-1 5s2 4 1 4l-2-2c-2-3-6-4-6-2l2 1c3 0 3 6 1 7l-3-1c0-2-4-1-4 1l2 1 2 2c0 2-1 3-3 1h-1l1 2h1c0 2 4 1 5-2 3-5 3-5 7-3h3l2 2c1 2 1 2-1 2l-1 1 2 1h3c-1 2-3 2-5 1-1-1-2 0-1 4 0 5 2 7 5 7s3 0 3 2c-1 1 0 2 1 2l1 2h2c3 0 2-2 0-2s-3-1-1-3c2-1 2-1 3 1l1 2 1 1-4 3c-4 3-4 3-4 0l-2-2-2-1-3-1c-3 0-3 0-3-4v-9c0-7-1-8-4-5-2 2-6 4-8 3h-3l-3 1 1-2c2-1 0-2-3-2l-2 4-1 2v2l-1 3c-1 2-2 2-3-1-2-4-1-9 0-9h2c1-1 2-2 3-1 1 0 2-1 2-3 0-3 1-4 3-2h2l-1-1v-4l1-1h2c1 0 2-2 2-5-1-5 0-6 2-8 1-2 4-3 6-4 2 0 3-1 3-3l-2-3c-2-1-2-4-1-4l2-2 2-1c2 1 3-1 3-6l1-6 2-3c0-2 2-1 3 1 1 1 1 1 1-1s0-3 1-2l2 3zm48-1h-2l1-1c2-1 3 0 1 1zm-41 1c1 1 0 1-1 1l-1-1 1-1 1 1zm344 6v3l-2 3c-1 1-1 1-1-1l1-2v-6c1 0 2 1 2 3zm-389 0 4 2c2 0 2 1 2 3l1 1-1 4c-1 3-6 6-7 4 0-1-1-1-3 1v4h2v2l-1 4v3l-1 1h-3c-2 1-2 2-2 4 1 2 0 3-1 4l-2 3h-5c-1 1-1 1 1 4 3 2 3 2 1 2l-2-1v-1c-1-1-2 0-2 1-1 2 0 2 2 3s2 2 2 6l-1 5-1-1h-3c-1 1-1 1-1-2 0-2 0-3-1-2l-1 1c1 1-1 4-3 4l-3 2c-2 2-2 2-4 1s-3 0-2 2c1 1 1 1-1 1l-1 1 2 6 1 2c1-2 3 1 2 4 0 2-1 3-3 3-1 1-2 0-2-1l1-1 1-1-5-1c-4 0-5 1-5 7 0 2 0 2 2 2 2-1 2 0 2 3-1 2-1 4-4 5h-4c-1-2-1-2-2 0l-1 1v-2c-1 0-2 7-2 17l-1 6c-1 1-7 0-7-2l-1-8c0-6 0-7-2-7l-2-1c0-3 7-9 9-9 1 0 2-1 2-3s0-3-1-2l-1-3c0-4 5-8 8-8 2 0 3 0 3-2 1-10 3-19 5-18 2 0 6-3 6-5s0-3 2-3c3 0 5 2 3 3v1l2 1 2 1c1-1 1 0 1 2-1 2 1 3 3 1l3-1 3-1-2-1v-1c2-1 2-1 0 0-2 0-2 0-2-2l-1-1h-4c-4-2-4-2-3-7 0-8 0-10 2-11l1 2c-1 2 0 3 2 2v-2l2-4 2-4 1-2c2 0 2 0 1 2s-1 2 1 2 2-1 3-7c0-7 1-8 4-8 2 0 2-1 2-3 0-1 1-4 3-5 3-3 3-3 5-2zm-15 1h-2v-1l2 1zm411 8v7c1 1 1 0 1-2s0-3 1-2l2 1c2 0 2 0 1 4l-4 2c-2 0-3 0-3-4l-2-4c-2 0-2-1-2-4 0-4 0-4 3-4l4-1-1 7zm-468-5c2 1 2 3 1 4l-1 4v14c0 4-1 5-2 5-2 0-3-1-4-13-1-14 1-17 6-14zm62 1c1 1-2 4-3 3s1-4 2-4l1 1zm416 4c1 2 1 2-2 1-2-2-3-3-1-3l3 2zm-343 4c0 3-3 2-4-1-1-1-1-2 2-1l2 2zm-55 1c0 3-3 5-2 2v-3l1-2c1 0 2 1 1 3zm406 2-1 5-1 3c-1 0-2-3-1-4v-1c-2 0-2-4 0-5 3-2 5-1 3 2zm-6-1v2l-2-2c-2-2-2-2 0-2l2 2zm-38 4c-1 1-2 2-1 3l1-1 1-1 1 2-2 1-3 2h-1v-4l-4-2h-4c-2 0-1-4 0-4l2 1h9c1 1 1 1 2-1l1 1-2 3zm-236-2-1 1-1-2 1-1 1 2zm-96 3-3 4-1-2c0-2 0-3 2-3l2 1zm6 3v4l-2-4v-4c2 0 2 1 2 4zm2 0h-1l1-2v2zm329 0-1 1-1-2 1-1 1 2zm-426 0h2l-1 1-2 4c-1 4-1 3-1-1l1-5 1 1zm87 3c2 0 2 2 1 7-2 5-3 5-3 0 1-3 1-5-1-7l-1-3 1 1c1 2 2 3 3 2zm374-1-1 1-1-2h1l1 1zm-337 9v47l-1 9h-2l-2-3c-1 0-2-1-1-5l1-7c0-2 0-2 1-1v-1c-1-2-2-16-2-34 0-10 0-14 3-14h2l1 9zm-26-5c-1 1-1 0-1-2 0-1 0-2 1-1v3zm328-3-1 1-1-1 2-1v1zm-7 2-1 1-2-1 1-1 2 1zm4 3-2 4 1 2c1 0 2 0 1-1l1-1c2 0 2 1 1 2l1 2 4 2 3 2 2 4-1 1-1-1-1-2-1 2-2 2v-3c0-3 0-3-2-3-4 0-6 2-6 5h-2c-3 0-3 0-3-4-1-3-1-3 1-4 2 0 3-2 1-3-1-1-3 0-3 1l-2 1 1-2 1-2 2-2c1 0 2-1 2-3 1-3 1-3 3-2l1 3zm40-1c0 2-1 3-3 0v-2c2-1 3-1 3 2zm6 0h-3c-2-3-1-3 1-2l2 2zm-329 0c0 4-2 5-5 3-1-1-1-1 1-3 2-3 4-2 4 1zm-47 0 1 1 1 1c-1 0-4-1-3-2l1-1v1zm358 0v3c-1 1-2 1-2-1l-1-2c0-2 3-1 3 0zm-402 3c-2 2-3 0-1-1 1-2 1-2 2-1s0 2-1 2zm33-2v1l-2-1 1-1 1 1zm331 1-2 1v4l-1 1h-2c-1 1-1 1-1-1s1-4 3-5c2-2 5-2 3 0zm58 1-1 1v-1h1zm-377 1 1 1 1 2c-1 1 0 2 1 3 2 2 1 3-2 3-4 1-7-1-5-2v-2c-1-1-1-3 1-3v1l1 1 1-2 1-2c1-1 1-1 0 0zm-113 2c-1 1-1 1 0 0 0-1 0-2 1-1l-1 1zm497-1h-3c-1-1-1-1 1-1l2 1zm-474 4c0 4 0 4-3 0v-2h1c0-3 2-1 2 2zm467-2c0 1 1 2 2 1v1c0 2-1 2-3 0s-3-2-3 0-2 3-4 3c-2-1-2-5 1-5l1-1 6 1zm-483 0 1 4c0 3-1 4-3 4l-2-1-2-1c-1 0-2-1-1-2 0-2 1-3 2-3l2-1h3zm444 2c-1 1-3 1-3-1l2-1c2 0 2 0 1 2zm50 0-7 6c-1 0 0-2 3-4 2-3 4-4 4-2zm-440 2-1 2v-2c1-2 2-2 1 0zm44 3c2 2 2 2 0 3h-2l-2-1c-2-1-2-1-1-3 1-3 3-3 5 0zm353-2c1 2 1 2-1 1l-1-1h2zm-27 2h-2c-1-1 0-1 1-1s2 0 1 1zm-264 2c0 3-4 4-4 1-1-1 0-2 2-2l2 1zm-50 9c0 9-1 10-3 7v-11c-2-1 0-5 1-5l2 9zm-95-6c-1 1-3 1-3-1h2l1 1zm473 0c2 2 2 4 0 3-2 0-3 2-1 2v2c-2 3-5 2-5-2l1-5c0-2 3-2 5 0zm-61 5v5l-4 1c-5 2-7 1-6-3l1-4v-2c-3-2-2-2 3-3h6v6zm24-4v1l-2-1 1-1 1 1zm-458 6v5h-4c-3 0-4 0-3-1 0-1-1-1-2 1-3 2-3 2-4 0-2-2-1-3 3-6 3-2 6-3 7-2l2-1v-1l1 5zm439-1c0 3 0 3 1 1 0-3 0-3 3-2 3 2 3 5-1 5l-2 1-6 3 1-6c2-7 4-8 4-2zm21 0 2 2c2 0 3 1 3 2l2 5c2 4 1 5-3 5-2 0-3-1 0-2 1-1 1-2-1-3s-3-2-3-4l-1-2-1 3-1 2-1-2c1-1 0-3-1-3v-4c0-2 1-3 2-2l3 3zm50 1c-1 1-2-1-1-2h1v2zm-433-1c-1 1-1 1 1 1 1 1 2 0 2-1l2-1c4 0 2 3-5 8-5 2-6 2-5-1l4-2 2-1-3-1c-3 1-4 0-1-2h3zm345 4-1 2-1-1v-1l-2-1 2-2c1 0 2 1 2 3zm-7 4v3h-5v3h-1l-2-1v-5l2-1 3-1c1-2 1-2 2 0l1 2zm144-1-1 4c-2 1-2 1-3-1-1-4 0-7 3-5l1 2zm-111 1c0 4 0 4-4 4h-4l3-4 4-3 1 3zm-461 1-1 2v-2c1-2 2-1 1 0zm104 2-2 2c-1 0-2-3 0-4 1-1 2 0 2 2zm313-1c0 2-4 2-5 0 0-2 1-2 3-2s3 1 2 2zm20-1-2 4-3 3-2-3-2-2 3 1c3 0 3 0 2-2 0-2 0-2 2-2l2 1zm48 2c1 0 1 1 0 0l-1-1c0-2 1-1 1 1zm-434 1v3h-1c-2-1-2-2-1-3l2-1v1zm28 2 1 6c2 0 2 2 0 2l-1 3-1 3-1-4c0-3-2-6-4-5-2 0-1-4 0-5 2 0 2 0 0-2h1l3-1 1-1c1 0 2 1 1 5zm100-3v19l-2 6-1-5-1-7v-13h4zm291 0v1l-1-1v-1l1 1zm61 4c0 2-1 3-2 2l-1 1v1l-2-4c0-2 3-4 4-3l1 3zm-552-1c1 3-1 5-3 4-3 0-4-3-1-5 2-2 4-1 4 1zm21-1h1c2-1 2-1 2 1h1c1-2 1-1 1 3s0 5-1 2v-3l-1 2c-1 4-3 5-3 2-2-5-2-8-1-8l1 1zm85 2c0 2 0 3-2 3s-3-1-1-4c1-3 3-2 3 1zm42 0h-1l1-2v2zm361 0c1 2 0 4-2 2h-5l2-2 2-1c0-2 2-1 3 1zm92 1-1 2-2 1c-3 0-4-3-2-5s4-1 5 2zm-547 0-2 1 2-3v2zm65 2 4 5-2 4v5h1l1-2 1 2 1 2c1 1 2 2 1 3 0 4-2 4-2 1l-1-3c-1-1-1 0-1 1l-2 2v4c0 2 0 2-2 2s-3 0-2-2l-1-3-1 3-1 2-1-4 1-4 1-4-1-4-1-4 1-5 1-3c0-3 1-2 5 2zm7-3c-2 1-3 3-1 4 1 0 5-2 5-4l2-1c2 0 2 1 2 3l-1 3-1 2 2 2 2-1 1-1 2 1-1 1c-1-1-1 0-2 2 0 2-4 3-4 1 0-3-5-7-8-7-2 0-2-1-2-3 0-3 0-3 3-3s3 0 1 1zm-37 4c1-1 1 0 1 1 0 3 0 3 2 3 2-1 2-1 2 2l1 3v3c-1 2-2 3-4 3s-3 0-3 2-2 3-2 1l-2-1-2 1 1 1 1 2 1 2v2l-1 4c1 3 0 4-2 5l-2 2-3 1c-3 0-6-3-4-4v-1c0-1-3 1-3 3l1 2 1 1c-1 1-4-2-4-3v-1c-1 2-2 1-2-2l-1-4c-2-1-5-2-5 0l-3 2c-2 1-2 1-2-1l1-1h2l2-2 3-1c-1-3 0-3 3-1l2 5c-1 1 0 2 1 2l1-1 2-1c2 0 2 0 1-5 0-3 0-4 1-3s1 1 3-1l2-4 1-2v1l1 1v-4h1c1 2 3-3 3-7-1-4 0-6 2-5h2zm374 5c0 2-2 2-4 1v-7l2 2 2 4zm-472-3 1 4 2 6v4c-1 3-2 3-4 2-3 0-3 0-3 4l-1 11c0 9-1 11-4 10h-3v18l-1 21c0 4 2 6 5 6 3-1 3 0 3 4 0 5 1 5 2 5 3 0 6 2 6 4 0 3 2 5 5 5 2 0 3 0 3 3s-3 4-10 4h-6v-8h-8v-16h-8v-48h8v-24h8v-7c1-9 2-11 5-8zm460 0c2 3 0 7-3 8-2 0-3 0-4-2 0-3 1-5 2-4l2-1c0-2 1-2 3 0zm17 1-2 4c-1 2-1 2-2 0l1-5c2-2 3-1 3 1zm41-1c2 2 1 5-1 5l-2-3c0-3 0-4 3-2zm-495 1c1 1-1 3-3 3v-3h3zm442 1c1 2 0 3-1 2v-3l1 1zm60 1c2 0 8 2 10 4s-1 2-4 0c-2-2-3-2-4-1l-4-1-2-3h1l3 1zm-2 6-1 3c-1 1-1 0-1-2l1-3 1 2zm-288 0c-1 2-3 3-2 1v-1l-2 1h-2l-1 1v-1l4-2c4 0 4 0 3 2zm245 2 1 2 1 2 1-1c0-2 2-3 3-3l-1 3v1c1 0 2 1 2 3l1 4c2 2-2 1-8 0-5-2-5-2-5 0-1 1-1 1-1-1s0-2-1-1c-1 2-2 1-2-5v-5c0 1 4 2 4 0 0-1 3-2 4 0l1 1zm19 0v3c-1 1-1 1-2-1l-1-2-1-1c0-1 1-1 4 1zm-466 0c2 2 0 5-3 6-1 0-2-1-2-4 0-2 0-3 2-3l3 1zm246 1c1 2 1 2-1 2s-3-1-2-3c2-1 3-1 3 1zm214 1c2 3 2 4 1 4-2 0-4-3-3-3l-1-2v-1l3 2zm42 2-2 1-2-2c0-1 3-1 4 1zm-303 2c2 3 2 4-1 4-2 0-3-3-1-3l1-3 1 2zm-55 0c1 4 0 5-3 5-3-1-4-1-3-3 0-3 1-4 5-4l1 2zm351 0c-1 3-4 4-6 3-2-2-1-4 1-3l2-1c2-2 4-1 3 1zm15-1-2 3c-2 3-3 1-1-2 1-2 3-3 3-1zm-401 4c0 2-1 3-2 3l-1 2c0 1 0 2 1 1l1 1-1 1v2l1 5v4l-1-4-3-6v-5c1-4 3-7 5-7v3zm371-2c-3 0-4 2-3 5 0 4-1 5-4 4-4 0-4-4-1-4 2 0 2-1 2-3 0-3 0-3 4-3 3 0 4 0 2 1zm23 1c0 2 0 2 1 0 1-1 1-1 1 2s-1 4-1 2c-2-3-4-5-5-4l-1-1 2-1c2 0 3 0 3 2zm-534 1-2 2c-3 0-3-2-1-3s3-1 3 1zm469 3v1c-1 2-3-3-2-5l1 1 1 3zm-395-1v1l-1-1v-1l1 1zm22 0v1l-1-1v-1l1 1zm-30 1-1 1-1-1 1-1 1 1zm456 1c1 3 3 4 3 1l2-2 1 2v3c2 0 3 5 2 8 0 2-1 3-3 2-3-1-6-3-6-5l-2-2-2-1v-3c-1-2-1-3 1-4 2-2 3-1 4 1zm-8 0c1 3 0 3-2 1v-2l2 1zm-373 3h-1l1-2v2zm130-1-1 1-1-1 1-1 1 1zm96 1c1 2 0 2-2 1l-2-1h4zm-242 2c2 1 2 1-1 4-2 2-2 2-4 0v-2c2 0 1-2-1-2l-3-1c-1-2 7-1 9 1zm338-1c-1 1 0 3 1 5 1 3 1 4-1 4-2 1-6 0-6-1h-2l-1-1 2-1v-1l-2-2-1-2v-1h10zm29 1 3 2 2 2c0 1 1 2 3 2s3 1 3 2l-2 2-2 1-2 2v-2c2-2 2-3 0-4l-2-1-4-3c-3-1-3-1-3 1h-1l-1-4c1-2 3-3 6 0zm49-1v1l-1 2v2l-1 3c0 4-3 4-3 0-1-1-1-3 1-4l2-3c0-2 1-3 2-1zm-374 3c1 1 2 3 1 15 0 15 0 18-2 16-1-1-2-2-1-4v-2l-1 2-1 1-1-2v-2l-1 3-1 1-1 2c0 2-3 3-4 1-2-2 0-7 1-5 2 1 4 1 4-1l1-2c2 0 2-1 1-2v-2l1-7c-1-6-1-9 1-10 1-1 0-3-1-3-1 1-1 0 0 0 0-2 1-2 4 1zm347-1c1 0-1 3-2 2-2 0-1-3 0-3l2 1zm-34 1 1 3c0 2-4 0-6-2s-2-2 1-2l4 1zm111 3-1 7c-2 1-2 2-1 2v1c-1 1-3 0-3-2l1-1 1-1-1-1c-1 1 1-5 3-7l1-2v4zm-462 2c1 4 1 7 3 10l1 4c0 3-1 3-3 3s-3-2 0-4v-2l-2-3c1-1-3-3-6-3l-1 1-2 1c-2-2 1-4 5-4l2-2c0-3 2-6 3-6v5zm14-3h-1l1-2v2zm-30 3c0 3 1 4 2 1l4-1c2 1 3 3 0 3l-6 3 1 2v1c-1-1-2 0-3 1-1 2-1 2 1 2h2l3 1v2l-3 1h-1l-4 2-4-1 1-2 1-2 1-2 1-4 1-3c1 1 2-1 1-3-2-2-1-5 0-4 1 0 2 1 2 3zm85 1c0 3 0 3-2 3l-2-4c0-3 0-3 2-3l2 4zm183-3-1 2c-1 1-1 1-1-1l1-2 1 1zm62 2c2 0 2 0 1 1h-3l-1 1-1 2c-1-1-2 0-1 1l-1 1c-1 0-2-4-1-5h1l1 1v-1c-1-2 1-3 2-2l3 1zm6 2c-1 2-2 1-2-2 0-2 0-2 2-1 1 1 2 2 0 3zm99-1v1l-2 1c-3 0-3 0 0 2 3 3 4 6 2 6l-1-1-2-1c-2 0-3 0-4-6v-4h7v2zm-440 0c0 3-2 2-2 0v-2l2 2zm152-1v1l-1-1v-1l1 1zm-124 1-1 3c-1 2-1 1-1-1l1-3 1 1zm-61 4c0-2 1-2 3-2l3-1 5-1-2 4c-3 2-3 6-2 8 2 1 1 2-1 2l-2 2c0 1-1 2-3 2-3 0-3 0-4-4 0-4 0-4-2-2l-1 4v1c-2-1-2-10 0-12l1-3c0-2 0-2 2 1 2 2 3 2 3 1zm377-2-1 1v-2l1 1zm19 5 2 1 1 2 2 1 1 3-1 2-1-2c-1-2-2-2-5-2l-4 1h-2v-8c0-4 3-5 4-1l3 3zm-328-3h-1l1-2v2zm375 0c0 2 0 2-1 1l-3-1c-3-1-2-2 1-2 2 0 3 0 3 2zm37 1c0 2 0 3 2 4v3l-2 4-1 2c-1 0-2 1-1 3 0 2 0 3-1 2l-1-6v-4c1 2 2 1 2-3 0-5 1-8 2-8v3zm-48 1c1 3 0 3-1 2l-1-3c1-3 2-2 2 1zm22 1c0 1-4 2-4 0l2-2c1-2 3-1 2 2zm-94 1c-1 2-1 2-1-1 0-2 0-3 1-2v3zm86-3-1 1-1-1 2-1v1zm38 2-1 1-1-2 1-1 1 2zm-58 0-1 1-1-1 1-1 1 1zm97 0h-2v-1l2 1zm-477 5c0 2 0 3-1 2l-1-2v-3c2-1 2-1 2 3zm393-3c2 2 1 8-2 7v-6l-1-1h3zm84-1 1 2c0 2 0 2-2 2l-2-2 1-2h2zm-165 3-1 2-1 3c0 2 0 2-4 3l-7 3c-2 2-4 1-2-2l4-2c2 0 3-1 4-3l1-4c0-1 6-2 6 0zm76 0-2 2v-2l2-1v1zm25 0-2 1-1-1 2-1c1 0 2 0 1 1zm-344 2c2 1 2 2 1 5v18c1 5 0 7-3 5-1-1-2-3-2-15 0-16 0-17 4-13zm426 2-1 6v1l1 1-2 2c-2 0-2 0-1-2v-5c0-3 0-3-4-2-6 0-8-2-3-3l4-1 3-1c3 0 3 1 3 4zm-111-2-1 1-2 1h-2v-2h5zm24 1 1 2 3 1c2 2 2 2 0 1-3 0-3 0-4 2 0 1-1 2-2 1s-1-2 1-2v-1c-3 0-3-6-1-6l2 2zm-472 3c0 1-1 2-3 2s-2-1-2-2l1-3c2-1 4 1 4 3zm488 2c0 5 0 7-2 7-1 1-1 1 1 2s5 0 5-1h1c1 2 1 3-1 3-1 0-4 2-3 3 1 2 5 1 7-2 3-3 4-3 5 1 1 2 0 2-2 2l-3 1c0 1 2 1 7-1 5-1 6-1 5 4 0 4-1 4-4 4l-6 1c-2 1-2 1-2-1s0-2 3-2c3 1 4-2 0-3l-3 1c-1 1-1 1-2-1 0-2-1-2-2-2h-3c-1-2-2-1-2 1 1 1 0 2-1 2h-2l1-1c1 0 0-4-2-6v-1l1-2c0-1-1-2-3-2s-5-2-5-3l2-1 2 1c0 1 3 1 5-1l1-4 1-5 1 6zm-268-4-1 2-1-2 1-1 1 1zm197 2 1 4-1-2h-1c0 1-1 1-2-2-2-3-2-3 0-3l3 3zm123-3-1 1h-1l1-1h1zm-57 3-1 1-2-1-1-1h-2c-1-1-1-1 2-1l4 2zm-424 0-1 1 1 1c4 1 4 3 0 3s-4 2 0 3c2 0 3 1 3 4 0 4 0 4-2 3l-4-4c0-1-1-2-3-2-3 0-3 0-3-4s0-4 2-4l3 1 1-1c1-2 3-3 3-1zm445 6-1 1c0-2-1-2-2-2-3 1-3 1-1-3l1-3 3 2c2 3 2 3 0 5zm-38-4h-2c-2-1-2 2 0 4l1 1h-4c-4 0-5-3-2-4 4-1 4-2 1-2h-1c2-1 8-1 7 1zm-454 4c1 2 1 3-1 3v-5c0-3 0-2 1 2zm64-2h-1l1-2v2zm357 3c-1 2-1 3 1 3h2l-2 1c-2 1-3 3-1 3v1l-1 2v1l-1-3c0-2 0-2-2 0l-2 3 1-4-1-3v-3h1l2 3c1 1 1 0 1-2l2-4v2zm-16 1v4c-1 3-1 3-3 1l-1-2v-1c-1 0-1-1 1-2h3zm53 0 2 1c3 1 3 1 2 3l-2 1-1 1c0 1-4 1-5-1v-4h1l1-2 2 1zm97 6-1 3-3-6c1-2 3-1 4 3zm-549-2 2 1-1 2-3 1-1-1v2c0 2 1 2 2 1l3-1v1c-3 0-3 2 0 3 2 0 3 3 0 3l1 1c2 0 2 1 0 3-2 3-6 3-5 0 1-1 0-3-2-5-3-3-4-6-3-10 1-2 2-2 4-2l3 1zm156 1-2 1-2-1c-2 0-1-2 1-2s3 0 3 2zm267-1c1 2-2 4-4 4l-1-1 2-1c1 0 2-1 1-2l1-1 1 1zm-365 1c1 1 0 3-1 4h-2l1-4h2zm403 0h-2v-1l2 1zm-321 4c0 2 1 2 4 1 6 0 8 2 6 5s-6 3-8 0l-2-2v4l1 7c2 5 2 4-1 8-5 5-6 3-4-15v-7c0-2 4-3 4-1zm285 0c0 2 5 5 6 3h2l1-1 1-1 1 2c0 2 0 2-2 2-2-1-3-1-3 1h-2l-4-2c-2 0-3-1-3-2h-4c0-2 2-2 6-3l1 1zm-405 0-1 1h-1l1-1h1zm32 1v6l-2-1h-1l-1 2c-1 0-2 1-2 3 0 3-2 4-3 3v-3l1-7-1-4h4l5 1zm23 0-2 1-3-1 2-1 3 1zm391 0-1 1-1-1 1-1 1 1zm91 2c-1 2-1 2-4 1-2-1-2-3 1-3 3-1 3 0 3 2zm-40 0-1 2c-1 2-4 0-3-2s4-2 4 0zm-509 5c0 2-2 3-2 1l-1-4c0-3 0-3 2-1l1 4zm414-2-1 2v-2l1-1v1zm-400 2-1 2-1-2 1-2 1 2zm16 0-1 4v2h1l1 2c2 3 5 4 5 2s1-2 3-2c3 0 4 0 3 1l1 2 1-1c0-2 2-4 4-4 2 1 1 3-2 7-3 3-5 4-4 1 0-2 0-2-2-2s-2 0-1 2v4c1 0 1 1-1 2h-2l-1-1-2-1-1-5c1-2-2-1-4 1l-3 2c-1 0-2 1-2 3-1 4-3 5-3 1l1-3 2-3c1-3 1-3-1-5s-2-2-1-3l1-2c0-2 2-4 4-4l2-1 1-1 1 2zm-41 4-1 4-1-2-1-4 1-2c2 0 2 1 2 4zm424 1-1 2h-1c-1 1-1 0-1-3 0-4 0-4 1-3l2 4zm-371-2-2 1 1-2c2-1 3 0 1 1zm338 0c-1 1-2 2-3 1l1-2c2-1 2-1 2 1zm177 1 1 8v4h8v15c-1 14-1 14-3 15-3 0-4-7-1-10 2-2 3-2-2-4-2 0-2-2-2-8v-8h-4c-4 0-4 0-4-4l2-5v-2c-1-2 1-4 2-4l3 3zm-133-1 2 3 1 2v5c2 2 4 4 4 7 1 3 0 4-1 4l-1 1h-6 2l2-1c2-2 0-3-1-1-1 1-1 1-1-1v-2l-1-2c0-2-1-2-3-1h-3l3-2c3-3 3-7 0-7-2 0-2-1-1-5h4zm13 0c-2 1-2 2-1 2l2 1c2 2 1 2-2 2h-2l-2-2c-2 0-3-1-1-2h3c0-2 0-2 2-2s2 0 1 1zm41 0h-4c-1-1-1-1 1-1l3 1zm4 0c0 2 3 3 5 2 4-1 7 2 7 5s-2 4-8 3c-4 0-5-1-3-2v-1l-2-1-1-4 1-3 1 1zm-40 2 3 2-6-2h3zm34 1h-2v-1l2 1zm-104 2c1 3 0 3-2 1l-1-2 3 1zm-381 2v2l-1 3-3 3c-2-1-3-6 0-8h4zm102 2-1 3-1-1-2-1-2-1c0-2 0-2 3-2l3 2zm261 0-2 1c-2 0-2 0-1-1h3zm95 0c-1 0-1 1 1 1l2 1h-3c-4 0-4-3-1-3 2 0 2 0 1 1zm-427 1-1 1-1-1 1-1 1 1zm344 0c2 2 1 3-1 2-2 0-2 0-2 2v1h-1c-2 0 0 2 2 2l2 1-1 2-1 1h4c0 1-3 2-5 1v-4c-2 1-3-1-3-5l2-2v-1c-1-1-1-1 1-1l3 1zm-387 1v2l-2-2 1-1 1 1zm463 2c-4 0-5-1-3-2h3c2 1 2 1 0 2zm-63 0v3c-1 1-1 0-1-1l-1-2-1-1c0-2 2-1 3 1zm-38 3-1 4-1 2c-1 1-1 2-2 1-1 0-1-1 1-3v-3l-1-4c3-1 3-1 4 3zm107-3v1l-2-1 1-1 1 1zm-74 2-1 2 1-4v2zm126 0-3 4-1-3c0-2 0-3 2-3l2 2zm-56 0-1 2c-2 0-3-2-2-2h3zm-74 1h-2v-1l2 1zm98 2-1 3v-6l1 3zm-46 0h-1l-1 1h-1c-2-1-1-3 1-2l2 1zm28 0c0 1-4 1-5-1h2l3 1zm10 1 2-1c3-1 5 0 3 2h-7v-1l-4-1c1-1 6 0 6 1zm-430 0 1 2 2 1-2 1c-1 0-2 2 0 2v2l-1 4c-1 3-1 3-2 1 0-2-2-3-3-3l-1 3c0 2-2 6-3 5l-1-11 1 2h1l2-2 1-2c-1-2 0-3 1-4 3-2 4-3 4-1zm5 2h-2v-2c0-1 2 0 2 2zm402 0c1 1 3 0 5-1h4c2 2 4 2 4 1-1-2 2-2 2 0 1 2 0 3-4 2-2 0-2 0-2 3 0 2 0 2-1 1l-4-2c-1-1-2-1-1 1l-2-1-2-4v-1l1 1zm-369 1c1 4 0 7-2 6h-1l2 1 1 3v1l1 1-1 2h-1l-1-1c-1 1-1 0-1-1 0-2 0-2-1-1l-1 1v-5c0-5 2-10 3-10s2 1 2 3zm305 0h2l5-1c2-1 5 0 6 4l3 3v1l-1 2h1l1 3c0 2 0 3-2 3s-2 1-2 3l1 3 1 2 1 3v1l-1 3c2 4 1 7-3 7-2 0-2 0-3-2v-4l1-13-1-12c-2-1-2-2-1-4 0-2-1-3-3-1v2c2 2 0 3-4 3l-2-1-1-1-1-3 2-2 1-1 1-1-1 3zm144-1 1 4c0 4 0 4-4 4-7 0-10-1-10-4 0-4 0-5 6-4h7zm-522 3 3 4 3 2c3 2 3 2 1 3l-3 2-3 1-2 7c1 2 3 3 3 0h1l2 2 1 5 1 5 1-1 1-1c3 0 2 2-1 5-2 2-2 2 0 3v1c-3 2-5 0-5-3 1-2 1-3-1-2l-1 1c0 1-1 2-2 1l-2 1v1c-3 0-2-3 0-4 4-1 6-6 2-6l-2-2-2-2v7h-1v-2c-1 0-3 2-4 6 0 3 0 3-1 1l1-4 1-7c0-5 1-6 3-4 1 1 1 0 1-3l1-4 1-3c0-1 0-2 1-1s6 0 6-1l-4-2c-2 0-2 0-1-1v-1l-5 1-2 2-1 2v-11c0-2 6-1 9 2zm27 0c-1 1-1 0-1-1s0-2 1-1v2zm55 1c0 1 0 2-1 1h-1l-1-1c0-2 1-2 3-3v3zm355-2-1 2c-1 1-1 1-1-1l1-2 1 1zm34 1-2 1-1-2h1l2 1zm-452 0-1 1h-1l1-2 1 1zm382 0v1l-1-1v-1l1 1zm-33 1-1 1v5c2 2 4 9 3 11s-3 2-3-1l-2-2c-2 0-2 0-1-1l1-1v-12h3zm66 3c0 3-1 3-1 1-2-2-2-4-1-4l2 3zm13-1h-1l1-2v2zm20 0c1 1 0 1-4 1-3-1-4 0-4 1l-2 1-1-1h-1l-3-1 1-1 2-1 6-1c4 0 6 0 6 2zm-17 2v2c0 1-1 1-1-1l-1-3h1l1 2zm38-2v3l1 1 2 1-1 1v1h-2c-3-3-4-2-4 1 0 2 0 2-3 2l-5 1h-1c1-1 0-2-1-2-5-2-3-4 4-4 2 0 4 0 3-1l1-3h1c0 1 2 1 4-1s2-1 1 0zm-469 10c0 9 0 10-2 10s-2-1-2-2c1-2-1-1-2 1l-2 2v-2l-1-3v-7l1-1 2-2 1-2 1-2 2-2c2 0 2 1 2 10zm21-6c-1 2-3 3-3 1 0-1 2-5 3-4v3zm439-3-6 1c-2 1-4 0-4-1l5-1 5 1zm-415 4c-1 2-1 2-1 0s0-2-1-1c0 2-2 2-2-1l2-1c3-1 3-1 2 3zm345 2c0 1 0 2-2 2s-2 0-1 1l2 3c1 2 1 2-1 3s-2 1-1 2c2 1 2 1 0 1l-4-1h-1v-4c-3-1-2-2 0-2 2 1 3 0 2-3l3-1c2 0 2 0 1-1-2-1-2-2-1-3 2-1 3 0 3 3zm-343-1h-1l1-2v2zm378-1-2 1-1-1 2-1 1 1zm85 0c0 2-3 3-4 3v-3c1-1 4-2 4 0zm-38 5h-3c-1-1 0-1 1-1 2 0 3 0 2 1zm-488 2h-1l1-2v2zm94 0c1 0 1 1 0 0l-1 1-2 2c-1 1-1 1-1-1v-3c2-1 4-1 4 1zm257 2c-1 4-3 8-6 8l-1-4c0-7 1-8 4-8 2 0 3 0 3 4zm-323-1-2 4c-2 2-2 2-1 3s1 1-1 2l-3 2c-1 1-1 1-1-1l-1-3c-2 0 2-5 5-7l4-1v1zm30 0 1 1c3-1 4 0 3 3 0 4-2 4-5-1v-3h1zm434 0v1c-2 1-1 3 1 3v1l-2 1h-5c-2-1-3-2-2-3 0-3 7-5 8-3zm10 6v3l-1 2-1 3v3c0 2-2 3-2 0 0-2-1-1-4 1l-2 1 1-2v-3l1-1c3 1 2-1-1-2-3-2-3-2-1-2l2-1 1-1v1h3l1-1-1-1-1-1c0-2 4-1 5 1zm-365 1c0 3-2 5-5 5-3 1-4-1-4-4s0-3 4-3c5 0 5 0 5 2zm275 0h-1l1-2v2zm-328 0h-2v-1l2 1zm333 0c1-1 1-1 1 1s-1 2-2 2l-2 1c0 1 0 2-1 1l-1-2c2-5 2-5 3-3 2 2 2 2 2 0zm-366 3v3l-3 1v-1l1-3 1-2 1 2zm-33 0-1 2c-1 2-1 2-1 0l1-3 1 1zm36 3 1 7c2 3 0 8-3 8l-1-3-1-2h-1c-1-1-1-1-1 1 0 1 0 2-2 1l-2-1h-2l-2 1v1c2 2 2 2 0 3-2 0-2 1 0 3l1 3v-2c0-3 1-4 2-1 1 1 1 2 2 1 1 0 2 1 2 6 0 6-1 9-2 9v-2h-1c-3 2-3 1-2-4l1-2 1 1v-3c0-4-1-4-4-1s-3 4-6 1c-2-2-3-3-2-4l2-5 1-7c1-2 6-2 5 0l-2 1-1 1h3c2-1 3-5 1-5l-1-2 1-2 1 1 1 2 1 2 1 3 1-3c0-2-1-3-2-3l-1-1 1-2c2-1 2-1 2 1l2 2c1 0 2 0 1 1h-1v1c0 2 3 3 3 2-1-2 2-12 3-12v4zm357-1h-1l1-2v2zm-68 2c0 2-1 2-3 2-2 1-2-1 0-4 2-2 3-1 3 2zm-322 0v2l-1-2v-1l1 1zm354 7c0 6-2 8-5 6-2-1-2-11 0-13 4-2 5 0 5 7zm38 4-1 2c-1 1-1 1-1-1l1-3v-3l-1-5c1-1 1 0 2 4v6zm14-8 1 3h-1l-4-3c-1-1-1-1 1-1l3 1zm-437 2c1 1 0 2-1 2v-2c0-3 1-3 1 0zm31 1v3l-1 1-1 5c0 3 0 4 1 2 1-1 1-1 1 2-1 3-3 4-5 2l1-1v-5l-1-1-1-4c0-3 0-4 2-3l2-1-2-1-1-1c0-1 3 0 5 2zm403 2-1 1-1 3c0 2 0 3 2 3s3 2 2 5-1 3-4 2c-4-2-5-4-3-5v-2c-2 0-1-2 1-5 3-3 4-4 4-2zm18 3h3l1 1-6 2c-6 1-9 1-8-1 1-1 0-1 0 0l-2-1c-1-2 0-2 2-2l3 1c0 1 2 2 5 1h2l-3-2-1-1 4 2zm84-1-1 1v2c-3 0-4-2-2-3h3zm-520 2-3 2-2 2v1l-1-3c0-3 0-3 3-3l3 1zm338 11c0 4 0 7-1 6l-1-14c1-2 2 1 2 8zm102-8h-2c-1-1 0-1 1-1s2 0 1 1zm-448 10 1 3-1-2-1 2c-1 2-1 1-1-5 0-5 0-7 1-5l1 7zm9-7 1 3v7h-3c-2 0-3-1-2-2l1-6 3-5v3zm8-2v2l-1-2v-1l1 1zm429 3-2 5c-2 1-2 1-2-1s-1-2-3-2l-3 1h-1l10-6 1 3zm-377-2-1 1h-1l1-1h1zm331 2c1 1 2 8 0 8h-2l-1 1v1c-2-1-3-9-1-10h4zm17 1c-1 1-1 0-1-1-1-1-1-1 0 0l1 1zm-439 5c0 4-1 6-3 6v-1l1-2h-1c-1 2-2-1-2-3v-2c-2 1-1 0 1-2 1-2 1-2 3-1l1 5zm575 3c0 2-3 3-6 1-1-2-1-2 1-3l2-4v-4l1 4 2 6zm-114-5v1l-2-1 1-1 1 1zm-417 1v2l-1-2v-1l1 1zm412 1-2 1-2-2c0-1 3-1 4 1zm-508 0c2 1 2 6 0 5-2 0-3 0-3-2-1-4 0-5 3-3zm70 3h-1l1-2v2zm450 0h2c1 1 0 6-2 8-3 1-3-1-1-3s1-5-1-3h-2l-1-2v-1h3l2 1zm-419 0h3l2-1c2 0 2 0 1 1v3l1 2 1 4c2 1 2 2 1 2l-1 4-2 2-1-2-2-2-5-5v-3l1 2c0 2 3 4 5 4 1-1 1-1-1-1-2-1-4-5-4-8l-2-1-2-1h5zm444 0c1 2-1 3-3 3v-2l-2-1c0-2 5-1 5 0zm-459 3c-1 1-2-1-1-2h1v2zm453-1c1 1 0 2-1 2v-1h-6c0-3 7-4 7-1zm-445 0-1 1-1-1 1-1 1 1zm20 3c-1 1 0 2 1 3v1c-2 1-3 1-3-1l-2-4v-1l2-1h1l1 3zm304-3c1 1 0 2-1 1-1 0-2-2 0-2l1 1zm108 3-1 2-1 2c0 2 3 3 4 1h2l5 1c4 0 5 0 5-2 1-1 0-2-1-3v-1h2l3-1c1-1 2-1 2 3l-1 4-2 2c0 3-3 4-3 2h-3c-1 0-2 1-1 2 0 1-3 1-12-1-5-1-6-2-4-4 2 0 2-2 2-3l1-2 1-2 1-2 1 2zm-456 10v10l-1-11v-10l1 11zm15-9v2c2 1 1 2-2 1-2 0-3-4-1-4 3-1 3-1 3 1zm412 2-1 2-1 2c0 2 0 2 1 1l1-2v1l1 3 2 3h-1c0-1-1-1-2 1-1 1-1 1-2-1-2-4-1-16 1-13l1 3zm113 0c-2 1-2-1-2-3h2v3zm25 9a194 194 0 0 1-1 26l-1-6-1 1c-1 1-1 1-1-1v-3l-2-6c0-6 1-11 4-11l1-2-1-1c-1 1-1 0 0 0l-1-3c-1 0-2-1-1-2l2-2c1 1 1 1 1-1v-1l1 12zm-555-7-1 1-1-1 1-1 1 1zm12 1 1 2c2 0 1 3-1 4-1 1-2 2-1 4l-1 3-2 2-2 1c-2 0-1-3 1-5 1-2 0-4-2-4-2 1-6-5-4-6 1-1 5 1 5 2l1 1 1-2c0-1 3-4 4-3v1zm-83 3c3 2 2 4 0 4-3 1-5 0-4-3v-3c0-1 3 0 4 2zm175 0c0 2 0 2-1 1l-1-1-1-1c2-2 3-1 3 1zm-78 5-2 1h-3v-1l1-1v-1c0-2 0-2 2-1l2 3zm40-1v-1c1 0 2 7 1 9h-5c-3-1-4-2-2-4v-1l1-1 2-1c0-2 0-2 2-1h1zm400 2c0 1 5 2 6 1h6c1 0 1 2-1 2l-2 2-2 2c-2 0-3 1-3 2 0 2 4 3 6 1l5-1c2 0 3-1 3-2l2-1h2l1-1c2 0 2 1 1 3-1 1-1 1 0 0v3l3 11v1l-1 2-2 2c-2 0-1-1 1-3 1-2 1-2-1-1l-2 4c-1 3-1 2-1-1l-1-7 1-1c1 1 2-3 0-4h-1l-3 1h-9c1-1 0-1-2-1h-2c0-2-2-3-4-3-1 1-2 0-3-1-2-1-2-2-2-5l3-4 1-2c0-2 0-2 1-1v2zm-473 3c-1 1-1 0-1-2s0-3 1-2v4zm432-4v7l-1 5 2 6c2 1 2 1 1-1-2-2-2-3 0-3l4 3c2 1 3 3 3 6l1 3 1 1 1 2c2 0 2 1 2 8 0 2 0 2-2 2l-3-1-1-2c-1 1-1 0-1-3 0-6-1-9-3-9-1 0-2-1-1-2l-1-1-1 1-1 1-1-2v-2l-2-7c0-6 0-7 2-6 2 0 1-2-1-5-2-2-1-3 2-1zm-423 3c0 1 0 2-1 1l-1-2 1-2 1 3zm16-2c0 2 0 2-2 1h-2c-1 3 0 5 2 6h1-4l-1-4c0-4 0-4 3-4l3 1zm40 10v1c2 0 1 2-1 3l-2-1h-1l-1-1v-3l1-1c2-2 4-1 4 2zm291-2-1 2 1-4v2zm163 1v4l-1-4 1-3v3zm-521 4-1 5c-1 1-1-1-1-5l1-6 1 6zm15-4c1 1 0 4-1 4l-1 2-2 2c-2 1-3 4-1 4l1-1 1-1c1 1 2 0 2-2 1-2 1-1 1 2 0 4 0 4 1 3 1-2 2-2 2-1 2 2 0 3-4 2-3 0-3 0-3 2 0 1 0 2 1 1v2l-4 2-1 1-1 2c-1 1-1 1-1-1a39 39 0 0 0 0-5c0 2 1 2 3 1 1-2 1-5-1-5-1 0-3-4-2-6v-1l-1-1 1-3c0-3 0-4 2-4 3-1 7 0 8 1zm-69 1c3 2 2 4 0 5-4 0-5-1-5-3 0-4 2-5 5-2zm434 0c0 1-2 3-4 2h-1l-1-1c0-3 5-4 6-1zm-355 1 1 3v1c-1 0-3-2-3-4l1-2 1 2zm105 2h-3v-2h2c1 1 2 1 1 2zm342 0v1l-2-1 1-1 1 1zm-107 9c-1 1-1 0-1-1s0-2 1-1v2zm-305-2-1 1h-1l1-1h1zm-60 11 1-5c0-4 1-3 1 3s0 8-1 7h-1l-1 1-1-9c0-5 0-6 1-2l1 5zm510-8-2 1h-1l2-2c2 0 2 0 1 1zm-419 2v5c0 1 0 2-2 2s-5-5-4-7h6zm423 3c-2 3-3 3-3 1 0-3 2-5 4-4 1 1 1 2-1 3zm-126-2h-1l-1 2v1c-3-3-2-4 0-4l2 1zm15 0c1 1-1 3-3 3-2-1-2-1-1-2 2-2 4-3 4-1zm120 0-2 1c-2 0-2 0-1-1h3zm-13 4-1 1c-1 0-2-1-1-2 0-2 0-2 1-1l1 2zm-6 0-1 1-1-1 1-1 1 1zm-452 4c0 4 0 4-3 3-3 0-3 0-3-3-1-2 1-4 3-4s3 1 3 4zm309 3c0 2 1 3 2 1 1-1 1-1 1 1l1 2 1 2c-1 1-3 1-3-1s-2-1-3 1c-1 3-2-3-1-8 0-4 0-4 1-3l1 5zm-357-2c-1 1-1 0-1-1s0-2 1-1v2zm501 2c0 1-2-1-1-3l1 1v2zm34-1c0 3 4 6 7 6s4 1 1 3h-3l-4-1-1-1-2-1c-2 1-2 1-2-1 1-2 0-2-1-2l-3-2c-1-2-1-2 1-2 5-1 7-1 7 1zm-538 3 1 1 1 2h-4l2-4v1zm42 3c0 3 0 3-3 4l-2-1v-2l2-1h1c-1-1 0-5 1-3l1 3zm412-1h-1l-1 3c0 4 0 4 3 2h3l-1 1c-1 0-2 1-1 2 0 1 0 2-2 1-2 0-2 0-2 2h-1c0-2-1-2-1-1h-3l2-1c2-1 2-1 0-7l1-4c2-1 4 0 4 2zm-86 0v4l1 4-3 2c-1 3-2 2-2-1l2-8 1-3 1 2zm3 1-1 3-1-3 1-3 1 3zm147 3c0 2-2 3-2 1v1l-1 3-1-2-1-1c-2 0-1-3 1-5 1-3 1-3 3-1l1 4zm-403-1v25c0 2-3 2-5 0-3-2-3 1-3 22v19l-3-1c-2-1-3-2-3-5v-30c1-11 3-14 5-12 3 2 5-6 4-11v-9c3-3 5-1 5 2zm456-1-1 2-3-2-2-2c-1-1 0-1 2-1 4 0 4 0 4 3zm-240 1c0 1 1 2 2 1l3 1c1 1 0 1-1 1-3 0-8 5-7 6l4-4 1-1 1 1h2l2 1v2l1 4c1 5-3 8-5 4h-1c0 2 0 2-2 1 0-2-1-2-2-2l1 2v5l1 6v5h-9v4c2 12 2 19 1 20-2 0-7-1-8-3l1-1h1l1-2v-15l-1-3v-1l-1-2c-1-2-1-2 1-2 2 1 3 0 0-2-1-1-1-1 2-2l4-3 2-1 1-3 1-4c1-2 1-2-1-2s-3-3-1-4l2-1c0-2 2-8 3-7l1 1zm-297 1v1l1 2h-1v2c2 3 0 5-3 3s-4-6-1-5l1-1c0-2 1-3 3-3v1zm329 4c0 2-3 3-3 0-1-1 0-2 1-3 2-1 3 0 2 3zm162 3h-2v-1l1-2c0-2 0-2 1 0v3zm-171-3 1 2v3l2-3c0-2 0-2 2-1v3l-1 1-4 1c-3 0-3 0-2 2l1 4h3c0-2 8-2 8-1l-3 1c-3 0-5 2-5 4 0 1 0 2-1 1l-1 4c1 5 1 5-1 4l-2-3v-1c-3 0-2-16 1-16v-1c-2 0-3-3-2-4 0-2 4-1 4 0zm106 2v1l-2-1 1-1 1 1zm5 1c1 3 0 3-3 3s-2 2 1 2c2 1 3 0 4-1h1c0 2 2 3 2 1 1-2 3 1 3 3h-1l-1-1v5-1h1v3c-2 2-3 2-2 0l-1-1c-1 0-2-3-1-4v-1c-2-1-2 0-2 2l1 3v6l2 2 1 4 2 7v3h-4l-4-2c-2-1-1-5 1-6l1 1c-1 2 0 3 2 1l-1-2-1-3-1-3-1-5-2-6v1l-1 2-1 2c-1 1-1 0-1-2v-8c-1-1 4-7 5-7l1 2zm89-1c1 2 1 2-2 2s-4-1-2-2h4zm8 5 2 2h1l1 1h2l1 3-1 2-2-1c1-1-1-2-4-1-2 0-3 0-4-2v-3l1-2v-2l2 1 1 2zm-543-1 3 1h2c-1 2-1 2 1 2 3 0 2 3-1 4-1 0-2 0-1-1v-2c-1-2-3-3-2-1 0 2 0 2-1 1l-3 2v3l-1 2 1 1c2-1 3 1 1 2-1 1-2 0-4-3v-2c2 0 2-4 1-5-2 0-1-3 0-3l1-1 1-1 2 1zm47 3v4l-1 2-2-2c-2-3-3-5-1-5 2-1 3-1 4 1zm329 0-1 1h-2v-2c0-1 2-1 3 1zm183 0-1 1h-1l1-1h1zm-39 5c0-2 0-2 1-1l3 2v-1l1-1c2 0 3 3 2 5-2 2-11 3-12 2l1-3v-6l2 3 2 3v-3zm-527 2c0 2 0 3-1 2l-2 1 1 6c1 4 1 4-1 4s-3-1-3-3l1-3v-2l1-2v-3c-2-2-1-4 1-4 3 0 3 1 3 4zm566-3 1 1v3l-1 2c1 2-1 4-2 3l-3-3-1-3c-2 0-1-3 1-3l3-1 2 1zm-120 9h-2c-1-1-2-2-1-5v-4l1 4 2 5zm-403-6c-1 2-1 2 1 1 3-2 5 0 3 2l-1 2-2 1c-1 1-2 0-1-1l-1-2c-1-1-1-4 1-4v1zm424 1-2 1-1-1 1-1 2 1zm107 1c0 2 0 2-2 1s-2-3 1-3l1 2zm-224 3-1 3c-2 0-3-2-2-4 0-2 3-1 3 1zm16 2 1 5c1 2 1 2-1 2l-3-4c-1-4 0-7 2-7s2 1 1 4zm112 1c0 1 0 2-1 1-2 0-2 0-2 3 0 2-1 3-2 3v-1l-1-2-2-3c0-2 1-3 3-3 4-1 4-1 5 2zm-442-1c5 1 5 3 1 3-3 0-3 0-1 1s2 1 1 2h-10v-1c-2 1-3-3-1-5h10zm302 0 1 4c2 3 0 4-2 2-1-2-1-2-1 0 0 3-2 5-3 2h-2c-1 1-2 0-2-4-1-2 0-3 1-4h4l3-1 1 1zm187 1 1 4c0 1 0 2-1 1l-1-1c-1 0-2-1-2-3 0-3 2-4 3-1zm49 3v2c-2 3-4 4-3 1v-1c-1 1-1 0-1-1l1-2c1 1 1 0 1-1h1l1 2zm-549 6 2 1c3 0 3 2 1 3-2 2-5 1-4-1l-2 1c-3 2-5 3-4 0v-1c-2 0-1-4 1-5s5 0 6 2zm567 2c0 4 0 4 3 4 4-2 5 0 5 9 0 6 0 8-1 7l-1 1c1 3-1 2-3 0l-2-2c-1 1-2-4-2-9l1-5-5-1c-4 0-5-1-4-6 0-3 0-3 5-3h4v5zm-58-3c1 1 0 4-1 4s-2-3-1-4l1-1 1 1zm-465 3 1 3-2 3-1 1-1-5c0-4 0-4 1-3s1 2 2 1zm503-1-1 2v-2h1zm-234 2-1 1-1-2c0-2 1-1 2 1zm212-1c1 1-1 7-2 9l-4 1c-2-1-4 1-1 3 1 2 3 2 3 0 2-3 5 1 4 6 0 4-1 4-4 1-1-2-3-2-3-2h-2c-2-1-2-1-2-4l-1-3c-4-1-2-4 3-6l5-2 3-3h1zm-208 4c3 5 2 8-1 9-4 1-5 2-5 10 0 12 0 11-4 11l-4-1v-11c0-13 1-14 6-14l4-2 1-2h1v-1l-1-1c0-2 2-1 3 2zm128 4-2 1-3-2-1 1 1 1v4h1l-1 2-2 3h-1c-2-1-3-6-2-7l1-3c0-2 1-3 3-4s3 0 4 1l2 3zm2-4v1l-2-1 1-1 1 1zm-448 1c-2 0-3 4-1 4v2h-4l1-4 3-3c2 0 2 0 1 1zm-9 1v2h-3l-2 1v-3h5zm279 4-2-1v-2h2v3zm-233 2v8l-1 4h-1l-1 4-2 3-2 1 2-5c1-2 2-4 2-10-1-6-1-7 2-7 1 0 2 1 1 2zm-56 1 4 1c5 1 5 2 1 4-2 1-3 1-2-1l-1-1-1 2c-1 1-1 1-3-1l-2-3c1-2 2-2 4-1zm554 2-4 2c-2 0-2 0-1-1l4-2c1 0 2 0 1 1zm-88 3 3 3c1 2 1 2 3 2 3-1 6 2 4 4-1 1-1 1-1-1l-1-2v4l-1 2-1-2-1-1c-1 1-2 0-1-1l-1-3h-2l-1 1-3-1c-4-1-5-2-2-2v-1c-4-3-1-4 5-2zm12 0-1 1-1-1 1-1 1 1zm123 2c2 2 2 3 1 10l-1 9-2-5c0-2-3-5-3-3l-1-2v-6l1-3h5zm-601 1-1 2v-2l1-1v1zm570 1c0 3-1 3-3 2-2 0-2-1-1-2v-1h-1l3-1 2 2zm-619 1c-1 2-2 2-3 0l1-2 2 2zm45-1v3c0 2-3 3-3 1h-1c-1 2-2 1-2-1l-1-3c-1-1 0-1 2-1l5 1zm509 0-2 1-2-1 2-1c2 0 3 0 2 1zm-472 3-3 6c-4 4-6 8-6 12 0 3 0 4-2 3l-4-2c-1-1-1-1 1-1s3-3 3-7c0-3 3-5 5-6 1 0 2-1 2-3s2-5 4-5v3zm456-1-1 1v3l-1 3 1 7c1 5 1 6-1 6l-1-1-1-2v-11l1-3 1-4 2 1zm-442 10c0 11-2 12-2 2 0-7 1-10 3-10l-1 8zm267-5c1 3 0 6-3 5-4-1-5-5-1-6 3-1 3-1 4 1zm169 0h-1l1-2v2zm62-1h2l2 1 3 1v1c-2 0-2 0-1 1l1 6c1 5 1 6-1 5v-3c1-2-1-5-5-6-2-1-3-1-3-4 0-2 0-3 1-2h1zm-600 2 1 6-1 5-6 1h-7v-3c0-2 1-3 2-3h4c1 0 2-1 2-3l1-4c1-2 3-1 4 1zm40 1c2 1 2 3 0 4h-1l-1-1c-1 1-1 0-1-1 0-3 1-4 3-2zm487 4v2c-2 1-2 0-3-1 0-3 1-5 2-3l1 2zm-391 2c0 4-2 5-3 1v-2h2l-1-2v-1l2 4zm-104 4-1 2-1 1-1-2c0-2 2-3 3-1zm40 0 1 1-3-1h2zm-87 6c0 3 0 3-3 4-4 0-4 0-4 4-1 3-1 3-4 3s-4 0-4-3v-4h4c4 0 4 0 4-3 0-5 1-5 4-5s3 1 3 4zm681 1c-1 5-1 5-4 5h-3l1 7c0 8-2 13-5 14-3 2-4-1-4-10 0-7 0-8 2-10l3-1c2 0 2-1 1-5v-5h9v5zm-530-3-1 1h-1l1-1h1zm432 1-1 2-1-2 1-1 1 1zm64 6c-1 5-1 5-3 2-3-4-3-7 0-7 2-1 4 2 3 5zm-585-4-1 1-1-1 1-1 1 1zm569 5-1 5c-2 2-3 0-2-4 0-2 0-3 1-2s1 0 1-2l1-3v6zm-552-1c-2 1-3 1-1-2 1-2 1-2 2-1l-1 3zm3-2v1l-1-1v-1l1 1zm485 0c1 6 0 7-2 8-3 0-3 0-3-3l1-5c0-1 4-2 4 0zm-492 3-1 1c-1-1-3 1-3 4-1 1-1 2 1 2h1c0-1 1-1 2 1 3 3 2 7-1 11-3 2-7 3-8 1v-8c-1-5 0-7 1-7l1-1c0-2 3-4 3-3l2-1c0-3 2-3 2 0zm-6 0-1 1-1-1 2-1v1zm41 5v15h-1l-2-1h-3v6c1 6 0 10-1 11h-2l-2-1-3-1-1 7v6l-2 2 2 2v1c-2 1-5-1-5-4v-2l1-6c0-5 0-7 2-8 2-2 2-2 3-1 1 3 2 0 2-5 0-7 2-12 4-12l2-1 1-1c2 0 2-1 2-5v-6c1-2 2 1 3 4zm-83-1c-1 1-1 0-1-1s0-2 1-1v2zm7 2c-1 1-1 1 0 0l1-2-1 2zm6-1c0 2-3 2-3 0-1-1-1-1 1-1l2 1zm-57 5c0 2 0 3-2 3-3 0-3 0-3-3s0-3 3-3c2 0 2 1 2 3zm160-2-1 2-1-2 1-1 1 1zm513 16v19h-1l-3-3h-2c-1 2-1 2-1 0v-13c1-5 2-9 1-12s-1-4 1-5l2-2c2-3 3 0 3 16zm-601-9-1 6c-2 0-2-1-2-4 0-6 1-8 2-8l1 6zm-78 3c-1 3-1 3-4 4-4 0-4 0-4 4s0 4-4 4c-3-1-4-1-4-3 0-4 1-5 5-5 3 0 3 0 3-3 0-5 0-5 5-5 3 0 3 0 3 4zm158 3c0 5-1 7-3 4-1-3 0-9 2-9l1 5zm-66 5c0 4-1 6-2 5l-1 2-1 2-3 2c-3 3-4 1-4-6v-7h3l5-1c3-2 4-1 3 3zm611-2v34c-1 4-2 5-5 3-1-1-2-4-1-19l1-19c1-1 4-1 5 1zm-41 6c-2 1-2-1-1-3v-3l1 3v3zm-646 8v8h-4l-4-1v32l-1 32-11 1h-12v-4c0-4 0-4-4-4-3-1-4-1-4-4 0-4-1-5-3-4l-3-1c-2 0-2-1-2-7v-8h8v-16h8v-8h8v-8h8v-16h16v8zm-33-4c0 2-1 3-3 3-3 1-4 0-4-3 1-3 2-3 4-3 3 0 3 0 3 3zm166-1v8c-1 2-1 1-2-2l-1-4 1-3 2 1zm537 10-2-1v-1c1-1 3 1 2 2zm1 5 1 20-1 16-3 1h-4v8c-1 7-1 7-3 8-4 0-5-2-5-19l-1-17c-1-2 1-5 3-5 4 0 6-3 6-9s0-7 4-7c2 0 3 1 3 4zm-713-1 1 4c0 2-1 2-3 2-3 0-5-2-3-5 1-2 3-3 5-1zm103 1 1 1 2 1 2 2c4 0 4 2 1 3l-3 1h3c2-1 2-1 2 1-1 1 0 1 1 2 2 0 3 2 0 4h-1l-1-1-3 1c-1-1-1-1 1-3v-1l-3 1c-1 2-6 1-5-1l-1-4c-1-5 0-8 2-8l2 1zm64 1-1 1-2-1 1-1 2 1zm529 1h-1l1-2v2zm-559 14c0 6 0 7-2 8l-2 1h-1v-5l1-3c1 1 1 0 0 0l1-2c1 0 1-1-1-1-1-2-1-6 1-9 2-1 3 2 3 11zm-145-9 2 7c0 6-1 8-5 7-3 0-3-1-3-7l1-7c1-2 4-1 5 0zm175 7-1 2c-1 1-1 0-1-2l1-3 1 3zm54 11v1l-1-1v-1l1 1zm-62 2h-1l1-1 1-1-1 2zm-56 1c1 3 2 12 0 13-1 2-1 2-2 1-3-2-3-16-1-16l3 2zm24 10 1 2 1 3v17l-3 2c-2 0-3-4-3-16v-13l2-3 1 3 1 5zm34 1c0 5-2 7-4 5-2-1-2-2 0-9v-4l2 3 2 5zm24-5c0 2-3 3-4 1s0-3 2-3l2 2zm13 15-1 1-1-1 1-1 1 1zm473 0v29l-2-9-2-20h4zm-565 9v14c1 13 1 16-3 16l-3-2c-2-3-1-19 1-20 1-2 2-3 1-6v-4l1-2v-2c0-1 3 3 3 6zm591 16c0 10 0 10-2 11-4 0-5-2-5-10 1-9 2-11 5-11 2 0 2 1 2 10zm-14 23c-1 3-1 2-1-2 0-3 0-4 1-3v5zm-636 7 1 7c-1 5-1 5-3 5s-3-1-3-6c0-6 1-8 5-6zm634 5v8h-4c-4-1-4-2-3-4 1-5 1-5 3-5l3-1 1 2zm-17 17v6l-3-1c-2-1-3-2-3-4 0-3 0-3 3-3 2 0 3 1 3 2zm-570 11c0 2 0 2-2 1v-2c0-2 2-1 2 1zm-42 5 1 1c2 0 2 1 0 3l-2 2v-3l1-4v1zm596 1-2 1v-2l1-1 1 2zm42 3v4h-8v-8h8v4zm-627 22c1 1-2 5-3 4v-5c1-2 3-1 3 1z"/><path d="m368 21 3 1 3-1-4-1-2 1zm8 2-2 1-2 1h4l1-3-1 1zm-9 1-1 1c-2 0-2 2-1 3l2-1 3-2c1 0 1-1-1-1h-2zm-35 20c0 3 1 4 2 2v-2h-2zm174-2h1l1-1h-1l-1 1zm6 1 1 1 1-1-2-1v1zm26 2 1 1 1-1-2-1v1zm-8 6 3 3-1-2-2-1zm11 9 1 2c1 1 1 0 1-1l-1-2-1 1zm-199 42 1 1v-1l-1-2v2zm2 4h1l1-1-1-1-1 2zm8 3-1 4 1-2 1-3v-1l-1 2zm-36-31 1 1c2-1 2-3 1-3l-2 2zm-37 45v2c2 1 2 1 1-1 0-2-1-2-1-1zm-58 58-1 2 3-2h-2zm404-71c0 3 2 3 2 1l-1-2-1 1zm-57 21 1 1 1-1-2-1-1 1zm-148 52h1v-2l-1 2zm6 7-1 4c-1 3-1 3 2 5h4c2-3 0-9-3-9h-2zm9 11c-1 4-1 5 1 5 3-1 3-4 1-5h-2zm34 59-3 2-3 1c-2 2-1 6 1 9 3 2 3 2 6 1 2-1 2-1 2-6a288 288 0 0 1-2-9l-1 2zm134 22c-1 1 1 3 3 3l1-2c0-2-4-3-4-1zm-71 42c2 1 2 1 0 0-2 0-2 0-1 1s3 0 3-2l-2-1c-2 0-2 0 0 2zm11 9v2l1-2v-2l-1 2zm5 0v1c1 1 2 0 2-1s-2-2-2 0zm-16 7-2 2c-1 1 0 1 2 1s3 0 2-2v-2l-2 1zm-106 15 2 4c2 0 3-2 3-4-1-2-4-3-5 0zm-8 9v2c3 1 5-1 4-2 0-2-2-2-4 0zm49 61v7c-1 5 0 7 1 7 2 0 4-12 2-13l-3-1zm20 9h-3l-2 1 2 1 2 1c0 3 2 3 12 3h9l-1-3c-1-4-2-5-10-5-6 0-8 0-9 2zm35 0v1l1-1v-1l-1 1zm-14 1h2l1-1h-1l-2 1z"/><path d="M507 442c-2 3-2 3 0 5h13c4 0 6-1 6-2l-3-1h-3l-5-1-4-1-1-2c-2-2-2-2-4 2zm86 4v3c1 2 1 2 1-1s0-4-1-2zm4 3h1v-1l-1 1zm6 1c0 1 2 5 2 3l-1-3h-1zm-4 3v1l1-1v-1l-1 1zm-101 4v3c0 3 0 3-10 4-7 1-8 2-7 4h5c3 3-1 4-23 4-21 1-23 1-23 4s1 4 10 4l9 1h2c1 0 2 1 1 5 0 2 2 2 27 3 2 0 2 0 1 1l-15 1c-1 0-2 0-2 2 0 3 1 4 6 3h37l21 1v3c0 3 0 4 2 4 3 0 4-2 4-5s1-3 4-3h4l1-12c1-13 1-16 4-14 2 2 4 1 4-2-1-3-2-4-4-2h-2c0-2-3-2-34-2-19-1-18 0-17-4l-1-3h-4zm6 33h-6c-2-1-2-1 1-1l4 1z"/><path d="M512 457v3h12l11-1c0-1-1-2-14-3l-9 1zm74 1v5l-1 7c1 3 1 3 1-1l1-5 1-1 2-3h1l-1 1v2c1 1 2 0 1-1 1-3-1-5-2-5l-1 1v1l-1-1h-1zm8 2-1 2 3-2h-2zm18 2h1v-2l-1 2zm-22 9-1 5c0 3 2 2 2 0s0-2 1-1c1 2 1 2 3 0 3-2 3-3 0-3-3 1-3 1-3-2 0-4-2-4-2 1zm15 5-3 1h3l4-1v-1l-4 1zm-18 5c2 3 2 4 2 1l-1-2c-2-1-2-1-1 1zm-130 5 1 1 1-1v-1l-2 1zm-38 60c-2 0-3 1-3 2 1 2 4 2 9 1 3-1 4-2 2-3h-8zm12 8c-2 3-1 5 2 6 3 0 9-1 9-3 1-1 7-2 7 0h1l3-1 2-1-6-2-12-1c-4 0-5 0-6 2zm205 3c0 1 2 2 3 1l-1-1h-2zm-131 15c0 2 1 3 3 3 3 0 4-1 2-3l-3 1h-1v-3c-1-1-2 0-1 2zm-8 3h2c1-1 0-1-1-1s-2 0-1 1zm250 14h1v-2l-1 2zm-174 15c-1 2-1 3 1 3l1-2c0-2 0-2-2-1zm-43 5v7c1 8 4 6 6-4 0-2-1-3-2-3h-4zm8 3 4 2c1-1 0-3-2-3l-2 1zm-17 14v10c0 3 6 4 6 1l-1-2-1-2 1-2 1-3c0-2-1-3-3-3l-3 1zm35 3c-2 1-1 3 1 3 1-1 1-1 0 0-2 2-2 3 0 3 1 0 2-3 1-5 0-2-1-2-2-1zm-1 9 2 1 2-2-2-1c-1 0-2 0-2 2zm-11 1v6c0 4 1 5 3 6 1 0 2 1 1 3l1 2c1 0 2-2 3-8l-1-8c-2-2-6-2-7-1zm-143 3-1 7c0 6 0 6 3 7 4 2 5 1 5-7l-1-8c-2-2-6-1-6 1zm113-1-1 3c0 2 0 3 2 3 3 0 4-1 3-4 0-2-3-3-4-2zm-8 9c-1 2 0 4 3 4 2 0 1-4-1-4h-2zm-9 7c-2 2-1 5 2 6 3 2 5 0 4-4-1-3-4-4-6-2zm41 5c-2 1-2 2-2 6l1 7c1 1 0 4-2 7s0 6 5 8c4 1 4 1 4-14 0-9-1-12-2-14h-4zm12 0-1 2 2-1c1-2 1-2-1-1zm-148 3v5c1 1 2 1 4-1 1-1 3-2 4-1l-1-2c-4-2-5-2-7-1zm9 1 3 1v-1h-3zm384 6c2 0 1 3 0 3-2 0-2 1-1 3h3v-4c1-2 1-3-1-3-1 0-2 0-1 1zm-314 1c-2 3 0 7 4 7 2 0 4-3 2-6-1-2-4-3-6-1zm-8 8c-2 3 0 7 3 7s5-3 3-5c-1-3-4-4-6-2zm-62 2c1 0 1 1 0 0-1 0-3 11-2 16 0 3 1 5 3 5 3 0 4-3 4-11l-1-9c0-2-1-3-2-3-2 0-2 1-2 2zm54 6c-3 3 0 8 5 7 2-1 2-2 1-5s-4-4-6-2zm-8 9c-2 2 0 6 3 6s4-2 3-5-4-4-6-2zm72 7v71l3 1 2 2 2 4v11c0 10 1 15 5 17 2 1 2 2 3 10 1 10 2 12 6 10 2-2 3-2 2-13 0-10-1-10-3-12-4-2-5-4-5-17 0-15 0-15-5-15h-3v-34c0-29 0-34-2-36-2-3-4-3-5 1zm-80 1c-2 2 0 6 3 6s4-1 3-5c-1-3-4-4-6-2zm-31 8c-1 2 0 4 2 4 2-1 3-5 1-5l-3 1zm-149 12v1l1-1v-1l-1 1z"/><path d="m540 770 2 2 1-1c-1-2-3-2-3-1zm253 25c-1 1 0 2 1 2 1 1 1 3-1 18v7l4 1 4 1v18c-1 4 0 4 5 4s7 1 5 2v1l2-1-3-6h-2c-2-1-2-2-1-7l-1-7-1-6c0-3 0-4-2-4-3 0-5-4-5-11v-8c2-3 2-3 1-4-2-2-6-2-6 0zm15 48-1 1h-1l1-1h1zm15-11 1 9c0 3 3 4 5 3s3-17 1-18l-4-1c-3 0-3 0-3 7zm-269 0c-2 5-2 13 0 15l3 1c2-1 3-1 3-7 0-7-1-13-3-13l-3 4zm7 18v13l5 1 4-1-1 3v13h7v-6c0-7-2-13-3-11-1 3-5-3-5-7 0-5-1-7-5-7l-2 2zm249 1v3c-1 3 0 8 2 8h1c1 1 1 0 1-3s0-4-2-4v-2l-1-2h-1zm22 5v9c0 2 0 3 2 3 1-1 1 0 1 1 0 2 2 4 3 4l1-3-1-2h-1l1-1 1-5c-1-4-1-4-4-4-2-1-3-1-3-4v2zm-553 2-1 2c-2 0-2 1 0 2l3 2h3c3 1 4 0 4-3s0-4-2-4c-4-1-7-1-7 1zm530 8c-2 1-2 1-1 2 2 0 2 1 1 1-1 1 0 1 2 1 3 0 4-1 2-4 0-2-1-2-4 0zm-8 2 2 4-1 1c-1-1-1 1-1 4v5c1 4 1 4 4 4l3-1c1-1 1 0 1 1l1 2v10l-1 12c1 1 5 2 5 0h3c4 2 6 0 4-3-1-2-1-2-3 0h-2l-1-2v-10l-1-10v-2c0-2 0-2-2-1h-5l-3-5h3l-1-4-2-3 1 1 1 1c2 0 1-3-1-5-4-3-4-3-4 1zm-519 10c-2 2-2 6-2 30 0 27 0 33 3 34 1 0 6-2 5-3v-30l-1-31c-2-4-3-4-5 0zm297 2c-2 0-2 1-2 4 0 4 2 5 6 2l2-1 1-1c0-2-5-5-7-4zm9 13-1 1-2 3c-2 4-1 24 1 25l1 2 2-2c2-2 2-4 3-11 0-8 1-12 3-11l2 1 1 1 1-3c0-2-1-2-3-2-3 1-4 0-6-2-1-3-4-4-3-2zm15 12c-2 2 0 6 2 6 2-1 2-6 0-7l-2 1zm262 3 1 2 1-1-1-1h-1zm-47 6c-3 5-2 14 1 14 2 0 4-2 4-6 1-4 1-5-1-7-3-3-3-3-4-1zm-505 15v13c0 2 2 3 5 1 2 0 2-2 2-6 0-7-1-9-4-9l-3 1zm533 1-1 3c-5 0-7 16-3 19l4 2c1-1 2-2 2-13l-1-13-1 2zm-252 4c-1 1-2 5-2 12 0 10 0 12 2 15l3 4 1-1c-1-1-1-1 0 0 3 0 2-30 0-31s-2-1-4 1zm-289 12v13h6l1-8c0-6 0-6-4-7-2 0-3 0-3 2zm-13 7-1 1v3l2-2c1-3 1-3-1-2zm5 9-1 12v9l4 1h4v-10c0-11-1-14-4-14l-3 2zm557 0 1 1v-1l-1-1-1 1zm-251 11c-2 2-3 3-3 11s0 9 2 10c3 1 3 1 6-2s3-3 2-5l-2-7-1-7-2-3-2 3zm-162 14c1 3 4 5 5 3 2-3 1-5-2-5s-3 0-3 2zm-151 6-1 3v4c-2 3 0 8 2 8 4 0 5-1 5-5l-1-4-2-2c-2 0-2 0 0-1s3-2 0-3h-3zm103 2-1 3h5c2-1 2-3 1-3l-1-1c1-1 0-1-1-1l-3 2zm40 0v4l-1 6 3 3c5 0 6-1 4-6l-1-7c0-1-1-2-3-2s-2 0-2 2zm-8 16c0 2 4 4 5 2 2-3 1-4-2-4-2 0-3 1-3 2zm184-861h2c1-1 0-1-1-1s-2 0-1 1zm-347 32c-1 1 0 1 0 0 2 0 2-1 1-1l-2 1zm12 37 1 1h1l-1-2-1 1zm-8 8 1 1h1l-1-2-1 1zm-22 17v2h2l1-2h-3zm112-1c0 1 0 2 1 1v-2c-1-1-1 0-1 1zm-2 31 3 2-1-2h-2zm289-29c0 2 1 3 2 3l1-1-1-3c-2-1-2-1-2 1zm-347 25 1 1 1-1-1-2-1 1zm-27 3c-1 1-1 1 1 1 2 1 4 1 3-1h-4zm-13 14 5 1 5-1-5-1-5 1zm439 2 1 1v-1l-1-1-1 1zm0 5h1v-2l-1 2zm6 4c-1 1 0 2 2 2l1-2c0-1-2-2-3 0zm35 44h1v-2l-1 2zm-45-18 1 1 1-1-1-1-1 1zm-44 5h2l-2-1v1zm-351 13h1l1-1c-1-2-2-1-2 1zm-4 16 1 2 1-2-1-2-1 2zm394 3 1 1h1l-1-2-1 1zm54-10 1 1c1 1 1 0 0 0 0-2-1-2-1-1zm-456 20 1 3 1-2 1-2 1-1-2-1c-2 0-2 1-2 3zm360 32 1 1 1-1-2-1v1zm-376-22h1l1-1h-1l-1 1zm8 12 1 1 2-1-1-1-2 1zm16 27 1 4c2 0 1-7 0-8s-1 0-1 4zm410 22h1l5 1 2 1c1-1-2-3-4-3l-4 1zm21 11c-1 2 0 4 2 3 2 0 2-1 1-2-1-2-2-2-3-1zm-464 9c-2 1-1 2 1 2l2-1c-1-2-2-2-3-1zm323 43 1 1v-1l-1-1-1 1zm-10 15 1 2 1-1 2-1h1l-2-1c-2-1-3 0-3 1zm5 3-1 2 2-1c1-2 1-2-1-1zm-277 79 1 1v-1l-1-1v1zm552-2-1 2h1l1-2h-1zm-590 15v1l1-1v-2l-1 2z"/></svg>