<?xml version="1.0" standalone="no"?>
<!DOCTYPE svg PUBLIC "-//W3C//DTD SVG 20010904//EN"
 "http://www.w3.org/TR/2001/REC-SVG-20010904/DTD/svg10.dtd">
<svg version="1.0" xmlns="http://www.w3.org/2000/svg"
 width="700.000000pt" height="700.000000pt" viewBox="0 0 700.000000 700.000000"
 preserveAspectRatio="xMidYMid meet">
<metadata>
Created by potrace 1.14, written by Peter Selinger 2001-2017
</metadata>
<g transform="translate(0.000000,700.000000) scale(0.100000,-0.100000)"
fill="#000000" stroke="none">
<path d="M2704 6974 c-21 -15 -42 -32 -46 -38 -5 -7 -49 -11 -125 -11 -183 -1
-213 -20 -320 -206 -61 -107 -111 -229 -119 -293 -6 -41 -9 -45 -42 -51 -72
-13 -136 -57 -242 -164 -224 -225 -456 -588 -575 -896 -60 -157 -80 -192 -124
-214 -27 -14 -41 -17 -49 -9 -15 15 -32 1 -32 -27 0 -15 11 -33 29 -46 22 -16
27 -26 21 -38 -18 -37 -70 -229 -70 -260 0 -38 46 -262 61 -300 5 -13 14 -56
19 -95 5 -39 18 -92 30 -119 12 -26 18 -52 15 -57 -3 -5 -1 -29 5 -52 17 -62
81 -193 89 -180 4 6 13 -2 23 -19 10 -17 13 -27 8 -24 -18 11 -11 -7 41 -104
56 -105 71 -127 63 -90 -11 49 16 -5 37 -75 17 -54 20 -83 16 -139 -3 -38 -11
-75 -17 -81 -5 -5 -10 -22 -10 -36 0 -42 -82 -198 -151 -288 -107 -140 -143
-189 -172 -236 -16 -25 -45 -65 -64 -88 -103 -123 -162 -351 -115 -449 49
-103 211 -180 409 -196 67 -5 81 -9 78 -22 -4 -22 -40 -95 -80 -166 -43 -74
-75 -173 -75 -229 0 -71 37 -160 106 -254 36 -48 70 -87 77 -87 7 0 12 -13 13
-30 0 -16 4 -48 9 -70 7 -33 9 -36 16 -20 10 25 10 19 9 -347 0 -246 2 -288
15 -302 12 -12 15 -35 13 -113 -2 -78 3 -123 26 -223 42 -187 48 -203 76 -217
20 -10 498 -13 2322 -13 l2297 0 11 21 c18 33 -12 220 -42 256 -5 7 -7 20 -4
30 3 10 -1 31 -9 46 -8 16 -20 56 -26 90 -6 34 -17 80 -25 102 -7 22 -20 69
-29 105 -9 36 -25 92 -35 125 -10 33 -33 107 -50 165 -61 201 -71 230 -83 223
-6 -4 -8 0 -4 10 3 10 3 17 -2 17 -5 0 -14 21 -21 48 -7 26 -37 105 -67 177
-55 128 -58 152 -24 163 10 3 10 0 2 -16 -16 -31 -13 -34 9 -12 11 11 30 20
42 20 33 0 106 47 123 80 17 33 6 47 -24 30 -31 -16 -87 -12 -112 9 -20 16
-24 27 -22 69 2 52 25 121 45 133 10 6 13 17 17 64 1 6 6 3 12 -5 8 -12 9 -11
6 5 -2 11 6 38 17 60 16 32 20 62 21 155 2 126 10 176 29 187 38 23 138 236
122 261 -3 5 4 37 16 73 16 48 21 90 21 164 0 180 -57 312 -262 593 -195 268
-182 244 -180 331 1 42 -4 95 -11 118 -12 38 -11 49 8 100 41 116 56 196 55
298 0 84 -4 111 -27 170 -15 39 -39 102 -52 140 -23 65 -69 155 -79 155 -2 0
-2 -8 1 -17 2 -10 -2 -4 -10 12 -8 17 -17 42 -20 56 -3 15 -22 51 -42 80 -35
52 -35 55 -29 120 7 72 -6 127 -45 190 -118 189 -124 196 -339 409 -222 219
-253 258 -294 371 -89 239 -139 325 -212 366 -22 12 -87 35 -145 52 -129 37
-521 191 -514 202 8 13 -35 31 -57 24 -17 -6 -38 10 -107 82 -69 70 -104 96
-167 128 -44 22 -91 48 -104 57 -13 10 -45 24 -70 32 -25 8 -78 28 -118 45
l-72 31 -239 0 -239 0 -39 -26z m86 -37 c0 -2 -15 -16 -32 -33 l-33 -29 29 33
c28 30 36 37 36 29z m473 -54 c-7 -2 -19 -2 -25 0 -7 3 -2 5 12 5 14 0 19 -2
13 -5z m50 -10 c-7 -2 -19 -2 -25 0 -7 3 -2 5 12 5 14 0 19 -2 13 -5z m-607
-57 c-11 -30 -22 -50 -24 -46 -4 10 34 100 41 100 2 0 -5 -24 -17 -54z m-29
-88 c-3 -8 -6 -5 -6 6 -1 11 2 17 5 13 3 -3 4 -12 1 -19z m-80 -30 c-3 -8 -6
-5 -6 6 -1 11 2 17 5 13 3 -3 4 -12 1 -19z m1080 -28 c7 -8 13 -12 13 -7 0 10
53 -36 114 -98 50 -51 92 -127 81 -145 -13 -21 -35 -8 -86 50 -28 33 -55 57
-59 55 -4 -3 -11 6 -14 19 -3 13 -30 43 -58 67 -29 23 -57 46 -62 50 -4 4 -5
12 -1 19 9 15 57 9 72 -10z m-1090 -22 c-3 -7 -5 -2 -5 12 0 14 2 19 5 13 2
-7 2 -19 0 -25z m673 -13 c13 -14 21 -25 18 -25 -2 0 -15 11 -28 25 -13 14
-21 25 -18 25 2 0 15 -11 28 -25z m-683 -47 c-3 -7 -5 -2 -5 12 0 14 2 19 5
13 2 -7 2 -19 0 -25z m1313 22 c8 -5 11 -10 5 -10 -5 0 -17 5 -25 10 -8 5 -10
10 -5 10 6 0 17 -5 25 -10z m-1143 -57 c-3 -10 -5 -4 -5 12 0 17 2 24 5 18 2
-7 2 -21 0 -30z m16 -442 c9 -41 15 -76 13 -78 -2 -2 -15 41 -30 95 -27 104
-34 226 -18 342 5 44 8 20 13 -115 4 -96 13 -202 22 -244z m-196 337 c-2 -13
-4 -3 -4 22 0 25 2 35 4 23 2 -13 2 -33 0 -45z m1430 56 c-3 -3 -12 -4 -19 -1
-8 3 -5 6 6 6 11 1 17 -2 13 -5z m-1846 -135 c-11 -24 -20 -41 -20 -37 -1 12
31 89 35 85 3 -2 -4 -24 -15 -48z m426 -36 c-3 -10 -5 -2 -5 17 0 19 2 27 5
18 2 -10 2 -26 0 -35z m261 -22 c9 -6 12 -11 5 -11 -15 0 -43 28 -43 43 0 7 5
4 11 -5 5 -10 17 -22 27 -27z m-717 -18 c-12 -20 -14 -14 -5 12 4 9 9 14 11
11 3 -2 0 -13 -6 -23z m1959 -169 c17 -42 42 -114 55 -158 13 -45 24 -74 25
-66 1 8 12 -37 25 -100 23 -110 25 -190 4 -190 -5 0 -9 4 -9 9 0 5 -9 11 -20
14 -16 4 -20 14 -20 43 0 21 5 52 11 69 17 46 -20 208 -87 380 -70 178 -70
179 -40 123 14 -25 39 -81 56 -124z m-1493 134 c-3 -8 -6 -5 -6 6 -1 11 2 17
5 13 3 -3 4 -12 1 -19z m1293 -23 c0 -5 -5 -3 -10 5 -5 8 -10 20 -10 25 0 6 5
3 10 -5 5 -8 10 -19 10 -25z m134 -116 c6 -29 4 -28 -12 13 -27 66 -37 116
-13 62 10 -22 21 -56 25 -75z m-1227 -6 c-3 -10 -5 -2 -5 17 0 19 2 27 5 18 2
-10 2 -26 0 -35z m1769 -45 l29 -33 -32 29 c-31 28 -38 36 -30 36 2 0 16 -15
33 -32z m94 -93 c19 -19 32 -35 29 -35 -3 0 -20 16 -39 35 -19 19 -32 35 -29
35 3 0 20 -16 39 -35z m-2636 -29 c-3 -15 -8 -25 -11 -23 -2 3 -1 17 3 31 3
15 8 25 11 23 2 -3 1 -17 -3 -31z m805 -3 c0 -25 -1 -25 -8 -8 -5 11 -7 23 -4
28 8 14 13 7 12 -20z m539 -24 c32 -12 45 -11 36 3 -5 8 -2 9 12 4 10 -4 33
-9 51 -12 17 -2 43 -15 57 -29 26 -26 82 -36 73 -12 -4 11 15 13 66 8 4 -1 7
-10 7 -22 0 -16 6 -20 28 -18 15 1 46 1 70 1 39 -2 42 -4 32 -22 -9 -17 -6
-20 28 -29 21 -6 53 -14 71 -17 20 -4 28 -10 20 -14 -16 -11 17 -27 70 -36 33
-5 45 -13 57 -37 l16 -29 -35 26 c-19 15 -48 31 -64 35 -30 9 -29 7 29 -78 33
-47 74 -113 93 -146 39 -70 94 -267 77 -273 -7 -2 -62 -28 -122 -58 -118 -58
-232 -104 -258 -104 -8 0 -24 7 -34 17 -17 15 -18 14 -18 -19 0 -42 13 -55 59
-60 l34 -3 -27 -32 c-17 -21 -37 -33 -52 -33 -32 0 -60 -30 -73 -77 -14 -48
-14 -96 -1 -88 6 3 10 1 10 -4 0 -22 18 -10 25 17 3 15 18 42 31 60 14 17 22
37 18 44 -5 7 -2 9 9 5 22 -8 157 38 137 46 -8 4 -4 5 10 2 14 -2 41 -5 60 -5
33 -1 32 -2 -20 -19 -77 -25 -113 -45 -143 -81 -35 -41 -67 -154 -35 -122 19
19 63 14 89 -11 25 -24 53 -39 158 -81 35 -14 85 -38 110 -54 85 -51 87 -52
102 -37 8 7 25 16 39 19 25 6 25 6 3 -5 -13 -7 -23 -18 -23 -25 0 -7 -4 -14
-9 -16 -5 -1 -3 -11 4 -22 13 -18 15 -17 35 17 12 19 27 38 35 41 17 6 21 -9
5 -19 -18 -11 -11 -27 10 -22 17 4 20 0 20 -34 0 -35 -3 -39 -25 -39 -14 0
-25 -4 -25 -10 0 -5 4 -10 10 -10 11 0 30 -64 30 -105 1 -29 1 -29 16 -10 18
22 17 20 -13 -46 -17 -37 -31 -51 -69 -69 l-48 -23 40 -14 c21 -8 46 -21 54
-30 14 -15 13 -16 -2 -4 -14 10 -24 8 -62 -14 -25 -15 -49 -31 -52 -37 -4 -6
13 -27 36 -47 l43 -37 -12 -52 c-20 -93 -101 -233 -184 -321 -29 -29 -117
-106 -197 -171 -159 -128 -245 -214 -234 -232 4 -7 3 -8 -4 -4 -7 4 -12 3 -12
-3 0 -15 -86 -72 -142 -93 -45 -17 -54 -17 -111 -4 -34 8 -105 38 -157 66 -52
28 -120 62 -150 76 -170 77 -314 167 -468 293 -52 42 -107 86 -124 98 -28 20
-71 82 -46 67 7 -5 9 29 6 114 -3 103 -2 122 11 128 9 3 47 17 85 30 67 23
156 69 156 81 0 3 -19 3 -42 -1 l-43 -7 31 20 c33 20 78 71 108 122 l19 33
-46 -28 c-26 -15 -66 -33 -88 -41 -41 -15 -42 -14 -75 15 -19 16 -52 40 -74
52 -22 13 -40 26 -40 29 0 3 24 11 54 18 36 8 65 23 88 44 19 18 45 42 58 54
14 12 30 28 35 35 18 22 37 76 31 86 -3 5 -28 12 -54 14 -126 12 -264 139
-261 240 1 31 2 30 11 -11 l10 -43 29 28 c33 31 37 58 12 73 -10 6 -13 10 -8
10 6 0 26 -13 45 -29 39 -34 64 -38 79 -12 6 9 11 12 11 5 0 -13 14 -11 93 9
26 6 42 15 36 19 -6 4 31 10 82 13 177 12 209 17 209 32 0 8 -11 14 -27 15
-17 1 -21 3 -11 6 19 5 16 41 -8 101 -8 19 -9 32 -3 32 6 0 7 5 4 10 -4 6 -10
8 -14 6 -4 -3 -13 -1 -21 5 -12 7 -11 9 5 9 12 0 46 -26 80 -61 33 -33 73 -70
89 -82 28 -20 29 -20 24 -1 -3 10 -9 28 -14 39 -7 20 -7 20 14 1 31 -27 38
-14 9 20 l-24 28 24 34 c18 27 20 38 12 48 -14 17 -51 18 -68 2 -12 -11 -13
-10 -7 6 5 14 -3 27 -31 51 -21 18 -48 51 -61 73 l-23 41 43 -24 c24 -13 93
-38 153 -56 89 -26 115 -38 136 -62 l25 -30 53 29 c52 28 70 48 57 62 -4 3
-16 1 -26 -6 -30 -19 -48 -14 -64 16 -8 15 -28 40 -45 56 -23 22 -28 32 -19
39 10 6 10 10 1 13 -38 16 -109 73 -140 113 -19 25 -39 45 -45 43 -5 -1 -7 2
-4 7 3 5 -23 59 -59 119 l-66 109 36 91 c36 90 89 160 124 164 9 1 23 2 32 3
9 0 34 8 55 17 21 9 50 20 64 26 25 10 53 7 98 -9z m-151 5 c-3 -3 -12 -4 -19
-1 -8 3 -5 6 6 6 11 1 17 -2 13 -5z m-1210 -36 c-3 -8 -6 -5 -6 6 -1 11 2 17
5 13 3 -3 4 -12 1 -19z m847 -18 c8 0 12 -9 9 -23 -8 -39 54 -179 138 -314 44
-70 66 -112 49 -93 -28 32 -31 33 -24 10 3 -14 12 -32 18 -40 6 -8 -24 17 -66
55 -95 86 -154 162 -213 279 l-46 90 23 12 c33 19 35 18 42 -27 4 -23 9 -40
11 -38 2 3 1 27 -3 54 -7 47 -6 51 18 61 21 9 25 8 28 -8 2 -10 9 -18 16 -18z
m-170 -179 c8 -31 12 -59 9 -63 -2 -5 -17 -8 -34 -8 -23 0 -29 -4 -30 -22 -1
-37 -38 114 -39 155 0 30 7 45 30 69 17 16 31 39 31 51 1 12 5 -11 10 -52 5
-41 15 -100 23 -130z m1040 183 c6 -15 4 -15 -11 -3 -10 7 -20 15 -22 16 -2 2
3 3 11 3 9 0 19 -7 22 -16z m1026 -48 c0 -3 -4 -8 -10 -11 -5 -3 -10 -1 -10 4
0 6 5 11 10 11 6 0 10 -2 10 -4z m-2391 -159 c-3 -27 -11 -52 -18 -56 -8 -5
-15 -40 -18 -92 -2 -46 -8 -95 -13 -109 -5 -14 -11 -38 -15 -55 l-7 -30 -10
25 c-9 23 -6 101 8 194 l6 39 -78 -60 c-44 -33 -90 -66 -103 -73 l-23 -12 23
42 c13 23 60 75 105 116 54 48 91 92 110 129 l29 55 5 -32 c3 -18 3 -55 -1
-81z m-447 8 c-23 -47 -43 -85 -46 -85 -9 0 22 79 51 130 43 77 40 49 -5 -45z
m852 -9 c-10 -26 -22 -18 -33 22 -17 60 -13 69 14 30 14 -20 22 -44 19 -52z
m49 -51 c21 -31 30 -52 22 -48 -33 12 24 -99 73 -144 20 -18 33 -33 29 -33 -4
0 -25 16 -46 36 -28 25 -48 56 -67 107 -15 40 -30 74 -34 77 -8 6 -23 60 -17
60 2 0 20 -25 40 -55z m1362 -153 c8 -56 14 -117 14 -135 l-2 -32 -4 30 c-2
17 -13 84 -24 150 -11 66 -22 138 -24 160 -8 72 23 -59 40 -173z m202 109 c39
-28 85 -70 102 -95 27 -38 29 -48 21 -77 -6 -19 -10 -47 -10 -63 0 -27 -7 -20
-72 65 -40 52 -97 119 -126 149 -59 61 -76 85 -67 100 8 13 61 -15 152 -79z
m-1620 -13 c-3 -8 -6 -5 -6 6 -1 11 2 17 5 13 3 -3 4 -12 1 -19z m1460 -85
c-2 -21 -4 -4 -4 37 0 41 2 58 4 38 2 -21 2 -55 0 -75z m863 40 c36 -37 48
-52 27 -35 -36 31 -103 102 -95 102 2 0 33 -30 68 -67z m-2407 -20 c11 -13 16
-23 11 -23 -15 0 -30 14 -43 37 -14 28 -14 55 1 28 6 -11 20 -30 31 -42z
m1924 -88 c-5 -77 -37 -188 -58 -201 -5 -3 -19 6 -30 20 -16 21 -26 25 -47 20
-24 -6 -22 -3 14 25 50 38 74 84 81 159 13 132 49 111 40 -23z m-2024 78 c-7
-2 -19 -2 -25 0 -7 3 -2 5 12 5 14 0 19 -2 13 -5z m-60 -9 c12 -4 12 -10 3
-29 -10 -23 -11 -23 -36 -5 -14 9 -32 20 -40 23 -8 3 5 4 30 2 35 -4 39 -3 20
4 -16 6 -19 9 -8 10 9 1 23 -2 31 -5z m30 -58 c-14 -19 -19 -21 -21 -9 -2 9 2
19 10 24 24 16 29 9 11 -15z m330 -16 c42 -18 74 -36 72 -41 -3 -4 3 -12 12
-18 10 -6 14 -11 9 -11 -11 0 -129 63 -137 73 -3 5 -8 8 -10 7 -2 -1 -15 3
-29 8 -14 5 -34 12 -45 15 -11 4 -4 5 15 3 20 -2 70 -19 113 -36z m2389 -58
c20 -25 34 -51 30 -56 -3 -6 -11 2 -17 17 -6 15 -36 53 -66 84 -35 37 -42 47
-19 29 19 -16 52 -49 72 -74z m-2642 85 c0 -2 -10 -12 -22 -23 l-23 -19 19 23
c18 21 26 27 26 19z m128 -185 c26 -29 64 -73 85 -97 l37 -43 -37 19 c-24 12
-57 19 -93 18 -37 0 -49 -3 -35 -8 13 -5 1 -8 -37 -8 -58 0 -58 0 -59 31 -2
51 1 87 13 173 l11 82 34 -57 c19 -31 55 -80 81 -110z m262 119 c0 -4 -8 -7
-18 -7 -12 0 -18 8 -18 23 0 21 1 21 18 6 10 -9 18 -19 18 -22z m1257 17 c-3
-8 -6 -5 -6 6 -1 11 2 17 5 13 3 -3 4 -12 1 -19z m-1706 -84 c0 -31 -3 -59 -6
-62 -3 -3 -5 25 -5 63 0 38 3 66 6 62 3 -3 6 -31 5 -63z m1745 -28 c60 9 58
-11 -3 -25 -67 -14 -78 -2 -61 70 l13 54 3 -53 3 -53 45 7z m160 44 c0 -11 -6
-20 -12 -20 -7 0 -10 8 -7 20 3 11 8 20 12 20 4 0 7 -9 7 -20z m-249 -22 c-3
-7 -5 -2 -5 12 0 14 2 19 5 13 2 -7 2 -19 0 -25z m-2607 19 c0 -2 -10 -12 -22
-23 l-23 -19 19 23 c18 21 26 27 26 19z m-70 -61 c0 -2 -8 -10 -17 -17 -16
-13 -17 -12 -4 4 13 16 21 21 21 13z m710 -44 c0 -5 -7 -17 -15 -28 -14 -18
-14 -17 -4 9 12 27 19 34 19 19z m259 -87 c5 3 11 -2 15 -10 16 -44 -41 9 -68
62 -27 54 -18 51 14 -5 17 -29 35 -50 39 -47z m1881 85 c-1 -22 -17 -26 -38
-9 l-23 18 30 -2 c17 -1 31 -4 31 -7z m-2910 -4 c0 -2 -8 -10 -17 -17 -16 -13
-17 -12 -4 4 13 16 21 21 21 13z m173 -8 c-4 -7 -24 -38 -45 -68 -72 -102 -73
-112 -73 -590 l1 -425 -14 175 c-16 215 -10 593 12 695 20 98 30 120 79 176
42 48 55 60 40 37z m739 -13 c-2 -14 -6 -25 -7 -25 -1 0 -5 11 -7 25 -3 16 -1
25 7 25 8 0 10 -9 7 -25z m796 -15 c-2 -7 -10 1 -17 16 -12 27 -11 28 4 12 10
-9 16 -21 13 -28z m1048 21 c-3 -5 8 -14 24 -21 17 -7 41 -26 55 -42 47 -55
74 -208 40 -222 -8 -3 -15 -2 -15 3 0 22 -73 43 -141 39 -50 -2 -69 0 -69 10
0 6 -5 12 -11 12 -6 0 -9 -7 -5 -15 4 -12 -4 -15 -42 -14 -45 1 -45 1 -14 9
47 11 49 18 8 26 -46 8 -66 28 -66 62 1 22 12 34 62 65 47 29 58 41 47 48 -10
6 -3 9 24 9 l37 0 0 -47 c0 -55 13 -45 30 22 16 60 18 65 30 65 6 0 9 -4 6 -9z
m-2997 -40 c-6 -18 -13 -30 -15 -28 -2 2 1 18 7 36 6 18 13 30 15 28 2 -2 -1
-18 -7 -36z m1315 7 c4 -17 2 -28 -4 -28 -5 0 -10 14 -10 32 0 36 4 35 14 -4z
m34 -9 c12 -19 11 -19 -8 -9 -11 6 -20 15 -20 20 0 17 15 11 28 -11z m1499 -5
c-3 -3 -12 -4 -19 -1 -8 3 -5 6 6 6 11 1 17 -2 13 -5z m-1582 -65 c-8 -12
-105 -40 -116 -33 -22 13 -5 23 44 26 34 2 51 7 50 15 -2 7 4 10 12 7 8 -4 12
-10 10 -15z m1410 -9 c3 -5 -1 -10 -10 -10 -9 0 -13 5 -10 10 3 6 8 10 10 10
2 0 7 -4 10 -10z m502 -57 c-2 -16 -4 -5 -4 22 0 28 2 40 4 28 2 -13 2 -35 0
-50z m734 -15 c43 -51 47 -57 18 -33 -34 29 -104 116 -82 102 6 -4 35 -35 64
-69z m256 40 c-3 -7 -5 -2 -5 12 0 14 2 19 5 13 2 -7 2 -19 0 -25z m-3100 -7
c0 -11 -5 -17 -9 -15 -11 7 -10 34 1 34 6 0 9 -9 8 -19z m323 -27 c0 -3 -11
-22 -25 -42 -14 -20 -25 -32 -25 -26 0 6 9 23 20 37 15 18 17 27 8 30 -8 3 -6
6 5 6 9 1 17 -1 17 -5z m480 -10 c0 -2 -7 -4 -15 -4 -8 0 -15 4 -15 10 0 5 7
7 15 4 8 -4 15 -8 15 -10z m-1982 -19 c-3 -3 -9 2 -12 12 -6 14 -5 15 5 6 7
-7 10 -15 7 -18z m1079 -60 c0 -10 -6 -14 -14 -10 -8 3 -18 5 -21 6 -4 0 2 4
13 9 11 5 20 9 21 9 0 1 1 -6 1 -14z m246 0 c-3 -9 -8 -14 -10 -11 -3 3 -2 9
2 15 9 16 15 13 8 -4z m121 -10 c-4 -8 -3 -23 1 -32 9 -22 14 -40 17 -73 3
-21 -2 -25 -28 -28 -22 -2 -33 2 -38 14 -5 13 -4 14 7 6 8 -7 17 -9 20 -6 10
11 -3 24 -22 24 -10 0 -25 10 -33 22 -14 20 -13 24 11 43 22 19 61 44 68 45 1
0 0 -7 -3 -15z m212 5 c15 -15 4 -69 -16 -80 -32 -17 -49 -3 -40 32 15 50 36
68 56 48z m114 -17 c0 -10 6 -14 19 -10 10 2 25 1 32 -3 15 -10 -48 -52 -71
-47 -14 3 -17 41 -5 75 6 17 25 6 25 -15z m1440 -4 c0 -5 -7 -9 -15 -9 -9 0
-12 6 -9 15 6 15 24 11 24 -6z m-2070 1 c18 -12 2 -12 -25 0 -13 6 -15 9 -5 9
8 0 22 -4 30 -9z m385 -48 c-2 -2 -12 1 -22 7 -10 6 -12 11 -5 11 6 0 12 10
13 23 1 18 2 17 10 -7 4 -17 7 -32 4 -34z m1710 48 c3 -5 1 -10 -4 -10 -6 0
-11 5 -11 10 0 6 2 10 4 10 3 0 8 -4 11 -10z m-1655 -35 c0 -8 -4 -15 -10 -15
-5 0 -7 7 -4 15 4 8 8 15 10 15 2 0 4 -7 4 -15z m1370 5 c0 -5 -2 -10 -4 -10
-3 0 -8 5 -11 10 -3 6 -1 10 4 10 6 0 11 -4 11 -10z m121 -57 c13 -16 12 -17
-3 -4 -17 13 -22 21 -14 21 2 0 10 -8 17 -17z m-1771 -17 c0 -2 -7 -7 -16 -10
-8 -3 -12 -2 -9 4 6 10 25 14 25 6z m1826 -72 c13 -29 21 -59 18 -66 -3 -7
-21 -25 -41 -41 -33 -24 -39 -26 -52 -13 -8 9 -18 35 -22 58 l-8 43 2 -42 c4
-67 -16 -33 -21 37 -3 38 -1 60 6 60 6 0 13 -6 15 -12 3 -7 6 -3 6 9 1 16 8
23 29 25 38 5 41 2 68 -58z m-2529 24 c-3 -7 -5 -2 -5 12 0 14 2 19 5 13 2 -7
2 -19 0 -25z m2201 4 c3 -19 -1 -22 -28 -22 -31 0 -32 5 -7 38 14 18 31 10 35
-16z m165 -20 c19 -17 22 -44 7 -73 -9 -16 -14 -17 -32 -8 -16 8 -19 8 -13 -1
6 -9 3 -9 -13 -1 -22 12 -23 34 -4 53 7 7 12 23 12 36 0 24 9 23 43 -6z m641
-283 c58 -172 59 -203 2 -44 -77 211 -106 287 -121 309 -8 11 -15 27 -14 36 2
29 88 -166 133 -301z m631 291 c10 -11 16 -20 13 -20 -3 0 -13 9 -23 20 -10
11 -16 20 -13 20 3 0 13 -9 23 -20z m-1384 -5 c-42 -19 -47 -19 -31 0 7 8 24
15 39 15 25 -1 25 -1 -8 -15z m-2314 -47 c-3 -7 -5 -2 -5 12 0 14 2 19 5 13 2
-7 2 -19 0 -25z m2851 2 c-7 -10 -14 -18 -15 -16 -6 6 9 36 18 36 5 0 4 -9 -3
-20z m883 3 c13 -16 12 -17 -3 -4 -10 7 -18 15 -18 17 0 8 8 3 21 -13z m-164
-60 c-3 -10 -5 -4 -5 12 0 17 2 24 5 18 2 -7 2 -21 0 -30z m357 -93 c3 -14
-10 7 -28 45 -19 39 -35 75 -35 80 0 15 55 -96 63 -125z m-1264 40 c-8 -5 -19
-10 -25 -10 -5 0 -3 5 5 10 8 5 20 10 25 10 6 0 3 -5 -5 -10z m1000 -20 c6
-11 8 -20 6 -20 -3 0 -10 9 -16 20 -6 11 -8 20 -6 20 3 0 10 -9 16 -20z
m-2805 -34 c18 -13 18 -14 -8 -9 -15 3 -30 9 -33 14 -8 14 20 10 41 -5z m2835
-16 c6 -11 8 -20 6 -20 -3 0 -10 9 -16 20 -6 11 -8 20 -6 20 3 0 10 -9 16 -20z
m-3793 -42 c-3 -8 -6 -5 -6 6 -1 11 2 17 5 13 3 -3 4 -12 1 -19z m210 -56
c-14 -17 -16 -12 -10 23 5 25 7 27 13 10 4 -11 3 -26 -3 -33z m3643 15 c0 -18
-2 -19 -10 -7 -13 20 -13 43 0 35 6 -3 10 -16 10 -28z m-3853 -44 c-3 -10 -5
-2 -5 17 0 19 2 27 5 18 2 -10 2 -26 0 -35z m2790 12 c-9 -19 -13 -21 -15 -9
-3 13 12 33 25 34 0 0 -4 -11 -10 -25z m-2542 -34 c3 -6 -3 -9 -14 -8 -11 0
-17 5 -15 9 7 11 22 10 29 -1z m2562 -13 c-3 -8 -6 -5 -6 6 -1 11 2 17 5 13 3
-3 4 -12 1 -19z m-2772 -126 c-6 -6 -35 100 -34 122 0 12 9 -10 19 -49 10 -38
16 -72 15 -73z m756 91 c13 -16 12 -17 -3 -4 -10 7 -18 15 -18 17 0 8 8 3 21
-13z m46 11 c-3 -3 -12 -4 -19 -1 -8 3 -5 6 6 6 11 1 17 -2 13 -5z m-662 -122
c3 -13 9 -21 14 -18 4 3 8 -11 9 -30 1 -19 5 -40 9 -47 4 -7 0 -7 -10 2 -23
19 -37 76 -35 146 1 51 2 53 5 15 2 -25 6 -55 8 -68z m22 66 c-3 -8 -6 -5 -6
6 -1 11 2 17 5 13 3 -3 4 -12 1 -19z m3020 -10 c-3 -8 -6 -5 -6 6 -1 11 2 17
5 13 3 -3 4 -12 1 -19z m-2854 -41 c19 -13 26 -24 22 -36 -16 -39 -14 -49 8
-45 12 3 3 -4 -20 -15 -74 -35 -69 -86 15 -143 26 -17 52 -37 57 -44 17 -21
51 -26 65 -9 7 8 21 13 30 10 10 -3 24 0 32 7 33 30 56 38 69 22 8 -10 15 -11
19 -4 5 9 22 -34 47 -125 6 -20 5 -20 -16 -1 -13 12 -21 14 -21 7 0 -8 -7 -10
-20 -6 -18 6 -19 4 -11 -18 9 -23 7 -25 -42 -36 -63 -15 -84 -9 -174 55 -36
24 -81 53 -101 63 -20 11 -47 32 -59 49 -22 30 -22 30 -2 35 11 3 36 -1 56 -9
19 -9 37 -13 39 -11 2 2 -25 25 -61 51 -36 26 -65 49 -65 51 0 12 31 74 42 82
7 6 35 17 61 25 l48 14 -55 18 c-31 9 -56 22 -56 27 0 16 62 7 93 -14z m2864
1 c-3 -8 -6 -5 -6 6 -1 11 2 17 5 13 3 -3 4 -12 1 -19z m-2329 -34 c15 -7 20
-14 12 -14 -8 0 -26 10 -40 21 -14 11 -19 18 -12 14 6 -3 24 -13 40 -21z
m-438 -34 c-6 -4 -11 -11 -10 -16 0 -5 -7 -10 -17 -12 -14 -2 -15 -1 -4 6 8 6
11 17 6 32 -6 20 -5 21 15 10 16 -9 19 -14 10 -20z m539 -16 c9 -8 -75 -2 -94
6 -13 6 -1 7 35 3 30 -3 57 -7 59 -9z m-799 -91 c17 -24 29 -43 27 -43 -5 0
-80 98 -91 120 -10 19 24 -21 64 -77z m-223 -50 c-2 -21 -4 -4 -4 37 0 41 2
58 4 38 2 -21 2 -55 0 -75z m515 67 c-12 -11 -17 -15 -12 -8 6 7 10 21 10 32
0 16 3 17 12 8 10 -10 7 -17 -10 -32z m88 -87 c0 -4 -6 1 -13 10 -7 10 -30 24
-51 31 -35 12 -37 14 -18 20 12 4 22 12 22 18 0 6 14 -8 30 -30 17 -23 30 -45
30 -49z m170 12 c13 -14 21 -25 18 -25 -2 0 -15 11 -28 25 -13 14 -21 25 -18
25 2 0 15 -11 28 -25z m3241 -2 c15 -40 6 -44 -18 -7 -17 27 -19 34 -7 34 8 0
19 -12 25 -27z m-3794 -25 c-3 -8 -6 -5 -6 6 -1 11 2 17 5 13 3 -3 4 -12 1
-19z m2560 -30 c-3 -8 -6 -5 -6 6 -1 11 2 17 5 13 3 -3 4 -12 1 -19z m3 -22
c0 -3 -4 -8 -10 -11 -5 -3 -10 -1 -10 4 0 6 5 11 10 11 6 0 10 -2 10 -4z
m-2563 -48 c-3 -8 -6 -5 -6 6 -1 11 2 17 5 13 3 -3 4 -12 1 -19z m40 -60 c-2
-13 -4 -5 -4 17 -1 22 1 32 4 23 2 -10 2 -28 0 -40z m-50 -10 c-3 -7 -5 -2 -5
12 0 14 2 19 5 13 2 -7 2 -19 0 -25z m163 -19 c15 -28 5 -23 -15 7 -9 15 -12
23 -6 20 6 -4 16 -16 21 -27z m375 -7 c-3 -3 -11 0 -18 7 -9 10 -8 11 6 5 10
-3 15 -9 12 -12z m1957 -4 c-4 -16 -2 -19 9 -13 8 5 11 4 6 -1 -5 -5 -12 -9
-15 -9 -4 0 -13 -4 -20 -9 -10 -6 -9 0 2 23 19 36 26 40 18 9z m-42 -27 c-12
-24 -13 -34 -1 -26 5 3 -5 -26 -22 -64 -17 -38 -33 -68 -35 -66 -2 2 8 29 22
61 32 70 32 77 1 39 -21 -24 -19 -20 6 23 31 50 51 73 29 33z m-2463 -78 c-2
-16 -4 -3 -4 27 0 30 2 43 4 28 2 -16 2 -40 0 -55z m50 -10 c-3 -10 -5 -2 -5
17 0 19 2 27 5 18 2 -10 2 -26 0 -35z m2353 -7 c0 -2 -8 -10 -17 -17 -16 -13
-17 -12 -4 4 13 16 21 21 21 13z m-2413 -78 c-2 -13 -4 -5 -4 17 -1 22 1 32 4
23 2 -10 2 -28 0 -40z m366 22 c-3 -12 -8 -19 -11 -16 -5 6 5 36 12 36 2 0 2
-9 -1 -20z m-316 -32 c-3 -7 -5 -2 -5 12 0 14 2 19 5 13 2 -7 2 -19 0 -25z
m110 10 c-3 -8 -6 -5 -6 6 -1 11 2 17 5 13 3 -3 4 -12 1 -19z m3912 -108 c62
-80 137 -193 165 -247 25 -50 12 -39 -19 15 -15 26 -69 103 -118 172 -50 69
-102 141 -115 160 l-24 35 27 -30 c14 -16 53 -64 84 -105z m-3442 88 c-3 -7
-5 -2 -5 12 0 14 2 19 5 13 2 -7 2 -19 0 -25z m-640 -50 c-3 -7 -5 -2 -5 12 0
14 2 19 5 13 2 -7 2 -19 0 -25z m650 0 c-3 -7 -5 -2 -5 12 0 14 2 19 5 13 2
-7 2 -19 0 -25z m-600 0 c-3 -8 -6 -5 -6 6 -1 11 2 17 5 13 3 -3 4 -12 1 -19z
m180 -50 c-3 -8 -6 -5 -6 6 -1 11 2 17 5 13 3 -3 4 -12 1 -19z m700 16 c-3 -3
-12 -4 -19 -1 -8 3 -5 6 6 6 11 1 17 -2 13 -5z m-940 -26 c-3 -8 -6 -5 -6 6
-1 11 2 17 5 13 3 -3 4 -12 1 -19z m50 0 c-3 -8 -6 -5 -6 6 -1 11 2 17 5 13 3
-3 4 -12 1 -19z m2650 -75 c-2 -21 -4 -6 -4 32 0 39 2 55 4 38 2 -18 2 -50 0
-70z m-2040 45 c-3 -7 -5 -2 -5 12 0 14 2 19 5 13 2 -7 2 -19 0 -25z m137 -90
c3 -12 -5 0 -18 27 -13 28 -26 61 -30 75 -3 14 5 2 18 -27 13 -28 27 -62 30
-75z m-197 73 c0 -11 -5 -18 -9 -15 -4 3 -5 11 -1 19 7 21 12 19 10 -4z m-295
-31 c-2 -16 -6 -30 -8 -30 -2 0 -4 14 -4 30 0 17 4 30 8 30 5 0 7 -13 4 -30z
m-65 -52 c-3 -8 -6 -5 -6 6 -1 11 2 17 5 13 3 -3 4 -12 1 -19z m721 -30 c29
-18 170 -114 312 -213 143 -99 297 -206 342 -237 92 -63 180 -110 213 -112 20
-1 20 -3 -10 -41 -48 -61 -104 -125 -164 -183 -29 -29 -51 -55 -48 -58 3 -3
65 53 138 125 73 72 137 131 142 131 5 0 7 -10 4 -22 -6 -26 -45 -126 -58
-148 -63 -105 -112 -267 -91 -301 7 -10 9 -25 6 -33 -3 -8 -2 -22 3 -31 8 -14
12 -14 36 6 45 34 75 108 97 236 28 156 43 199 99 285 44 68 110 142 118 134
2 -2 -10 -41 -26 -87 -76 -217 -110 -402 -111 -619 -1 -134 -14 -209 -61 -356
-34 -105 -42 -144 -43 -209 -1 -73 2 -87 36 -158 21 -43 56 -105 79 -138 49
-70 181 -189 210 -189 10 0 19 -4 19 -9 0 -5 12 -23 26 -40 24 -29 25 -31 5
-31 -11 0 -22 -4 -26 -9 -8 -13 53 -72 125 -121 77 -53 89 -65 170 -188 82
-123 123 -217 148 -340 10 -51 21 -90 24 -86 7 6 28 -60 28 -87 0 -8 5 -20 10
-25 6 -6 14 -25 19 -42 l10 -32 -932 0 c-746 0 -928 2 -915 13 8 6 20 27 26
44 6 18 24 52 40 75 47 68 95 172 151 323 32 87 74 178 112 240 33 55 62 110
65 123 8 28 -17 113 -31 109 -11 -4 -30 12 -36 32 -3 8 -15 -23 -27 -69 -15
-57 -32 -93 -55 -120 -19 -23 -41 -67 -55 -113 -30 -97 -74 -167 -104 -167
-33 -1 -188 73 -183 86 2 8 -14 11 -50 10 -36 -1 -59 4 -71 15 -21 18 -44 15
-44 -7 0 -9 -8 -12 -28 -8 -21 4 -41 -3 -82 -31 -30 -21 -66 -41 -79 -46 -60
-23 -110 66 -166 292 -37 155 -58 195 -69 137 -11 -58 -9 -192 4 -223 6 -16
35 -77 64 -135 30 -58 59 -122 65 -142 15 -46 8 -62 -64 -140 -67 -72 -225
-269 -225 -280 0 -4 54 -8 121 -8 83 0 118 3 113 11 -13 22 130 146 226 195
42 21 72 28 123 30 38 2 74 8 81 13 16 13 105 31 109 22 12 -26 4 -79 -22
-141 -17 -40 -34 -89 -37 -109 l-6 -36 -399 -3 c-283 -2 -399 1 -399 8 0 6 -4
9 -9 6 -14 -9 -33 21 -27 41 3 10 -3 68 -14 128 -57 316 -74 450 -86 695 -11
228 22 606 67 777 12 43 22 85 22 93 1 8 4 17 7 20 3 3 21 29 39 57 27 43 40
55 74 64 23 6 68 24 101 41 33 17 120 54 193 84 74 30 153 64 175 75 58 29
143 36 205 15 32 -10 89 -48 160 -105 127 -100 144 -110 158 -86 6 9 16 24 23
33 11 15 12 12 10 -18 -3 -33 -1 -35 29 -38 18 -2 42 2 53 8 54 29 105 231 83
327 -21 94 -70 212 -125 304 -101 171 -165 317 -173 397 -3 26 -12 101 -20
167 -17 136 -18 175 -7 175 4 0 31 -15 60 -32z m-243 -28 c-4 -13 -10 -18 -14
-12 -3 5 -14 11 -24 13 -16 4 -17 5 -1 27 15 21 18 22 31 9 10 -10 13 -23 8
-37z m105 5 c0 -5 -5 -3 -10 5 -5 8 -10 20 -10 25 0 6 5 3 10 -5 5 -8 10 -19
10 -25z m-220 11 c0 -2 -7 -6 -15 -10 -8 -3 -15 -1 -15 4 0 6 7 10 15 10 8 0
15 -2 15 -4z m1497 -83 c-2 -16 -4 -5 -4 22 0 28 2 40 4 28 2 -13 2 -35 0 -50z
m1009 28 c45 -17 94 -42 110 -56 15 -13 30 -23 33 -22 7 2 81 -43 81 -49 0 -3
-6 -2 -12 2 -7 4 34 -39 92 -97 59 -58 132 -143 165 -191 32 -49 63 -88 67
-88 5 0 6 -4 3 -10 -3 -5 -1 -10 5 -10 6 0 8 -4 5 -10 -3 -5 -1 -10 5 -10 6 0
8 -4 5 -10 -3 -5 -2 -10 3 -10 5 0 12 -13 15 -29 3 -16 13 -35 21 -44 8 -8 12
-17 9 -21 -4 -3 -2 -6 4 -6 13 0 24 -24 29 -60 8 -65 20 -109 85 -306 37 -116
71 -237 75 -268 4 -31 11 -56 15 -56 5 0 8 -20 7 -44 -2 -24 -5 -42 -8 -39 -3
3 -9 -42 -15 -99 -9 -93 -12 -103 -31 -106 -18 -3 -22 5 -32 72 -6 42 -23 111
-38 154 -28 87 -114 264 -129 269 -6 2 -9 -58 -7 -169 l4 -173 83 -255 c107
-329 137 -413 152 -417 17 -6 34 66 28 118 -7 56 9 406 19 416 11 11 33 -23
52 -81 9 -28 30 -79 45 -113 16 -34 40 -104 54 -155 41 -143 78 -254 82 -242
2 6 -7 46 -21 89 -34 107 -15 81 28 -39 37 -100 43 -122 27 -97 -15 23 -21 -4
-6 -32 7 -14 10 -29 7 -33 -4 -5 0 -3 9 4 14 11 18 6 29 -32 7 -25 10 -56 6
-70 -3 -13 3 -52 14 -88 26 -85 110 -501 110 -546 0 -21 3 -48 7 -61 6 -23 7
-23 14 -5 7 16 8 15 8 -7 1 -35 -12 -39 -127 -37 -53 0 -82 3 -64 5 42 6 42
26 -2 157 -19 56 -57 180 -85 276 -78 273 -168 499 -179 447 -2 -9 -7 -17 -12
-17 -11 0 9 -66 39 -131 11 -25 25 -79 31 -118 6 -40 26 -136 46 -214 20 -78
42 -179 49 -224 8 -50 23 -98 39 -126 14 -24 26 -46 26 -48 0 -4 -562 -5 -993
-2 -195 2 -276 6 -272 14 4 6 -2 21 -14 33 -36 39 -141 245 -191 377 -27 69
-74 177 -105 239 -68 137 -111 245 -128 324 -7 37 -21 69 -35 83 -26 26 -64
107 -82 174 -7 24 -32 94 -56 156 -100 254 -123 403 -125 834 l-1 305 57 175
c77 235 95 272 169 328 33 25 79 63 103 84 28 23 54 37 71 37 15 0 52 9 82 20
49 18 73 20 210 16 145 -4 161 -6 236 -35z m-1039 -43 c-2 -13 -4 -3 -4 22 0
25 2 35 4 23 2 -13 2 -33 0 -45z m-1587 42 c0 -5 -5 -10 -11 -10 -5 0 -7 5 -4
10 3 6 8 10 11 10 2 0 4 -4 4 -10z m384 -80 c5 -20 3 -19 -8 5 -7 17 -16 41
-20 55 -5 20 -3 19 8 -5 7 -16 16 -41 20 -55z m-809 -2 c-20 -61 -72 -178 -78
-178 -3 0 16 53 42 119 47 122 67 154 36 59z m2310 -8 c-38 -38 -74 -70 -79
-70 -9 0 134 139 144 140 2 0 -27 -31 -65 -70z m-2675 56 c0 -2 -8 -10 -17
-17 -16 -13 -17 -12 -4 4 13 16 21 21 21 13z m-52 -77 c-26 -47 -61 -82 -38
-39 17 33 50 80 56 80 3 0 -5 -18 -18 -41z m2439 4 c-3 -10 -5 -4 -5 12 0 17
2 24 5 18 2 -7 2 -21 0 -30z m-2478 -10 c-35 -60 -158 -231 -170 -239 -16 -9
-9 0 96 149 91 128 115 158 74 90z m2231 11 c0 -9 -68 -34 -92 -33 -13 0 -2 6
25 13 26 7 50 16 54 19 8 8 13 9 13 1z m-1663 -36 c-3 -8 -6 -5 -6 6 -1 11 2
17 5 13 3 -3 4 -12 1 -19z m490 -30 c-3 -8 -6 -5 -6 6 -1 11 2 17 5 13 3 -3 4
-12 1 -19z m1533 -31 c0 -2 -12 -14 -27 -28 l-26 -24 19 27 c16 23 34 36 34
25z m-2500 -48 c-19 -16 -62 -48 -95 -71 -54 -37 -57 -38 -30 -10 34 36 135
110 150 111 6 0 -6 -13 -25 -30z m977 -81 c-2 -18 -4 -4 -4 32 0 36 2 50 4 33
2 -18 2 -48 0 -65z m100 -120 c-2 -35 -3 -9 -3 57 0 66 1 94 3 63 2 -32 2 -86
0 -120z m-27 -63 c-9 -39 -10 -38 -5 15 3 30 6 91 7 135 l2 80 3 -95 c2 -52
-1 -113 -7 -135z m1317 167 c-14 -17 -22 0 -12 26 5 14 7 14 15 2 5 -9 4 -20
-3 -28z m-1444 -32 c-3 -11 -7 -20 -9 -20 -2 0 -4 9 -4 20 0 11 4 20 9 20 5 0
7 -9 4 -20z m4 -112 c-3 -7 -5 -2 -5 12 0 14 2 19 5 13 2 -7 2 -19 0 -25z m10
-105 c-3 -10 -5 -2 -5 17 0 19 2 27 5 18 2 -10 2 -26 0 -35z m3681 11 c-14
-33 -79 -134 -85 -134 -3 0 10 26 28 58 18 31 40 69 48 84 20 34 26 29 9 -8z
m-3709 -64 c1 -13 0 -13 -9 0 -5 8 -9 26 -9 40 l1 25 8 -25 c4 -14 8 -32 9
-40z m417 -8 c-2 -4 -26 -23 -53 -41 -55 -39 -47 -27 12 18 42 32 49 36 41 23z
m-409 -59 c-3 -10 -5 -4 -5 12 0 17 2 24 5 18 2 -7 2 -21 0 -30z m30 -65 c-2
-18 -4 -6 -4 27 0 33 2 48 4 33 2 -15 2 -42 0 -60z m-961 33 c-9 -16 -17 -40
-17 -53 -1 -19 -2 -20 -6 -4 -5 18 26 100 34 92 3 -2 -3 -18 -11 -35z m921
-53 c-3 -8 -6 -5 -6 6 -1 11 2 17 5 13 3 -3 4 -12 1 -19z m-115 -169 c-34 -31
-89 -66 -148 -94 -51 -25 -126 -65 -166 -90 -39 -24 -74 -43 -76 -40 -2 2 9
21 24 41 16 21 22 34 14 30 -8 -4 -4 2 10 14 48 40 172 109 188 103 8 -4 20 1
27 10 13 18 138 75 165 76 8 0 -9 -22 -38 -50z m84 -48 c-17 -19 -108 -63
-156 -76 -18 -5 134 79 169 93 2 1 -4 -6 -13 -17z m3371 -253 c-3 -8 -6 -5 -6
6 -1 11 2 17 5 13 3 -3 4 -12 1 -19z m0 -55 c-3 -10 -5 -4 -5 12 0 17 2 24 5
18 2 -7 2 -21 0 -30z m-4040 -123 c-7 -17 -13 -26 -15 -21 -3 10 15 51 22 51
3 0 -1 -14 -7 -30z m-97 -165 c-7 -9 -15 -13 -19 -10 -3 3 1 10 9 15 21 14 24
12 10 -5z m2 -47 c-6 -6 -12 -6 -17 3 -5 8 -4 10 3 5 7 -4 12 0 13 11 0 12 2
13 6 5 3 -8 1 -18 -5 -24z m-127 -60 c16 -24 22 -38 14 -31 -15 12 -53 73 -46
73 2 0 17 -19 32 -42z m82 -735 c-1 -49 -3 -9 -3 87 0 96 2 136 3 88 2 -49 2
-127 0 -175z m50 130 c-2 -16 -4 -3 -4 27 0 30 2 43 4 28 2 -16 2 -40 0 -55z
m16 -148 c4 -65 3 -77 -3 -45 -9 46 -13 147 -6 139 2 -2 6 -44 9 -94z m4467
30 c0 -8 -4 -15 -10 -15 -5 0 -10 7 -10 15 0 8 5 15 10 15 6 0 10 -7 10 -15z
m-4453 -167 c-3 -7 -5 -2 -5 12 0 14 2 19 5 13 2 -7 2 -19 0 -25z m-60 -180
c-3 -8 -6 -5 -6 6 -1 11 2 17 5 13 3 -3 4 -12 1 -19z m10 -50 c-3 -7 -5 -2 -5
12 0 14 2 19 5 13 2 -7 2 -19 0 -25z m107 -133 c5 -22 4 -26 -4 -15 -5 8 -10
24 -10 34 0 26 6 18 14 -19z"/>
<path d="M3314 5254 c-18 -14 -18 -14 6 -3 31 14 36 19 24 19 -6 0 -19 -7 -30
-16z"/>
<path d="M3191 4978 c-14 -39 -12 -41 18 -19 16 12 22 24 18 35 -10 25 -24 19
-36 -16z"/>
<path d="M3621 4801 c-21 -50 -17 -139 8 -169 45 -57 53 -73 66 -136 12 -55
12 -70 0 -93 -18 -37 -31 -94 -16 -73 5 8 13 11 17 7 11 -11 64 26 86 61 34
55 20 93 -74 188 -88 90 -102 126 -78 199 15 44 7 57 -9 16z"/>
<path d="M3747 4813 c-4 -3 -7 -11 -7 -17 0 -6 5 -5 12 2 6 6 9 14 7 17 -3 3
-9 2 -12 -2z"/>
<path d="M2670 4655 c-26 -53 -25 -80 2 -107 13 -13 22 -29 20 -35 -4 -18 13
-16 56 6 34 18 87 68 123 116 13 17 11 17 -18 -3 -46 -32 -58 -28 -33 14 23
36 23 56 0 29 -17 -20 -30 -19 -30 3 0 9 -13 -6 -29 -33 -27 -47 -61 -87 -61
-71 0 4 6 17 14 29 8 12 17 36 21 53 5 28 3 32 -19 36 -22 4 -28 -1 -46 -37z"/>
<path d="M4144 4468 c-9 -18 -24 -44 -33 -58 -15 -24 -15 -24 2 -11 21 17 61
90 53 98 -2 3 -12 -10 -22 -29z"/>
<path d="M4169 4180 c13 -11 27 -20 32 -20 18 0 8 10 -23 25 l-33 16 24 -21z"/>
<path d="M2943 3994 c-22 -10 -15 -52 13 -71 58 -41 84 -65 78 -75 -8 -12 86
-100 141 -133 125 -73 293 -86 408 -33 90 42 200 159 245 261 2 4 -9 7 -25 7
-19 0 -38 9 -53 25 -28 30 -37 31 -62 8 -17 -15 -29 -16 -131 -4 -184 21 -223
23 -207 13 8 -5 78 -17 155 -27 77 -10 144 -22 149 -26 6 -5 18 -9 28 -9 10 0
18 -4 18 -10 0 -5 -6 -7 -13 -4 -8 3 -17 -12 -25 -42 -8 -30 -26 -61 -51 -86
l-39 -38 -83 0 c-84 0 -344 53 -335 69 3 3 -7 6 -22 5 -36 -1 -85 18 -69 28 8
5 5 14 -12 32 -16 17 -21 31 -16 45 7 23 46 38 66 25 8 -4 9 -3 5 4 -4 7 -2
12 3 12 6 0 11 -8 11 -17 0 -15 2 -16 9 -3 6 8 7 18 5 22 -3 5 6 6 20 2 37 -9
176 5 176 18 0 9 -155 6 -250 -4 -8 -1 -40 1 -70 5 -30 3 -61 3 -67 1z m792
-54 c-3 -5 -12 -7 -20 -3 -21 7 -19 13 6 13 11 0 18 -4 14 -10z m-35 -69 c0
-6 -11 -23 -25 -38 l-26 -28 23 37 c25 40 28 43 28 29z m-43 -87 c-3 -3 -12
-4 -19 -1 -8 3 -5 6 6 6 11 1 17 -2 13 -5z"/>
<path d="M2790 5765 c0 -5 5 -17 10 -25 5 -8 10 -10 10 -5 0 6 -5 17 -10 25
-5 8 -10 11 -10 5z"/>
<path d="M3317 2562 c-30 -81 -34 -122 -13 -122 30 0 60 103 48 160 l-8 35
-27 -73z"/>
<path d="M3169 2292 c-79 -63 -121 -111 -145 -167 -18 -44 -18 -53 3 -51 17 1
68 58 109 121 14 21 15 27 4 21 -17 -11 29 42 80 90 61 57 26 47 -51 -14z"/>
<path d="M1640 58 c0 -9 5 -20 10 -23 13 -8 13 5 0 25 -8 13 -10 13 -10 -2z"/>
<path d="M1463 505 c0 -27 2 -38 4 -22 2 15 2 37 0 50 -2 12 -4 0 -4 -28z"/>
</g>
</svg>
