<svg xmlns="http://www.w3.org/2000/svg" fill="none" viewBox="0 0 3161 5375"><g filter="url(#a)" opacity=".3"><path fill="#FF1CF7" d="M2188 2081c-7 24-34 35-38 61-1 6-8 19-34 16-24 14-100-13-119 10-13 18-28 40-23 71 4 25 18 48 32 69 19 30 43 57 68 79 83 70 178 88 260 89a394 394 0 0 0 337-193 525 525 0 0 0 64-288c-4-48-25-94-54-135-39-58-91-90-142-94-31-2-66 12-67 54-1 32 14 69 23 102 7 22 16 53 1 65-25 19-60 25-92 29-40 5-83-6-125-9-24-1-43 11-61 25a99 99 0 0 0-30 49Z" opacity=".3"/></g><g filter="url(#b)" opacity=".3"><path fill="#00F0FF" fill-opacity=".6" d="M2496 3936c19 14 19 41 40 54 6 3 14 13 3 34 4 26-46 82-31 106 10 18 24 38 53 44 22 5 47 1 70-4 32-7 64-18 91-32 88-48 136-123 164-194a365 365 0 0 0-51-356c-24-28-52-55-83-79-40-31-87-58-144-74-43-12-89-10-135 1-62 14-108 48-128 91-13 26-13 61 23 76 27 12 64 12 96 14 21 2 51 5 56 22 8 28 1 60-6 89-9 36-33 69-50 105-9 20-6 41 1 60 5 16 16 31 31 43Z" opacity=".5"/></g><g filter="url(#c)" opacity=".4"><path fill="#FF1CF7" fill-opacity=".8" d="M2642 3909c-6 22 9 44 0 66-3 6-3 20 19 29 12 23 85 38 89 66 2 20 3 45-16 67-15 17-37 30-58 39-30 14-62 24-93 29-99 16-183-16-248-55a365 365 0 0 1-173-315c1-36 8-74 18-113 13-48 34-98 70-145 27-36 65-62 108-81 58-27 116-27 157-6 26 14 47 41 28 75-15 27-44 48-68 70-16 14-38 35-32 51 11 27 36 49 59 67 29 23 68 35 103 54 19 10 29 29 36 48 5 16 6 35 1 54Z" opacity=".5"/></g><g filter="url(#d)" opacity=".3"><path fill="#0070F3" d="M1450 4620c7 24 34 35 38 61 1 6 8 19 33 16 25 14 101-13 119 10 14 18 29 40 24 71-5 25-18 48-32 69-20 30-43 57-69 79-83 70-177 88-260 89a394 394 0 0 1-337-193c-19-35-34-73-46-114-16-52-24-111-18-174 5-48 26-94 54-135 39-58 92-90 142-94 32-2 66 12 68 54 1 32-14 69-24 102-6 22-15 53 0 65 25 19 60 25 91 29 40 5 83-6 125-9 24-1 44 11 61 25 14 12 25 28 31 49Z" opacity=".5"/></g><g filter="url(#e)" opacity=".3"><path fill="#FF1CF7" d="M727 3241c25 0 43 23 69 21 7-1 21 3 24 28 20 20 13 100 41 112 20 9 45 18 74 5 23-11 42-30 59-48 23-27 44-57 58-87 47-98 40-195 19-274a394 394 0 0 0-272-277c-39-9-80-14-123-15-54-2-112 5-172 27-45 17-84 49-117 87-45 53-63 112-54 162 6 30 28 61 69 51 32-7 63-31 93-49 19-12 47-28 62-17 26 19 40 51 52 81 15 37 16 82 24 123 5 24 21 40 39 52 15 11 34 17 55 18Z" opacity=".5"/></g><g filter="url(#f)" opacity=".3"><path fill="#0070F3" d="M641 2917c21-13 26-42 49-53 7-2 17-13 8-36 7-28-39-94-21-118 14-17 31-37 63-40 24-3 51 4 74 12 34 12 67 28 94 47 89 62 131 149 152 228a394 394 0 0 1-99 376c-29 27-62 52-99 74-46 28-100 51-163 61-48 8-97 0-145-17-65-23-110-66-127-114-10-30-6-67 35-79 31-9 70-4 104-3 23 0 56 1 63-16 13-30 9-65 5-96-5-40-27-79-40-119-8-23-1-45 8-65 8-16 21-31 39-42Z" opacity=".5"/></g><g filter="url(#g)" opacity=".5"><path fill="#7928CA" d="M609 807c25-6 40-37 66-40 7-1 21-9 21-38 17-28-4-118 22-138 20-15 44-31 75-23 25 6 48 23 67 40 29 25 54 54 74 85 63 100 72 211 63 307a514 514 0 0 1-232 381c-37 20-78 36-121 48-55 15-115 22-179 11-49-9-94-35-134-71-54-48-82-111-80-170 1-36 18-76 62-76 33 1 68 20 101 33 22 9 54 21 67 5 23-28 32-69 39-105 10-46 3-97 5-146 0-28 15-50 31-69 13-16 31-28 53-34Z" opacity=".5"/></g><g filter="url(#h)" opacity=".3"><path fill="#0070F3" d="M640 570c7-23-9-48 2-71 3-6 4-21-19-33-12-25-91-44-93-74-2-22-2-49 20-72 16-18 41-30 64-40a383 383 0 0 1 366 43 394 394 0 0 1 175 347 524 524 0 0 1-106 275c-31 37-73 64-120 83-64 26-126 24-170-1-27-16-49-46-27-82 17-28 50-50 76-72 18-15 43-36 37-54-10-30-36-54-60-75-31-26-73-41-109-62-21-12-31-33-37-54-5-17-6-37 1-58Z" opacity=".5"/></g><defs><filter id="a" width="1264.6" height="1209.5" x="1723" y="1516" color-interpolation-filters="sRGB" filterUnits="userSpaceOnUse"><feFlood flood-opacity="0" result="BackgroundImageFix"/><feBlend in="SourceGraphic" in2="BackgroundImageFix" result="shape"/><feGaussianBlur result="effect1_foregroundBlur_11_256" stdDeviation="125"/></filter><filter id="b" width="1073.7" height="1249.2" x="2087" y="3177" color-interpolation-filters="sRGB" filterUnits="userSpaceOnUse"><feFlood flood-opacity="0" result="BackgroundImageFix"/><feBlend in="SourceGraphic" in2="BackgroundImageFix" result="shape"/><feGaussianBlur result="effect1_foregroundBlur_11_256" stdDeviation="125"/></filter><filter id="c" width="1089.5" height="1234.3" x="1911" y="3225" color-interpolation-filters="sRGB" filterUnits="userSpaceOnUse"><feFlood flood-opacity="0" result="BackgroundImageFix"/><feBlend in="SourceGraphic" in2="BackgroundImageFix" result="shape"/><feGaussianBlur result="effect1_foregroundBlur_11_256" stdDeviation="125"/></filter><filter id="d" width="1264.6" height="1209.5" x="650" y="4055" color-interpolation-filters="sRGB" filterUnits="userSpaceOnUse"><feFlood flood-opacity="0" result="BackgroundImageFix"/><feBlend in="SourceGraphic" in2="BackgroundImageFix" result="shape"/><feGaussianBlur result="effect1_foregroundBlur_11_256" stdDeviation="125"/></filter><filter id="e" width="1256.5" height="1207.9" x="81" y="2455" color-interpolation-filters="sRGB" filterUnits="userSpaceOnUse"><feFlood flood-opacity="0" result="BackgroundImageFix"/><feBlend in="SourceGraphic" in2="BackgroundImageFix" result="shape"/><feGaussianBlur result="effect1_foregroundBlur_11_256" stdDeviation="125"/></filter><filter id="f" width="1150.5" height="1301.8" x="173" y="2419" color-interpolation-filters="sRGB" filterUnits="userSpaceOnUse"><feFlood flood-opacity="0" result="BackgroundImageFix"/><feBlend in="SourceGraphic" in2="BackgroundImageFix" result="shape"/><feGaussianBlur result="effect1_foregroundBlur_11_256" stdDeviation="125"/></filter><filter id="g" width="1249.2" height="1379" x="1" y="316" color-interpolation-filters="sRGB" filterUnits="userSpaceOnUse"><feFlood flood-opacity="0" result="BackgroundImageFix"/><feBlend in="SourceGraphic" in2="BackgroundImageFix" result="shape"/><feGaussianBlur result="effect1_foregroundBlur_11_256" stdDeviation="125"/></filter><filter id="h" width="1126.6" height="1296.2" x="279" y="0" color-interpolation-filters="sRGB" filterUnits="userSpaceOnUse"><feFlood flood-opacity="0" result="BackgroundImageFix"/><feBlend in="SourceGraphic" in2="BackgroundImageFix" result="shape"/><feGaussianBlur result="effect1_foregroundBlur_11_256" stdDeviation="125"/></filter></defs></svg>
