<svg xmlns="http://www.w3.org/2000/svg" viewBox="0 0 240 189.4">
  <defs>
    <style>.a{fill:#fff}</style>
  </defs>
  <path
    d="m96.5 12.9-.7-1a22 22 0 0 0 .3-4 10.3 10.3 0 0 0-1.7-.9A8.4 8.4 0 0 0 92 3.5a10.8 10.8 0 0 0-14.1 0A8.3 8.3 0 0 0 75 8.9a1.3 1.3 0 0 1-.2.1 4 4 0 0 0-1.8 1.4 37.1 37.1 0 0 0-.3 4l.2 2.5.3.4v.1a3.5 3.5 0 0 0 2 1.1 2.7 2.7 0 0 0 .4 1.3l-3.7 1-2.7.8a16 16 0 0 0-2.5 1l-2.3 5.8-1 3.5-.4 1.3-1 6.9a13 13 0 0 0 .4 3.4 12.3 12.3 0 0 0 3.7 6 1.3 1.3 0 0 0 .3.2 2.8 2.8 0 0 0 1 .5 2 2 0 0 0 .5.1 20.6 20.6 0 0 0 7.5-.4 17.6 17.6 0 0 0 3-1.1q2.5-1 5-2.3a51 51 0 0 0 4.7-2.6l4.7-2.6 4.6-2.4 5-2.2a3.2 3.2 0 0 1 .3-.1 1.8 1.8 0 0 0 1.1-.6.5.5 0 0 0 .3 0q0 .1 0 0a.2.2 0 0 0 .1 0v-.6a.5.5 0 0 1-.1-.1q-.8-2.3-1.8-4.4a46.3 46.3 0 0 0-2.6-5.1l-1-.7-1-.6-3-1.8a.4.4 0 0 0-.1 0 6.9 6.9 0 0 0-1.6-.8l-.3-.1h-.2L93 20l2.5-1a16.2 16.2 0 0 0 .4-1.6 34.9 34.9 0 0 0 .6-4.5m.4 14a36.4 36.4 0 0 0 .1 4.9l.7 3.5v.1l.2.2a.3.3 0 0 1 0 .2 10.9 10.9 0 0 1-3 1.7q-4.4 1.7-8.7 3.9a23.9 23.9 0 0 1-6.6 2.2 6.3 6.3 0 0 1-3.2-.1l-.5-.2q-.8-1.6-4-6.8l3 2a31.5 31.5 0 0 0 0-5.4l-.5-3.6a23.6 23.6 0 0 0-1.2-5L77 24l.3.5a13.8 13.8 0 0 0 1.4 1.4l1.3 1a13.9 13.9 0 0 0 3.1 1.7 12.2 12.2 0 0 0 5 1 7.1 7.1 0 0 0 4.6-1.7l1-2a13 13 0 0 1 3 1M94.4 8.7a3.3 3.3 0 0 1 .3.6 8.6 8.6 0 0 1-.4 3.9 1.4 1.4 0 0 1-.4.6 4.4 4.4 0 0 1-1.7 0v-.1l-.3-1-.3-.6a.8.8 0 0 0-.7-.6l-1.9-.2a1 1 0 0 0-1 .6l-.5.7-.4.4a2 2 0 0 1-1.3.4 13.4 13.4 0 0 1-4.4-.4q-.4-.1-.6-2.2a18.3 18.3 0 0 1 0-2.9l.4-.1v-.1a.6.6 0 0 0 .2 0 .9.9 0 0 0 .2-.1 33.8 33.8 0 0 1 12.8 1.1M85 15.3a6.5 6.5 0 0 0 .8 0l1.2-.2a3.8 3.8 0 0 0 1.2-.3l.3-.4.3-.4a3.1 3.1 0 0 0 .2-.4 1.6 1.6 0 0 0 .2-.3.5.5 0 0 0 .2 0 3.2 3.2 0 0 1 1.2 0 .4.4 0 0 1 0 .3l.2.4a3 3 0 0 1 .1.5l.2.4a1.2 1.2 0 0 1 0 .2v.1l.5.2h.5a1.2 1.2 0 0 0 .1.2 1 1 0 0 1 .3 0 .3.3 0 0 1 .1.4l-.1.8a4.8 4.8 0 0 1-.2.6.6.6 0 0 1 0 .2l-.5 1.1-.2.6a.7.7 0 0 1-.3.3 3.3 3.3 0 0 1-.8.5 5.5 5.5 0 0 1-1.3.3h-.3a2.4 2.4 0 0 1-.4 0 4 4 0 0 1-.6 0 1.9 1.9 0 0 1-.3 0l-1.1-.3-1-.5a3.1 3.1 0 0 1-.8-.7 8.7 8.7 0 0 1-.4-1l-.1-.5-.1-.6a.6.6 0 0 1-.1-.3.2.2 0 0 0 0-.2 2.5 2.5 0 0 1 0-.2l.1-.4q.1-.2.8-.3Z" />
  <path
    d="M85.7 15.3a6.5 6.5 0 0 1-.8 0h-.1q-.7.2-.8.4l-.1.4a2.5 2.5 0 0 0 0 .2.2.2 0 0 1 0 .1v.1a.6.6 0 0 0 0 .3l.2.6.1.4a8.7 8.7 0 0 0 .4 1 3.1 3.1 0 0 0 .8.8l1 .5 1 .3a1.9 1.9 0 0 0 .4 0 4 4 0 0 0 .6 0 2.4 2.4 0 0 0 .4 0h.3a5.5 5.5 0 0 0 1.3-.3 3.3 3.3 0 0 0 .8-.5.7.7 0 0 0 .3-.3l.2-.6.4-1a.6.6 0 0 0 .1-.3 4.8 4.8 0 0 0 .2-.6l.1-.8a.3.3 0 0 0-.1-.3 1 1 0 0 0-.3-.1 1.2 1.2 0 0 1-.1-.1l-.5-.1-.4-.2a1.2 1.2 0 0 0-.1-.3l-.2-.4a3 3 0 0 0 0-.5l-.3-.4a.4.4 0 0 0 0-.2 3.2 3.2 0 0 0-1.2-.2.5.5 0 0 1-.1 0 .4.4 0 0 1 0 .1 1.6 1.6 0 0 1-.3.3 3.1 3.1 0 0 1-.2.4l-.3.4q0 .2-.2.3a3.8 3.8 0 0 1-1.3.4l-1.2.2m9-6.1a3.3 3.3 0 0 0-.4-.6 33.8 33.8 0 0 0-12.8-1.1.9.9 0 0 1-.2 0 .6.6 0 0 1-.2.1l-.3.2a18.3 18.3 0 0 0-.1 3q.2 2 .6 2.1a13.4 13.4 0 0 0 4.4.4A2 2 0 0 0 87 13l.4-.4.5-.7a1 1 0 0 1 1-.6q1 0 1.9.2a.8.8 0 0 1 .7.6l.2.5v.1l.4 1a4.4 4.4 0 0 0 1.7.1 1.4 1.4 0 0 0 .4-.6 8.6 8.6 0 0 0 .4-4M97 31.9a36.4 36.4 0 0 1 0-4.9 13 13 0 0 0-3-1.2l-1 2.1a7.1 7.1 0 0 1-4.8 1.6 12.2 12.2 0 0 1-4.9-.9 13.9 13.9 0 0 1-3.1-1.7l-1.3-1a13.8 13.8 0 0 1-1.4-1.4l-.3-.5-4 .5a23.6 23.6 0 0 1 1.3 5L75 33a31.5 31.5 0 0 1 0 5.3l-3-2q3.2 5.3 4 6.9.3 0 .5.2a6.3 6.3 0 0 0 3.2.1 23.9 23.9 0 0 0 6.6-2.2q4.3-2.2 8.7-4a10.9 10.9 0 0 0 3-1.6.3.3 0 0 0 0-.2l-.3-.2.1-.1Z"
    class="a" />
  <path
    d="M234.8 6.1a19.1 19.1 0 0 0-23.3-3.7 1.2 1.2 0 0 0-.2 0 20.2 20.2 0 0 0-2.8 2 1.7 1.7 0 0 1-.4.3V5l-3.2 2.5a.2.2 0 0 0 0 .1l-11.1 8.9-3.3 2.6a.2.2 0 0 0-.1 0l-1 .8a15.8 15.8 0 0 0-2.9 3 12.1 12.1 0 0 0-1.4 2.4 9.3 9.3 0 0 0-.5 1.2 1.2 1.2 0 0 1 0 .2L158.4 45l-2.3-1.7a3.2 3.2 0 0 0-1-.4l-57.6-8.5a21.7 21.7 0 0 0-9.9 1.7l-2.4 1q-2.2 1.2-4.5 2.2l-3.8 2-12.3 7-6.4 4.1-3.4 2.4-8 6-3.7 2.8-2.8 2.1a2.7 2.7 0 0 0-1 1.7q-.7 6-1.2 12.2-.4 4.5-.6 9.2l-.3 9-.2 6.8q-10.8 9.6-19.1 18Q12.3 128 7.7 133a41.8 41.8 0 0 0-1 11.8l-2 2.8a.1.1 0 0 1-.1.1q-4.6 7-4.6 16.8a30.8 30.8 0 0 0 4.6 17q4.2 6.8 10 7.7l1.7.1h.1a.8.8 0 0 0 .3 0 .2.2 0 0 0 .1 0h174.7a.9.9 0 0 0 .6-.2 28.7 28.7 0 0 0 4.4-2.8 57.5 57.5 0 0 0 16.7-19.5 81.5 81.5 0 0 0 6.1-14.9 78.7 78.7 0 0 0 2.2-8.8 103 103 0 0 0 1.7-20.7v-4l7-5a2.4 2.4 0 0 0 1-1.8 1.9 1.9 0 0 0 0-.7 11.5 11.5 0 0 0-.8-2.3l-.7-1.7-.6-1.5-1.1-2.2-1.2-2q-.4-.8-1-1.5a35.4 35.4 0 0 0-4.3-5.7 26.3 26.3 0 0 0-2.6-2.3 23.2 23.2 0 0 0-7.7-4.2h-.3a133 133 0 0 0-16.4-2.5q-5.2-.5-11.1-.7l-.3-5a.5.5 0 0 0 0-.1 2.4 2.4 0 0 0-.2-.8l-.3-.4a3 3 0 0 0-.2-.4 2.4 2.4 0 0 0-1.7-.8l-5.8-.7-.4-3.2a46.1 46.1 0 0 0-1.4-6.3q-1.2-4-1.8-5.4l3.3-1.7 10.6-5.7 12.3-6.5a.2.2 0 0 0 .1 0 14.4 14.4 0 0 0 2.2.1 15.5 15.5 0 0 0 5.1-1 3.3 3.3 0 0 1 .5-.2v-.1l22-9.4h.1a18.8 18.8 0 0 0 6.5-4 19.4 19.4 0 0 0 2.8-3.2 18 18 0 0 0 3.2-9.9A18.5 18.5 0 0 0 237 9a.3.3 0 0 0-.2-.2 19.3 19.3 0 0 0-2-2.5m-1 4.8a14.5 14.5 0 0 1 2.4 8.7 14 14 0 0 1-4.8 10.3 14.7 14.7 0 0 1-5.3 3.2 15.1 15.1 0 0 1-5.5.8 14.8 14.8 0 0 1-7.7-2.4 1 1 0 0 0-.1 0l-.5-.5a1.6 1.6 0 0 0-.3-.2 18.8 18.8 0 0 1-2-1.9 18 18 0 0 1-2-2.3 14.8 14.8 0 0 1-1.7-4.2 18 18 0 0 1-.4-3.2v-1.9a10.8 10.8 0 0 0-1.4 5.8l-16.7 11.5a14.2 14.2 0 0 1-.3-2.2 14.6 14.6 0 0 1 0-2.1 9.6 9.6 0 0 1 .4-1.8v-.1a15 15 0 0 1 .6-1.7 13.5 13.5 0 0 1 1.9-2.7 2 2 0 0 0 .3-.3l4-3.5q6.8-5.8 14.1-11.6l3.4-2.5a15.9 15.9 0 0 1 9.2-2.4 15.1 15.1 0 0 1 10.6 5 20.6 20.6 0 0 1 1.8 2.2m-48.4 19.6a18 18 0 0 0 0 2 17.1 17.1 0 0 0 .4 3 14 14 0 0 0 1.4 3.2l-45.7 27.8v-.3a6.9 6.9 0 0 1-.5-1.7v-1l.1-.4a5.3 5.3 0 0 1 1.2-2.6 6.3 6.3 0 0 1 1.2-1l41.9-29m-25.6 36.6a17.1 17.1 0 0 1 0 2.1 13.1 13.1 0 0 1-.1 2.5l-.2 1.5-.3.8a.4.4 0 0 0 0 .1l-.1.3a1.9 1.9 0 0 1-.2.4l-9.9-1.2v-.4a3.6 3.6 0 0 0 .2-.5l10.6-5.6m8-4.1.1.5a41.8 41.8 0 0 1 1.8 5.5l.5 1.9.2 1.1.4 3 .1 1.3-8.3-1 .3-.8.2-.8a12 12 0 0 0 .3-1.7.5.5 0 0 0 0-.2 20.4 20.4 0 0 0 .2-2.7 23.6 23.6 0 0 0-.4-3.8l4.5-2.3m-23.6-8-4.8 3.4q-1 1.3-4.6 13.3l-13.5-1.5a5.2 5.2 0 0 0 .4-.8 17.3 17.3 0 0 0 1.8-9 15.4 15.4 0 0 0-3.3-8.3 1.4 1.4 0 0 1 .4-.2l23.6 3.2M134.6 85l-.3-.3-.1-.1a22.5 22.5 0 0 0-2.3-2l-2-1.5A34.2 34.2 0 0 0 126 79a.7.7 0 0 0-.2 0 46.2 46.2 0 0 0-10.6-2.8l-3.2-.4-5.5-.6h-.1l-2.8-.1-3-.2v-3.4l78.3 9.5.1 3.2-4.7-.1a3.4 3.4 0 0 0-2.9 1.5l-2.5 3-34.3-3.5m34 7.5A34 34 0 0 1 173 94a24.4 24.4 0 0 1 9.1 6.6q4.8 6 3.9 15.8l-50-4.6v-3l6.4-6.1a1.2 1.2 0 0 0 .4-.7v-.2a.2.2 0 0 0 0-.1.2.2 0 0 0 0-.1.5.5 0 0 0 0-.2 35.4 35.4 0 0 0-1-3.7l-.4-1.2a33.3 33.3 0 0 0-3.6-7l30.8 3m-13.5-45.1-7 4.8-31-4.2a6.2 6.2 0 0 0-2 .5 6.1 6.1 0 0 0-2.3 1.8 55.2 55.2 0 0 1 2 8.2l.4 3.4.1 2.4q.2 2 .1 4.8a3 3 0 0 1 0 .3l-13.6-1.7h-.1l-.3-3.8v-.4l-.5-2.9-.3-2.2-.8-3.7-.3-1.3a94 94 0 0 0-4.2-12.9q0-2 2.3-2l56.5 8.2 1 .7m25.6 40.7h.7q18 .8 28.6 3.2a19.6 19.6 0 0 1 5.4 2.7 27.4 27.4 0 0 1 7.1 7.9 53.1 53.1 0 0 1 3.9 7l-31-3a21 21 0 0 0-6-11.9 26.8 26.8 0 0 0-8.2-5.6 4.8 4.8 0 0 1-.5-.2 1.7 1.7 0 0 1-.4-.1h.4m11.4 34.7a1.3 1.3 0 0 0 0-.4q.1-3.4-.1-7l26.7 2.5.4 4.5v2.4l-8.6-.5a.7.7 0 0 0-.5.1.7.7 0 0 0-.2.4 2.8 2.8 0 0 1 0 .3l-.2 2.8a.7.7 0 0 0 .2.5.6.6 0 0 0 .4.3l8.9.6a84.7 84.7 0 0 1-1.7 13.5l-9.6-.5a.8.8 0 0 0-.4.1.8.8 0 0 0-.3.3l-.2.8-.6 2.3a.8.8 0 0 0 0 .4.6.6 0 0 0 .2.3.5.5 0 0 0 .4.1l9.5.6a73.9 73.9 0 0 1-4.2 12.2h-.2l-9.8-.5a1 1 0 0 0-.5 0 1 1 0 0 0-.2.4l-.3.6a.7.7 0 0 0 0 .3 1.2 1.2 0 0 1-.2.2l-1 1.9a1 1 0 0 0 0 .4 1 1 0 0 0 .3.4.8.8 0 0 0 .4.2l9.4.4-.4 1q-1 2-2.2 3.8a51.5 51.5 0 0 1-4.6 6.3.7.7 0 0 0-.4-.1l-9.7-.2a.8.8 0 0 0-.3 0 2 2 0 0 0-.3.3l-1.6 2a.3.3 0 0 1 0 .1h-.1a8 8 0 0 1-.8.8.9.9 0 0 0-.1.6.6.6 0 0 0 .2.4.6.6 0 0 0 .5.2l8.8.1a53.3 53.3 0 0 1-8 6.3h-26l4-3.6 4-4.4a66.2 66.2 0 0 0 9.2-14l.7-1.6a84.7 84.7 0 0 0 5.8-16.4l.5-1.7A101 101 0 0 0 192 123m-55.2-27 .7 1.7 1 2.9-38.7-3.4q-2.6-9-8-13a14.6 14.6 0 0 0-3.5-2q-2.4.6-5.1 1.5-11.6 4-30.5 14l-6.3 3.5 4.8-3.5A162.6 162.6 0 0 1 76 83.5q4.9-2.2 9.6-3.8l4.8-1.5 4.3.3 4.6.3 6.8.5a1.6 1.6 0 0 0 .4 0l1.5.1q3.9.3 7.2.8a48.8 48.8 0 0 1 8 2l2.1.7 2 1.3a33.7 33.7 0 0 1 2.8 2.3q1.1 1 2 2.2a24.8 24.8 0 0 1 1.6 2.1 33.3 33.3 0 0 1 3.1 5.3m-87.5 32.7a28 28 0 0 0 1.2 8.5l-10.5 7-7.3 5-1.2-1.6a14.3 14.3 0 0 0-4-3.6l21.8-15.3m5.6-2.2v-1.7l3-2.2v3.6l.2 2.2 6.3.2a32.8 32.8 0 0 0 1 4.4l-6.5-.1.8 2.4 6.6.1a24.7 24.7 0 0 0 1.5 3 15 15 0 0 0 5.7 5.8 9.2 9.2 0 0 0 1 .6q-5 1-8.1-.4 4.7 3.5 11 1a9.3 9.3 0 0 0 1.2-.6 7.3 7.3 0 0 0 .8-.6.1.1 0 0 0 .1 0 19.2 19.2 0 0 0 4.5-4.8 31.7 31.7 0 0 0 5.6-17v-5a27.2 27.2 0 0 0-3.7-12.2l-1-1.5 4-3 .5.9a33.1 33.1 0 0 1 4.7 15.8v5a41.7 41.7 0 0 1-2.8 13.3 31.4 31.4 0 0 1-2.4 5 17.6 17.6 0 0 1-1 1.6 9.6 9.6 0 0 1-.7 1 10.8 10.8 0 0 1-.8 1q-5.8 7.5-13.4 7.6-7.5 0-12.6-7.3a3.8 3.8 0 0 1-.2-.4l-.7-1A33 33 0 0 1 55 129l-.1-2.3M4.8 160l2.4-1.7a24.6 24.6 0 0 0-1 6v4l4.1.2a20.2 20.2 0 0 0 .7 2.9l-4.2-.2.5 1.6 4.3.1a18.5 18.5 0 0 0 1 2 9.3 9.3 0 0 0 4.3 4 8 8 0 0 1-5.3-.2 7.2 7.2 0 0 0 7.3.7 6 6 0 0 0 .7-.4 4.6 4.6 0 0 0 .6-.4 12.1 12.1 0 0 0 3-3.1 20.3 20.3 0 0 0 3.5-11.1 19 19 0 0 0-2.4-11.2 9.6 9.6 0 0 0-4.1-4l2.8-2a11.8 11.8 0 0 1 1.6 1.3 1.1 1.1 0 0 0 0 .1 15 15 0 0 1 1.9 2.5 23 23 0 0 1 3 13.4 26.5 26.5 0 0 1-1.8 8.6 18.2 18.2 0 0 1-1.5 3.2 7.8 7.8 0 0 1-.7 1 3.6 3.6 0 0 1-.4.6q-4 5.6-9.2 5.6-4.8 0-8.1-4.6l-.6-1a21.3 21.3 0 0 1-3-9.3v-4.1a32.6 32.6 0 0 1 .6-4.5m42.6-10a6.7 6.7 0 0 0 1 .8l-7.3 3.6-.4-3 5.3-3.3h.1a10.2 10.2 0 0 0 .8 1.3l.5.5m-8 12.6 1.4-.3h.7a5.2 5.2 0 0 1 4 1.8 8.3 8.3 0 0 1 1 1.5 13.1 13.1 0 0 1 1.6 7.3 8 8 0 0 1 0 .8 15.6 15.6 0 0 1-1.3 5.2 11.2 11.2 0 0 1-1 1.9 6.3 6.3 0 0 1-.4.6 2 2 0 0 1-.3.4l-.3.4a7 7 0 0 1-5.3 3 5.6 5.6 0 0 1-4.8-2.8.4.4 0 0 0-.1-.2l-.2-.4a12.4 12.4 0 0 1-1.6-5.6v-2.5l.1-.8a18 18 0 0 1 .4-1.9 15 15 0 0 1 2.5-5.4 8.6 8.6 0 0 1 3.7-3m13.7 7.3.4-2.3A18.6 18.6 0 0 1 57 161a10.8 10.8 0 0 1 4.5-3.7 16.2 16.2 0 0 0 1.8-.3h.7a6.3 6.3 0 0 1 4.8 2.1.3.3 0 0 1 0 .1A9 9 0 0 1 70 161a15.7 15.7 0 0 1 1.8 9v1a20 20 0 0 1-1.8 6.3 15.8 15.8 0 0 1-1.2 2.4l-.6.7a2.4 2.4 0 0 1-.3.5 2.5 2.5 0 0 1-.4.5q-3 3.6-6.6 3.6a6.7 6.7 0 0 1-5.8-3.5l-.1-.1-.3-.5a15.1 15.1 0 0 1-1.8-6.9v-1l.1-2 .2-1m47.6-52.4.2-10 32.3 2.1v9.7l-9.2-.6a.7.7 0 0 0-.5.2.8.8 0 0 0-.3.5l-.2 3a.1.1 0 0 1 0 .1 1 1 0 0 0 .2.5.8.8 0 0 0 .5.3l9.4.6a114.8 114.8 0 0 1-1.5 14l-9.2-.5a1 1 0 0 0-.5.1.8.8 0 0 0-.3.5l-.6 3a.6.6 0 0 0 0 .4.6.6 0 0 0 .3.3.7.7 0 0 0 .4.2l9 .6-.4 2.3a73.7 73.7 0 0 1-3.5 11.5h-.2l-9.5-.4a1 1 0 0 0-.5 0 1.4 1.4 0 0 0-.3.4l-1.2 3a.9.9 0 0 0-.1.5.8.8 0 0 0 .7.6l9.3.5a2.8 2.8 0 0 1-.3.4q-1.4 3.2-3 6.2a48 48 0 0 1-4.1 6 1 1 0 0 0-.5 0l-9.8-.2a.7.7 0 0 0-.3 0 .8.8 0 0 0-.3.3l-2.4 3a.8.8 0 0 0-.1.5.8.8 0 0 0 .2.5.6.6 0 0 0 .5.2l8.8.1a38.5 38.5 0 0 1-4.1 3.6 40.8 40.8 0 0 1-6.6 4H70.3a56.6 56.6 0 0 0 14.4-14.9 87.3 87.3 0 0 0 11.2-23.4l.8-2.9a110.7 110.7 0 0 0 3.8-21.8 6.6 6.6 0 0 0 0-.7l.3-4.3M55.3 170v.9l-.1 1.6v1h2.6a13.6 13.6 0 0 0 .3 1.9l-2.7-.1.2 1h2.8a8.1 8.1 0 0 0 .6 1.3 5.9 5.9 0 0 0 2.3 2.5 1.6 1.6 0 0 0 .4.2 3.6 3.6 0 0 1-.5 0 4.8 4.8 0 0 1-3-.1 4.5 4.5 0 0 0 4.7.4 2.2 2.2 0 0 0 .5-.3 1.1 1.1 0 0 0 .3-.2 8.4 8.4 0 0 0 2.1-2 14.1 14.1 0 0 0 2.7-7.2 8.4 8.4 0 0 0 0-1 11.3 11.3 0 0 0-1.2-6.2 5.3 5.3 0 0 0-3-2.8l-.8-.2H63q-2.8 0-5 3a15.1 15.1 0 0 0-1.4 2.1 15.6 15.6 0 0 0-1.3 4.2m-14.2-4.6h-.3a5.2 5.2 0 0 0-4 2.4 13 13 0 0 0-1.1 1.7 12.7 12.7 0 0 0-1 3.4v.7l-.1 1.4v.7h2.2a9.2 9.2 0 0 0 .3 1.6h-2.3l.2.8h2.3l.5 1a5.3 5.3 0 0 0 1.9 2.1l.4.2a2.3 2.3 0 0 1-.4 0 3.8 3.8 0 0 1-2.5-.2 3.7 3.7 0 0 0 3.8.4 2.1 2.1 0 0 0 .4-.2 3.1 3.1 0 0 0 .4-.2 6.6 6.6 0 0 0 1.5-1.7 11.1 11.1 0 0 0 2.2-5.9 3.7 3.7 0 0 0 0-.7 9.5 9.5 0 0 0-1.1-5.1 4.6 4.6 0 0 0-2.6-2.3 4.9 4.9 0 0 0-.7-.1m66.1-102.1a2 2 0 0 0-.4.3 2.2 2.2 0 0 0-.2 2.2 1.7 1.7 0 0 0 .3.5 1 1 0 0 0 .1.2 1.2 1.2 0 0 0 .3.2 1.3 1.3 0 0 0 .8.1 1.4 1.4 0 0 0 1.2-.5 1.7 1.7 0 0 0 .4-1.4 1.9 1.9 0 0 0-.5-1.3 1.5 1.5 0 0 0-1.2-.5 1.6 1.6 0 0 0-.8.2m.7-10.5-.2-.2a1.7 1.7 0 0 0-1-.3 1.5 1.5 0 0 0-1.1.4.5.5 0 0 1-.1.1 2 2 0 0 0-.5 1.4 2 2 0 0 0 .5 1.3 1.5 1.5 0 0 0 1.3.5.8.8 0 0 0 .2 0 1.4 1.4 0 0 0 .9-.5 1.7 1.7 0 0 0 .5-1.4 2 2 0 0 0-.5-1.3M105 43a1.6 1.6 0 0 0-1.2-.6 1.7 1.7 0 0 0-1.2.6 2.1 2.1 0 0 0-.5 1.4 2 2 0 0 0 .6 1.3 1.5 1.5 0 0 0 1.2.6 1.3 1.3 0 0 0 .4-.1 1.6 1.6 0 0 0 .8-.5 1.8 1.8 0 0 0 .4-1.2.4.4 0 0 0 0-.2 1.8 1.8 0 0 0-.5-1.3m35.7 65.3a1.8 1.8 0 0 0 .6 1.3 2 2 0 0 0 3.2-1.3 1.9 1.9 0 0 0-.6-1.4 2 2 0 0 0-1.3-.5 2 2 0 0 0-2 1.9m30 2.6a1.8 1.8 0 0 0-.6-1.3 1.8 1.8 0 0 0-1.3-.6 2 2 0 0 0-1.4.6 2 2 0 0 0-.6 1.3 1.8 1.8 0 0 0 .6 1.4 2 2 0 0 0 1.4.5 1.6 1.6 0 0 0 1.3-.5 1.7 1.7 0 0 0 .5-1.4m-13.5-2.6a1.8 1.8 0 0 0-1.4-.5 2 2 0 0 0-1.3.5 2 2 0 0 0-.6 1.3 1.9 1.9 0 0 0 .6 1.4 1.9 1.9 0 0 0 1.3.5 1.7 1.7 0 0 0 1.4-.5 1.7 1.7 0 0 0 .5-1.4 1.9 1.9 0 0 0-.5-1.3m25.3 3.9a1.9 1.9 0 0 0-.6-1.4 1.9 1.9 0 0 0-1.3-.6 2 2 0 0 0-1.4.6 1.9 1.9 0 0 0-.5 1.4 1.8 1.8 0 0 0 .5 1.3 1.9 1.9 0 0 0 1.4.6 1.7 1.7 0 0 0 1.3-.6 1.8 1.8 0 0 0 .6-1.3m51.9-94.3a5.5 5.5 0 0 0-1-3.6L214.7 25a9.1 9.1 0 0 1-2-3.7l13.7-12.6a6.3 6.3 0 0 1 3 .6l.5.2a9.8 9.8 0 0 0-3.4-2.4l-.8-.3a13 13 0 0 0-3.4-.6A12.1 12.1 0 0 0 209.6 18a12.9 12.9 0 0 0 .4 3.5 11.9 11.9 0 0 0 1.5 3.4v.1a13.1 13.1 0 0 0 1.5 1.8l.5.5a12.4 12.4 0 0 0 2.8 2.1 12.3 12.3 0 0 0 5.2 1.4 11.7 11.7 0 0 0 8.9-3.2 8.2 8.2 0 0 0 2.7-3.9L218.8 28a9.5 9.5 0 0 1-2.3-1.2l17.8-8.4V18Z" />
  <path
    d="M101 107.6q0 5-.2 9.9l-.3 4.3a6.6 6.6 0 0 1 0 .7 110.7 110.7 0 0 1-3.8 21.8l-.8 3a87.3 87.3 0 0 1-11.2 23.3 56.6 56.6 0 0 1-14.4 14.8h32.8a40.8 40.8 0 0 0 6.6-3.9 38.5 38.5 0 0 0 4.1-3.6l-8.8-.1a.6.6 0 0 1-.5-.2.8.8 0 0 1-.2-.5.8.8 0 0 1 .1-.5l2.4-3a.8.8 0 0 1 .3-.2.7.7 0 0 1 .3-.1l9.8.1a1 1 0 0 1 .5.2 48 48 0 0 0 4-6.1q1.7-3 3.1-6.2a2.8 2.8 0 0 0 .3-.4l-9.3-.5a.8.8 0 0 1-.7-.6.9.9 0 0 1 0-.5l1.3-3a1.4 1.4 0 0 1 .3-.3 1 1 0 0 1 .5-.1l9.5.4h.2a73.7 73.7 0 0 0 3.5-11.5l.4-2.3-9-.6a.7.7 0 0 1-.4-.2.6.6 0 0 1-.2-.3.6.6 0 0 1-.1-.4l.6-3a.8.8 0 0 1 .3-.5 1 1 0 0 1 .5-.1l9.1.5a.1.1 0 0 0 .1 0 114.8 114.8 0 0 0 1.5-14l-9.4-.6a.8.8 0 0 1-.5-.3 1 1 0 0 1-.2-.5l.2-3.1a.8.8 0 0 1 .3-.5.7.7 0 0 1 .5-.2l9.2.6v-9.7l-32.3-2m-47.4 60-.4 2.3q0 .6-.2 1l-.1 2v1.1a15.1 15.1 0 0 0 1.8 6.9l.3.5v.1a6.7 6.7 0 0 0 6 3.5q3.6 0 6.6-3.6a2.5 2.5 0 0 0 .4-.5 2.4 2.4 0 0 0 .3-.5l.6-.7a15.8 15.8 0 0 0 1.2-2.4 20 20 0 0 0 1.7-6.3l.1-1a15.7 15.7 0 0 0-1.8-9 9 9 0 0 0-1.2-1.8.3.3 0 0 0-.1 0 6.3 6.3 0 0 0-4.8-2.3h-.7a16.2 16.2 0 0 1-1.8.4A10.8 10.8 0 0 0 57 161a18.6 18.6 0 0 0-3.3 6.6m1.6 3.3.1-1a15.6 15.6 0 0 1 1.3-4 15.1 15.1 0 0 1 1.3-2.2q2.3-3 5-3h.6q.4 0 .7.2a5.3 5.3 0 0 1 3.1 2.8 11.3 11.3 0 0 1 1.3 6.3 8.4 8.4 0 0 1 0 .9 14.1 14.1 0 0 1-2.8 7.2 8.4 8.4 0 0 1-2 2 1.1 1.1 0 0 1-.4.2 2.2 2.2 0 0 1-.5.3 4.5 4.5 0 0 1-4.6-.4 4.8 4.8 0 0 0 3 .2 3.6 3.6 0 0 0 .4-.1 1.6 1.6 0 0 1-.4-.2 5.9 5.9 0 0 1-2.3-2.5 8.1 8.1 0 0 1-.6-1.2h-2.8q0-.6-.2-1.1l2.7.1a13.6 13.6 0 0 1-.3-1.9h-2.6v-2.6m-14.4-8.6-1.3.3a8.6 8.6 0 0 0-3.7 3 15 15 0 0 0-2.5 5.4 18 18 0 0 0-.4 1.9v.8l-.1 1.6v.9a12.4 12.4 0 0 0 1.6 5.6l.2.4a.4.4 0 0 1 0 .2 5.6 5.6 0 0 0 4.9 2.8 7 7 0 0 0 5.3-3l.3-.4a2 2 0 0 0 .3-.4 6.3 6.3 0 0 0 .4-.6 11.2 11.2 0 0 0 1-2 15.6 15.6 0 0 0 1.2-5 8 8 0 0 0 .1-.9 13.1 13.1 0 0 0-1.6-7.3 8.3 8.3 0 0 0-1-1.5 5.2 5.2 0 0 0-4-1.8h-.7m0 3h.3a4.9 4.9 0 0 1 .7.2 4.6 4.6 0 0 1 2.6 2.3 9.5 9.5 0 0 1 1.1 5.1 3.7 3.7 0 0 1 0 .7 11.1 11.1 0 0 1-2.2 6 6.6 6.6 0 0 1-1.5 1.6 3.1 3.1 0 0 1-.4.2 2.1 2.1 0 0 1-.4.2 3.7 3.7 0 0 1-3.8-.4 3.8 3.8 0 0 0 2.5.2 2.3 2.3 0 0 0 .4 0l-.4-.2a5.3 5.3 0 0 1-2-2l-.4-1-2.3-.1-.2-.8h2.3a9.2 9.2 0 0 1-.3-1.5h-2.2v-2.2l.1-.7a12.7 12.7 0 0 1 1-3.4 13 13 0 0 1 1-1.7 5.2 5.2 0 0 1 4-2.5m7.7-14.4a6.7 6.7 0 0 1-1-.9l-.5-.5a10.2 10.2 0 0 1-.8-1.3H46l-5.3 3.3.4 3 7.3-3.6m-43.6 9.2a32.6 32.6 0 0 0-.5 4.5v4.1a21.3 21.3 0 0 0 2.9 9.3l.6 1q3.3 4.6 8 4.6a.1.1 0 0 0 .1 0q5.2 0 9.2-5.6a3.6 3.6 0 0 0 .4-.6 7.8 7.8 0 0 0 .7-1 18.2 18.2 0 0 0 1.5-3.2 26.5 26.5 0 0 0 1.8-8.6 23 23 0 0 0-3-13.4 15 15 0 0 0-1.8-2.5 1.1 1.1 0 0 1-.1-.1 11.8 11.8 0 0 0-1.6-1.3l-2.8 2a9.6 9.6 0 0 1 4.1 4 19 19 0 0 1 2.4 11.2 20.3 20.3 0 0 1-3.6 11 12.1 12.1 0 0 1-2.9 3.2 4.6 4.6 0 0 1-.6.4 6 6 0 0 1-.7.4 7.2 7.2 0 0 1-7.3-.7 8 8 0 0 0 5.3.2 9.3 9.3 0 0 1-4.4-4 18.5 18.5 0 0 1-1-2l-4.2-.1-.5-1.6 4.2.2a20.2 20.2 0 0 1-.7-3h-4L6 167v-2.5a24.6 24.6 0 0 1 1.1-6.1L4.8 160m50-35.2v1.7l.2 2.3a33 33 0 0 0 4.5 14.5l.7 1a3.8 3.8 0 0 0 .2.3q5 7.3 12.5 7.3h.1q7.6 0 13.4-7.7a10.8 10.8 0 0 0 .8-1 9.6 9.6 0 0 0 .6-.9 17.6 17.6 0 0 0 1.1-1.6 31.4 31.4 0 0 0 2.4-5 41.7 41.7 0 0 0 2.8-13.3v-5a33.1 33.1 0 0 0-4.7-15.8l-.5-.8-4 2.9 1 1.5a27.2 27.2 0 0 1 3.7 12.2v4.9a1 1 0 0 0 0 .1 31.7 31.7 0 0 1-5.6 17 19.2 19.2 0 0 1-4.5 4.8 7.3 7.3 0 0 1-.9.6 9.3 9.3 0 0 1-1.1.6q-6.4 2.5-11.1-1 3 1.5 8.2.4a9.2 9.2 0 0 1-1-.6 15 15 0 0 1-5.8-5.8 24.7 24.7 0 0 1-1.5-3l-6.6-.1-.8-2.4 6.5.1a32.8 32.8 0 0 1-1-4.4l-6.3-.2-.2-2.2v-3.6l-3 2.2m-4.4 12.4a28 28 0 0 1-1.2-8.5L27.5 144a14.3 14.3 0 0 1 4 3.6l1.2 1.6 7.3-5 10.5-7m87-39.5-.7-1.7a33.3 33.3 0 0 0-3-5.3 24.8 24.8 0 0 0-1.6-2l-2.1-2.3a33.7 33.7 0 0 0-2.8-2.3l-2-1.3-2-.8a48.8 48.8 0 0 0-8.1-1.9q-3.3-.5-7.2-.8h-1.5a1.6 1.6 0 0 1-.4-.1l-6.8-.5-4.6-.3-4.3-.3-4.8 1.5q-4.7 1.6-9.6 3.8a162.6 162.6 0 0 0-24.8 14.3l-4.8 3.5 6.3-3.5q18.9-10 30.5-14 2.7-.9 5-1.4a14.6 14.6 0 0 1 3.6 2q5.4 3.9 8 13l38.6 3.3-1-2.9m54.7 24.7a1.3 1.3 0 0 1 0 .4 101 101 0 0 1-2.8 20.8l-.5 1.7a84.7 84.7 0 0 1-5.8 16.4l-.7 1.5a66.2 66.2 0 0 1-9.2 14.1l-4 4.4-4 3.6h26a53.3 53.3 0 0 0 8-6.3l-8.8-.1a.6.6 0 0 1-.5-.2.6.6 0 0 1-.2-.4.9.9 0 0 1 .1-.6 8 8 0 0 0 .8-.8q1-1 1.7-2.1a2 2 0 0 1 .3-.2.8.8 0 0 1 .3 0h9.7a.7.7 0 0 1 .4.2 51.5 51.5 0 0 0 4.6-6.3l2.2-3.8.4-1-9.4-.4a.8.8 0 0 1-.4-.2 1 1 0 0 1-.3-.4 1 1 0 0 1 0-.4l1-1.9a1.2 1.2 0 0 0 .1-.2.7.7 0 0 1 .1-.3l.3-.6a1 1 0 0 1 .2-.3 1 1 0 0 1 .5 0l9.8.4h.2a73.9 73.9 0 0 0 4.2-12.2l-9.5-.6a.5.5 0 0 1-.4-.1.6.6 0 0 1-.2-.3.8.8 0 0 1 0-.4l.6-2.3.2-.8a.8.8 0 0 1 .3-.3.8.8 0 0 1 .4-.1l9.5.5a.6.6 0 0 1 .1 0 84.7 84.7 0 0 0 1.7-13.5l-9-.6a.6.6 0 0 1-.3-.3.7.7 0 0 1-.2-.5q0-1.4.2-2.7a2.8 2.8 0 0 0 0-.4.7.7 0 0 1 .2-.4.7.7 0 0 1 .5-.1l8.6.5v-2.3l-.4-4.5-26.7-2.4q.2 3.5.1 7m-11.2-34.4h-.6a1.7 1.7 0 0 0 .4.1 4.8 4.8 0 0 0 .5.2 26.8 26.8 0 0 1 8.3 5.6 21 21 0 0 1 5.9 12l31 3a53.1 53.1 0 0 0-3.9-7.1 27.4 27.4 0 0 0-7.1-7.9 19.6 19.6 0 0 0-5.4-2.7q-10.5-2.4-28.6-3.2h-.5m-32.8-35.9 7-4.8-1-.7-56.5-8.1q-2.4-.1-2.3 2a94 94 0 0 1 4.2 12.8l.3 1.3.8 3.7.3 2.2.4 2.9v.4l.4 3.8h.1l13.6 1.7a3 3 0 0 0 0-.3v-4.8l-.2-2.4-.5-3.4a55.2 55.2 0 0 0-1.9-8.2 6.1 6.1 0 0 1 2.4-1.8 6.2 6.2 0 0 1 1.9-.5l31 4.2M104 42.4a1.6 1.6 0 0 1 1.2.6 1.8 1.8 0 0 1 .5 1.3.4.4 0 0 1 0 .2 1.8 1.8 0 0 1-.4 1.2 1.6 1.6 0 0 1-.8.5 1.3 1.3 0 0 1-.4 0 1.5 1.5 0 0 1-1.2-.5 2 2 0 0 1-.6-1.3 2.1 2.1 0 0 1 .5-1.4 1.7 1.7 0 0 1 1.2-.6m3.8 10.2.2.2a2 2 0 0 1 .5 1.3 1.7 1.7 0 0 1-.5 1.4 1.4 1.4 0 0 1-1 .5.8.8 0 0 1-.1 0 1.5 1.5 0 0 1-1.3-.5 2 2 0 0 1-.5-1.2v-.1a2 2 0 0 1 .5-1.4.5.5 0 0 0 .1-.1 1.5 1.5 0 0 1 1-.4 1.7 1.7 0 0 1 1.1.3m-.9 11a2 2 0 0 1 .4-.3 1.6 1.6 0 0 1 .8-.2 1.5 1.5 0 0 1 1.2.5 1.9 1.9 0 0 1 .5 1.3 1.7 1.7 0 0 1-.4 1.4 1.4 1.4 0 0 1-1.2.5 1.3 1.3 0 0 1-.8-.1 1.2 1.2 0 0 1-.3-.2 1 1 0 0 1-.1-.2 1.7 1.7 0 0 1-.3-.5 2.2 2.2 0 0 1 .2-2.2M173 94.1a34 34 0 0 0-4.4-1.5l-30.8-3a33.3 33.3 0 0 1 3.6 7l.3 1.2a35.4 35.4 0 0 1 1 3.7.5.5 0 0 1 0 .2.2.2 0 0 1 0 .1.2.2 0 0 1 0 .1v.2a1.2 1.2 0 0 1-.3.7l-6.4 6.1v3l50 4.6q.9-9.8-4-15.9h.1a24.4 24.4 0 0 0-9.1-6.5m8.8 16.7a1.9 1.9 0 0 1 .6 1.4 1.8 1.8 0 0 1-.6 1.3 1.7 1.7 0 0 1-1.3.6 1.9 1.9 0 0 1-1.4-.6 1.8 1.8 0 0 1-.5-1.3 1.9 1.9 0 0 1 .5-1.4 2 2 0 0 1 1.4-.6 1.9 1.9 0 0 1 1.3.6m-24.7-2.5a1.9 1.9 0 0 1 .5 1.3 1.7 1.7 0 0 1-.5 1.4 1.7 1.7 0 0 1-1.4.5 1.9 1.9 0 0 1-1.3-.5 1.9 1.9 0 0 1-.6-1.4 2 2 0 0 1 .6-1.3 2 2 0 0 1 1.3-.5 1.8 1.8 0 0 1 1.4.5m13 1.3a1.8 1.8 0 0 1 .5 1.3 1.7 1.7 0 0 1-.5 1.4 1.6 1.6 0 0 1-1.3.5 2 2 0 0 1-1.4-.5 1.8 1.8 0 0 1-.6-1.4 2 2 0 0 1 .6-1.3 2 2 0 0 1 1.4-.6 1.8 1.8 0 0 1 1.3.6m-28.7 0a1.8 1.8 0 0 1-.6-1.3 2 2 0 0 1 2-2 2 2 0 0 1 1.2.6 1.9 1.9 0 0 1 .6 1.4 1.9 1.9 0 0 1-3.2 1.3m-6.8-24.5 34.3 3.5 2.5-3a3.4 3.4 0 0 1 3-1.5h4.6l-.1-3-78.3-9.6v3.4q1.6 0 3 .2l2.8.1a.1.1 0 0 0 .1 0l5.5.6 3.2.4a46.2 46.2 0 0 1 10.6 2.7.7.7 0 0 1 .2.1 34.2 34.2 0 0 1 3.9 2.2l2 1.4a22.5 22.5 0 0 1 2.3 2v.2l.3.2m4.8-26.5 4.8-3.3-23.6-3.2a1.4 1.4 0 0 0-.4.2 15.4 15.4 0 0 1 3.3 8.2 17.3 17.3 0 0 1-1.8 9.1 5.2 5.2 0 0 1-.4.8l13.5 1.5q3.6-12 4.6-13.3m28.6 5-.2-.4-4.5 2.3a23.6 23.6 0 0 1 .4 3.8 20.4 20.4 0 0 1-.2 2.7.5.5 0 0 1 0 .2 12 12 0 0 1-.3 1.7l-.2.8-.3.8 8.3 1-.1-1.3-.4-3-.2-1.1-.5-2a41.8 41.8 0 0 0-1.8-5.4m-8 5.7a17.1 17.1 0 0 0-.1-2l-10.6 5.5a3.6 3.6 0 0 1-.2.5v.4l10 1.3a.1.1 0 0 0 0-.1 1.9 1.9 0 0 0 0-.4l.2-.3a.4.4 0 0 1 0-.1l.3-.8.2-1.4v-.1a13.1 13.1 0 0 0 .2-2.5m25.4-36.7a18 18 0 0 1 0-2l-41.8 29a6.3 6.3 0 0 0-1.2 1 5.3 5.3 0 0 0-1.2 2.6v1.4a6.9 6.9 0 0 0 .3 1.7l.1.3L187.2 39a14 14 0 0 1-1.4-3.3 17.1 17.1 0 0 1-.5-3M233.8 11a20.6 20.6 0 0 0-1.8-2.2 15.1 15.1 0 0 0-10.6-5 15.9 15.9 0 0 0-9.2 2.4l-3.4 2.5q-7.3 5.8-14 11.6l-4.1 3.5a2 2 0 0 1-.3.3 13.5 13.5 0 0 0-1.9 2.7 15 15 0 0 0-.6 1.6v.2a9.6 9.6 0 0 0-.4 1.8 14.6 14.6 0 0 0 0 2.1 14.2 14.2 0 0 0 .3 2.2l16.7-11.5a10.8 10.8 0 0 1 1.3-5.8v2a18 18 0 0 0 .5 3v.1a14.8 14.8 0 0 0 1.8 4.2 18 18 0 0 0 1.8 2.3 18.8 18.8 0 0 0 2 2 1.6 1.6 0 0 1 .4.1l.5.4a1 1 0 0 1 .1 0 14.8 14.8 0 0 0 7.7 2.5 15.1 15.1 0 0 0 5.4-.7h.1a14.7 14.7 0 0 0 5.3-3.3 14 14 0 0 0 4.8-10.3 14.5 14.5 0 0 0-2.4-8.7m-.5 3.3a5.5 5.5 0 0 1 1 3.6v.4l-17.8 8.4a9.5 9.5 0 0 0 2.3 1.2l14.3-4.3a8.2 8.2 0 0 1-2.7 3.9 11.7 11.7 0 0 1-8.8 3.2 12.3 12.3 0 0 1-5.3-1.4 12.4 12.4 0 0 1-2.8-2.1l-.5-.5a13.1 13.1 0 0 1-1.4-1.8h-.1a11.9 11.9 0 0 1-1.5-3.5 12.9 12.9 0 0 1-.4-3.5 12.1 12.1 0 0 1 12.7-11.7 13 13 0 0 1 3.4.6l.8.3a9.8 9.8 0 0 1 3.4 2.4q-.3 0-.5-.2a6.3 6.3 0 0 0-3-.6l-13.8 12.6a9.1 9.1 0 0 0 2.1 3.7Z"
    class="a" />
</svg>
