<svg xmlns="http://www.w3.org/2000/svg" width="90" height="90" fill="none">
  <g clip-path="url(#a)">
    <path fill="currentColor" fill-rule="evenodd"
      d="M31.8 8a9 9 0 0 1 9.1 9v62.2a3.8 3.8 0 0 1-3.8 3.8h-8.3a3.8 3.8 0 0 1-3.8-3.8V27.5a3.8 3.8 0 0 0-3.8-3.8h-1.5a3.8 3.8 0 0 0-3.8 3.8v51.7a3.8 3.8 0 0 1-3.8 3.8H3.8A3.8 3.8 0 0 1 0 79.2V11.8A3.8 3.8 0 0 1 3.8 8h28ZM81 8a9 9 0 0 1 9.1 9v15.7a3 3 0 0 1-3 3H76.4a3 3 0 0 1-3-3V26c0-1.2-1-2.3-2.3-2.3h-3.8c-1.3 0-2.3 1-2.3 2.3v39c0 .8.7 1.5 1.5 1.5h6c1 0 1.6-.7 1.6-1.5v-7.5h-1.5a3 3 0 0 1-3-3v-9.7a3 3 0 0 1 3-3H87a3 3 0 0 1 3 3v29.1a9 9 0 0 1-9 9.1H58.1a9 9 0 0 1-9.1-9V17a9 9 0 0 1 9-9h23Z"
      clip-rule="evenodd" />
  </g>
  <defs>
    <clipPath id="a">
      <path fill="#fff" d="M0 0h90v90H0z" />
    </clipPath>
  </defs>
</svg>
