<svg xmlns="http://www.w3.org/2000/svg" viewBox="0 0 240.00865 189.43"><defs><style>.a{fill:#fff;}</style></defs><path d="M96.52867,12.88336l-.72-1.05623a21.90892,21.90892,0,0,0,.336-3.84082,10.258,10.258,0,0,0-1.728-.96021,8.37145,8.37145,0,0,0-2.496-3.55275,10.81192,10.81192,0,0,0-14.1601,0,8.28372,8.28372,0,0,0-2.832,5.47316v.048a1.31544,1.31544,0,0,1-.24.048,4.09339,4.09339,0,0,0-1.824,1.39229v.048a37.09594,37.09594,0,0,0-.24,3.88881q.07388,1.622.192,2.54456l.24.43209.048.048a3.52875,3.52875,0,0,0,2.016,1.15224,2.73074,2.73074,0,0,0,.384,1.29628.46971.46971,0,0,0-.096,0q-1.782.5161-3.648,1.00821-1.32.38393-2.64.72015a16.0068,16.0068,0,0,0-2.496,1.00822l-.096.048-2.208,5.76123q-.49668,1.79141-1.056,3.55276-.16763.63278-.336,1.24827-.30055,2.755-1.008,6.86546a12.93051,12.93051,0,0,0,.384,3.40873,12.31577,12.31577,0,0,0,3.696,6.0493,1.33,1.33,0,0,0,.288.192,2.83507,2.83507,0,0,0,.96.52812,1.95243,1.95243,0,0,0,.576.096,20.62832,20.62832,0,0,0,7.48805-.48011,17.576,17.576,0,0,0,2.928-1.05623q2.535-1.08359,4.992-2.30448a50.9286,50.9286,0,0,0,4.752-2.54456q2.376-1.37446,4.704-2.68857,2.29146-1.28184,4.656-2.3525,2.457-1.12261,4.896-2.20848a3.24728,3.24728,0,0,1,.384-.096,1.75988,1.75988,0,0,0,1.104-.62414.50593.50593,0,0,0,.288.096q.039.02682.048,0a.2032.2032,0,0,0,.048-.144q.027-.01238,0-.048-.04857-.16917-.096-.33608v-.144a.54186.54186,0,0,1-.048-.096l-.048-.048q-.72677-2.21464-1.68-4.36892a46.25877,46.25877,0,0,0-2.688-5.08909q-.92289-.64665-.96-.67214-.5145-.31827-1.056-.67215-1.45989-.92571-2.976-1.77637a.36073.36073,0,0,0-.096-.048,6.8948,6.8948,0,0,0-1.536-.76816q-.16575-.04913-.336-.096h-.048l-.096-.048.576-1.68036,2.496-.9602a16.20475,16.20475,0,0,0,.384-1.68036,34.89753,34.89753,0,0,0,.624-4.513m.336,14.067a36.37866,36.37866,0,0,0,.144,4.801l.72,3.50474-.096.144.24.192h.096a.31908.31908,0,0,1-.096.24005,10.878,10.878,0,0,1-2.928,1.63235Q90.52,39.22767,86.2086,41.35343a23.86112,23.86112,0,0,1-6.576,2.25649,6.34276,6.34276,0,0,1-3.264-.144q-.1935-.07408-.432-.192-.82782-1.53521-4.128-6.81746l3.168,1.96842a31.45818,31.45818,0,0,0-.048-5.32914q-.22893-1.71111-.48-3.60077a23.57158,23.57158,0,0,0-1.296-4.94505l3.936-.57613q.17438.26877.336.48011a13.75511,13.75511,0,0,0,1.344,1.44031q.63994.5418,1.296,1.00821a13.8838,13.8838,0,0,0,3.168,1.72838,12.21034,12.21034,0,0,0,4.896.91219,7.09931,7.09931,0,0,0,4.704-1.63235l1.056-2.06443a12.9819,12.9819,0,0,1,2.976,1.10423m-2.544-18.33993a3.28062,3.28062,0,0,1,.288.57613,8.55337,8.55337,0,0,1-.432,3.88884h0a1.39693,1.39693,0,0,1-.384.62412,4.42406,4.42406,0,0,1-1.68-.048q.04048-.00956,0-.096l-.336-.96021q.00544-.01538-.048-.048l-.192-.52812v-.048a.82711.82711,0,0,0-.768-.57611q-.90563-.11909-1.872-.192a1.08986,1.08986,0,0,0-.96.57611l-.528.67214a.35233.35233,0,0,1-.048.096l-.336.38408a2.08883,2.08883,0,0,1-1.296.38409,13.38223,13.38223,0,0,1-4.464-.38409q-.36882-.15212-.576-2.20846a18.31385,18.31385,0,0,1,.096-2.88062q.171-.103.336-.19205v-.048a.63668.63668,0,0,0,.192-.096.86938.86938,0,0,0,.192-.048A33.77372,33.77372,0,0,1,94.32066,8.61043m-9.40807,6.72144a6.53491,6.53491,0,0,0,.768-.048q.582-.08064,1.248-.19205a3.82356,3.82356,0,0,0,1.2-.33607.09537.09537,0,0,0,.048-.048q.13182-.15058.24-.28806.11025-.19224.24-.38408a3.13207,3.13207,0,0,0,.24-.43209,1.57188,1.57188,0,0,0,.24-.28806.44452.44452,0,0,0,.048-.096.50556.50556,0,0,0,.144,0,3.19081,3.19081,0,0,1,1.152.144.39573.39573,0,0,1,.048.192q.10482.22821.192.43209a3.02637,3.02637,0,0,1,.096.4801q.03882.11853.144.38408a1.15453,1.15453,0,0,1,.048.28806l.048.096q.24581.06862.48.144.20343.04688.432.096a1.24232,1.24232,0,0,0,.144.096.91627.91627,0,0,1,.24.096.34257.34257,0,0,1,.192.28806q-.10032.58455-.144.86418a4.81446,4.81446,0,0,1-.192.57613.61518.61518,0,0,1-.096.24005q-.17794.58439-.384,1.10423l-.192.52812a.67356.67356,0,0,1-.288.33607,3.32114,3.32114,0,0,1-.864.48011,5.467,5.467,0,0,1-1.296.288q-.15918.02964-.336.048a2.352,2.352,0,0,1-.336,0,4.05193,4.05193,0,0,1-.624,0,1.89945,1.89945,0,0,1-.336-.048l-1.056-.288q-.4575-.21813-.96-.48011a3.112,3.112,0,0,1-.864-.72015,8.704,8.704,0,0,1-.336-1.05623q-.07537-.205-.144-.43209-.078-.31357-.144-.62414a.56024.56024,0,0,1-.048-.24005l-.048-.048v-.048a.16548.16548,0,0,0,0-.096,2.54911,2.54911,0,0,1,.048-.28807q.07349-.19633.144-.38407.09862-.20254.72-.28807Z"/><path class="a" d="M85.6806,15.28387a6.53491,6.53491,0,0,1-.768.048l-.144.048q-.62138.08554-.72.28807-.0705.18771-.144.38407a2.54911,2.54911,0,0,0-.048.28807.16548.16548,0,0,1,0,.096v.048l.048.048a.56024.56024,0,0,0,.048.24005q.066.31056.144.62414.06862.22712.144.43209a8.704,8.704,0,0,0,.336,1.05623,3.112,3.112,0,0,0,.864.72015q.5025.262.96.48011l1.056.288a1.89945,1.89945,0,0,0,.336.048,4.05193,4.05193,0,0,0,.624,0,2.352,2.352,0,0,0,.336,0q.17681-.01838.336-.048a5.467,5.467,0,0,0,1.296-.288,3.32114,3.32114,0,0,0,.864-.48011.67356.67356,0,0,0,.288-.33607l.192-.52812q.20607-.51985.384-1.10423a.61518.61518,0,0,0,.096-.24005,4.81446,4.81446,0,0,0,.192-.57613q.04368-.27961.144-.86418a.34257.34257,0,0,0-.192-.28806.91627.91627,0,0,0-.24-.096,1.24232,1.24232,0,0,1-.144-.096q-.22855-.04914-.432-.096-.23419-.07538-.48-.144l-.048-.096a1.15453,1.15453,0,0,0-.048-.28806q-.10519-.26556-.144-.38408a3.02637,3.02637,0,0,0-.096-.4801q-.08718-.20387-.192-.43209a.39573.39573,0,0,0-.048-.192,3.19081,3.19081,0,0,0-1.152-.144.50556.50556,0,0,1-.144,0,.44452.44452,0,0,1-.048.096,1.57188,1.57188,0,0,1-.24.28806,3.13207,3.13207,0,0,1-.24.43209q-.12975.19186-.24.38408-.10819.13749-.24.28806a.09537.09537,0,0,1-.048.048,3.82356,3.82356,0,0,1-1.2.33607q-.666.1114-1.248.19205m8.92806-6.09731a3.28062,3.28062,0,0,0-.288-.57613A33.77372,33.77372,0,0,0,81.50457,7.45819a.86938.86938,0,0,1-.192.048.63668.63668,0,0,1-.192.096v.048q-.165.08907-.336.19205a18.31385,18.31385,0,0,0-.096,2.88062q.2072,2.0564.576,2.20846a13.38223,13.38223,0,0,0,4.464.38409,2.08883,2.08883,0,0,0,1.296-.38409l.336-.38408a.35233.35233,0,0,0,.048-.096l.528-.67214a1.08986,1.08986,0,0,1,.96-.57611q.96637.07295,1.872.192a.82711.82711,0,0,1,.768.57611v.048l.192.52812q.05344.03264.048.048l.336.96021q.04048.08646,0,.096a4.42406,4.42406,0,0,0,1.68.048,1.39693,1.39693,0,0,0,.384-.62412h0a8.55337,8.55337,0,0,0,.432-3.88884m2.4,22.56482a36.37866,36.37866,0,0,1-.144-4.801,12.9819,12.9819,0,0,0-2.976-1.10423l-1.056,2.06443a7.09931,7.09931,0,0,1-4.704,1.63235,12.21034,12.21034,0,0,1-4.896-.91219,13.8838,13.8838,0,0,1-3.168-1.72838q-.65607-.46639-1.296-1.00821a13.75511,13.75511,0,0,1-1.344-1.44031q-.16163-.21137-.336-.48011l-3.936.57613a23.57158,23.57158,0,0,1,1.296,4.94505q.25107,1.88967.48,3.60077a31.45818,31.45818,0,0,1,.048,5.32914l-3.168-1.96842q3.3002,5.28225,4.128,6.81746.2385.118.432.192a6.34276,6.34276,0,0,0,3.264.144,23.86112,23.86112,0,0,0,6.576-2.25649q4.3114-2.12576,8.73607-3.88883a10.878,10.878,0,0,0,2.928-1.63235.31908.31908,0,0,0,.096-.24005h-.096l-.24-.192.096-.144Z"/><path d="M234.76965,6.11391l-.048-.048a19.10226,19.10226,0,0,0-23.18416-3.6968,1.23022,1.23022,0,0,0-.192.048,20.1504,20.1504,0,0,0-2.832,2.01644h0a1.72978,1.72978,0,0,1-.384.28806q-.05212.07857-.096.144-1.53805,1.21861-3.12,2.49654a.1615.1615,0,0,0-.096.144l-11.04008,8.8819q-1.67325,1.30772-3.312,2.64056a.219.219,0,0,0-.096.048h-.048q-.39168.3537-.864.72015a15.77171,15.77171,0,0,0-2.928,3.02464,12.11994,12.11994,0,0,0-1.392,2.3525,9.25823,9.25823,0,0,0-.528,1.24827,1.187,1.187,0,0,1-.048.144L158.44911,44.9542q-.00095.02382-.048.048-1.17657-.89851-2.304-1.68035a3.23538,3.23538,0,0,0-1.056-.38409L97.48868,34.392h0a21.69456,21.69456,0,0,0-9.88807,1.68035q-1.22645.54951-2.448,1.10423-2.18421,1.07761-4.416,2.16047-1.9082.97183-3.84,1.92041-1.00557.51948-12.33609,6.96148v0q-3.15846,2.05452-6.336,4.22491-1.67945,1.15881-3.408,2.3525-4.02114,2.88793-8.06406,5.95327-1.84668,1.41933-3.696,2.8326-1.35432,1.09262-2.736,2.16047a2.66735,2.66735,0,0,0-.96,1.68036q-.74232,5.9332-1.248,12.1946-.36917,4.49271-.624,9.17-.18264,4.34681-.336,9.02593-.06543,3.344-.144,6.81746Q26.23837,114.2,17.85612,122.53877q-5.604,5.58757-10.12806,10.61027a41.76356,41.76356,0,0,0-1.056,11.76251q-1.04533,1.34559-2.064,2.8326a.14544.14544,0,0,1-.048.096q-4.561,6.86528-4.56,16.80358a30.80862,30.80862,0,0,0,4.56,16.94762.19076.19076,0,0,1,0,.096q4.2486,6.6695,10.08007,7.58562l1.68.144h.096a.78765.78765,0,0,0,.24,0,.20478.20478,0,0,0,.144,0q.0283.024.048,0,1.03783.03095,2.976-.048h171.6972a.8734.8734,0,0,0,.576-.144,28.73059,28.73059,0,0,0,4.368-2.8326h.048a57.45229,57.45229,0,0,0,16.65612-19.44415,81.5326,81.5326,0,0,0,6.144-14.93119,78.69455,78.69455,0,0,0,2.16-8.78588,102.93116,102.93116,0,0,0,1.776-20.69242q-.03207-1.99036-.144-3.98485l7.056-5.04107a2.42906,2.42906,0,0,0,1.056-1.77638v-.048a1.89388,1.89388,0,0,0,0-.67214v-.048a11.50667,11.50667,0,0,0-.816-2.30449q-.3673-.80455-.72-1.63235v.048q-.30489-.75636-.624-1.53633h-.048q-.4843-1.13968-1.056-2.20847-.56832-1.048-1.152-2.06444-.444-.73159-.912-1.44031a35.42056,35.42056,0,0,0-4.416-5.71322,26.2872,26.2872,0,0,0-2.544-2.30449,23.159,23.159,0,0,0-7.728-4.2249.20856.20856,0,0,1-.096,0q-.08945-.02139-.192-.048a132.96908,132.96908,0,0,0-16.41611-2.44852q-5.15685-.44727-11.13608-.67215l-.288-4.99306a.53092.53092,0,0,0-.048-.144,2.36994,2.36994,0,0,0-.144-.76816q-.10125-.19765-.24-.43209a2.92953,2.92953,0,0,0-.288-.33607l-.048-.048a2.36973,2.36973,0,0,0-1.584-.81617l-5.808-.72015q-.11306-1.57909-.384-3.16868a46.141,46.141,0,0,0-1.44-6.33736q-1.22477-4.02966-1.776-5.32913h0q1.653-.85555,3.312-1.72837,5.304-2.8086,10.60808-5.6652,6.103-3.2574,12.24008-6.5294a.169.169,0,0,0,.144.048,14.37388,14.37388,0,0,0,2.208.048,15.51732,15.51732,0,0,0,5.088-1.0082q.05325-.00546.048-.048a3.34,3.34,0,0,1,.432-.144.06512.06512,0,0,0,.048-.048l.048-.048,21.93615-9.362a.08941.08941,0,0,0,.096-.048,18.76187,18.76187,0,0,0,6.48005-3.93685,19.402,19.402,0,0,0,2.832-3.21668v-.048q.05382.00637.048-.048a18.02074,18.02074,0,0,0,3.12-9.79409,18.45506,18.45506,0,0,0-2.976-10.80231h0a.41071.41071,0,0,0-.096-.096.32846.32846,0,0,0-.144-.192,19.31422,19.31422,0,0,0-1.92-2.49653q-.02061-.00543-.048-.048h-.048m-.96,4.897-.048-.048a14.54782,14.54782,0,0,1,2.4,8.68984,14.04007,14.04007,0,0,1-4.752,10.37022,14.71635,14.71635,0,0,1-5.28,3.21669q.00095.01011-.048,0-.00018.03582-.048.048a15.10187,15.10187,0,0,1-5.472.67214,14.80366,14.80366,0,0,1-7.63205-2.40052,1.01146,1.01146,0,0,0-.144-.048q-.22914-.1791-.48-.38408a1.62167,1.62167,0,0,0-.336-.19205,18.81877,18.81877,0,0,1-2.064-1.92041,18.06435,18.06435,0,0,1-1.824-2.3525,14.80473,14.80473,0,0,1-1.824-4.12888l.048-.048a18.01137,18.01137,0,0,1-.432-3.16868q-.0523-1.5024-.048-1.8724a10.77669,10.77669,0,0,0-1.344,5.76123L187.77731,34.68a14.18148,14.18148,0,0,1-.288-2.16046,14.63522,14.63522,0,0,1,.048-2.16046,9.56841,9.56841,0,0,1,.336-1.72837v-.096h.048v-.048q.01332.00187,0-.048a14.945,14.945,0,0,1,.624-1.63235,13.47778,13.47778,0,0,1,1.824-2.73659,1.93551,1.93551,0,0,0,.288-.28806l4.128-3.50475q6.70147-5.7905,14.0641-11.57047l3.36-2.54454a15.85715,15.85715,0,0,1,9.21606-2.35251,15.10507,15.10507,0,0,1,10.60807,4.94506,20.61612,20.61612,0,0,1,1.776,2.25648M185.3773,30.59914a17.94806,17.94806,0,0,0-.048,2.01642,17.14681,17.14681,0,0,0,.48,2.97664,14.06076,14.06076,0,0,0,1.344,3.2167v.048L141.505,66.60683q-.042-.12734-.096-.28807a6.85935,6.85935,0,0,1-.384-1.72837q-.01557-.49734,0-1.00822.05005-.19614.096-.43209a5.28976,5.28976,0,0,1,1.2-2.54453,6.33241,6.33241,0,0,1,1.152-.96021q.04707-.02437.048-.048l41.8563-28.99819M159.79312,67.231a17.11,17.11,0,0,1,.096,2.11245,13.10068,13.10068,0,0,1-.192,2.44852v.096q-.0947.732-.24,1.4403v-.048q-.06619.26351-.24.81617a.35458.35458,0,0,0-.048.144l-.096.24a1.86486,1.86486,0,0,1-.144.38408.1372.1372,0,0,1,0,.096L149.041,73.66433v-.33607a3.61889,3.61889,0,0,0,.192-.52811L159.79312,67.231m7.92005-4.17689q.10782.27175.192.5281a41.801,41.801,0,0,1,1.824,5.47318q.24618.96939.432,1.92041.13294.5628.24,1.15225h0q.16894.88144.384,2.92862.09073.64889.144,1.3923l-8.30405-1.05623.24-.76816q.13819-.41539.24-.86419a11.91841,11.91841,0,0,0,.288-1.68035.46414.46414,0,0,0,.048-.192,20.3906,20.3906,0,0,0,.144-2.73659,23.63237,23.63237,0,0,0-.384-3.7448l4.512-2.3525M144.097,55.18038l-4.8,3.31272q-.9735,1.31764-4.608,13.29883L121.24885,70.2556a5.23491,5.23491,0,0,0,.384-.72015,17.27267,17.27267,0,0,0,1.776-9.12194,15.36228,15.36228,0,0,0-3.312-8.25777,1.39047,1.39047,0,0,1,.432-.144h0L144.097,55.18038m-9.50407,29.9104h0q-.0208-.00057-.048-.048-.12862-.1326-.288-.28806l-.096-.096a22.51884,22.51884,0,0,0-2.304-2.01643q-.92645-.73852-1.968-1.44031a34.169,34.169,0,0,0-3.888-2.16046.7261.7261,0,0,0-.192-.096,46.19748,46.19748,0,0,0-10.60807-2.73658q-1.51221-.20929-3.168-.38408h-.048q-2.57364-.3374-5.472-.57613a.102.102,0,0,1-.096,0h-.048q-1.12613-.075-2.784-.192-1.36333-.08983-3.072-.192l.048-3.36072,78.33655,9.506.144,3.16867-4.704-.096a3.4286,3.4286,0,0,0-2.928,1.48832h0l-2.496,3.07265-34.32024-3.55275m34.03224,7.48959a34.02552,34.02552,0,0,1,4.368,1.53633,24.37988,24.37988,0,0,1,9.12006,6.57741l-.048-.048q4.8276,6.0491,3.888,15.84338l-49.87235-4.561q-.00993-1.48721-.048-3.02465l6.33605-6.14532a1.15936,1.15936,0,0,0,.384-.62412v-.19205a.19885.19885,0,0,0,0-.144.18574.18574,0,0,0,0-.144.54251.54251,0,0,0,0-.192,35.41479,35.41479,0,0,0-1.008-3.64878q-.16705-.58438-.384-1.20025a33.28928,33.28928,0,0,0-3.6-7.05752l30.86422,3.02465m-13.5361-45.08163-6.96,4.849-31.05622-4.2249a6.16931,6.16931,0,0,0-1.92.43209,6.09686,6.09686,0,0,0-2.352,1.82438,55.2211,55.2211,0,0,1,1.92,8.20976q.29475,1.91217.432,3.45675.1573,1.342.192,2.40051.13855,1.97949.096,4.705a2.91354,2.91354,0,0,1-.048.33607h0l-13.5841-1.72837h-.144q-.09112-1.881-.288-3.74479-.02382-.20406-.048-.43211-.15675-1.405-.384-2.8326-.14082-1.0868-.336-2.20847-.33881-1.88271-.768-3.7448-.16407-.66313-.336-1.34428a93.92785,93.92785,0,0,0-4.176-12.81874q-.08944-2.08264,2.304-1.96842l56.4964,8.16174q.51263.33177.96.67214m25.63218,40.7127h.192q.25162.003.48,0,18.08318.80888,28.6082,3.16868a19.64218,19.64218,0,0,1,5.376,2.73658,27.40122,27.40122,0,0,1,7.15206,7.87368,53.109,53.109,0,0,1,3.84,7.05751l-31.00822-2.97663a21.00049,21.00049,0,0,0-5.904-11.95456,26.78945,26.78945,0,0,0-8.20805-5.56919,4.79485,4.79485,0,0,1-.528-.24,1.69259,1.69259,0,0,1-.384-.144q.19257.03319.384.048m11.37608,34.66341a1.30371,1.30371,0,0,0,0-.33608q.12075-3.47343-.096-6.96148l26.73619,2.40051q.25406,2.2728.336,4.561.02868.34752.048.67215v.048q.02194.82723,0,1.63234l-8.592-.52811a.72875.72875,0,0,0-.48.144.70821.70821,0,0,0-.24.4321,2.82862,2.82862,0,0,1-.048.288v.048q-.0765,1.37241-.192,2.73658a.69388.69388,0,0,0,.192.52811.563.563,0,0,0,.432.24l8.88006.57613a84.7379,84.7379,0,0,1-1.632,13.5869.62516.62516,0,0,0-.096-.048l-9.55207-.52811a.75826.75826,0,0,0-.432.144.77765.77765,0,0,0-.288.33607q-.06788.37957-.144.72015h-.048q-.27019,1.17195-.576,2.30449a.75186.75186,0,0,0,0,.38409h0a.5848.5848,0,0,0,.24.33607.52239.52239,0,0,0,.384.144l9.50406.52811a73.85058,73.85058,0,0,1-4.224,12.24262q-.0647-.01575-.192-.048l-9.84007-.4321a.98512.98512,0,0,0-.432.048.96112.96112,0,0,0-.24.33607q-.12768.28693-.288.57612v.048a.70321.70321,0,0,0-.096.24h0a1.16176,1.16176,0,0,1-.144.24q-.43219.92834-.912,1.8724a.9102.9102,0,0,0-.048.4321.95045.95045,0,0,0,.24.38408.83657.83657,0,0,0,.432.192l9.45606.43209-.48.9602q-1.02563,1.9206-2.16,3.79282a51.53817,51.53817,0,0,1-4.56,6.33735.693.693,0,0,0-.432-.144l-9.69606-.144a.83312.83312,0,0,0-.336.048,1.94374,1.94374,0,0,0-.24.192q-.78581,1.06335-1.68,2.06444a.27254.27254,0,0,1-.048.096h-.048a8.08048,8.08048,0,0,1-.72.81617.87971.87971,0,0,0-.144.52812.57472.57472,0,0,0,.192.43209.60465.60465,0,0,0,.48.192l8.78406.144a53.28282,53.28282,0,0,1-7.92005,6.28934H165.02515l3.984-3.64877,4.08-4.36894a66.227,66.227,0,0,0,9.16806-14.067q.36563-.76367.72-1.53633a84.72977,84.72977,0,0,0,5.856-16.41951q.24357-.82893.432-1.68036a101.0518,101.0518,0,0,0,2.832-20.83644M136.801,96.13314q.36768.84448.672,1.68035.46725,1.16707.96,2.88062L99.7927,97.33339q-2.634-9.02969-7.96806-13.01078a14.59261,14.59261,0,0,0-3.552-1.96842q-2.32671.56955-5.088,1.48832-11.58983,3.88825-30.48021,13.971-3.06246,1.659-6.336,3.45674,2.45269-1.77712,4.848-3.45674A162.56533,162.56533,0,0,1,76.03253,83.50644Q80.904,81.343,85.5846,79.71362q2.44859-.80886,4.8-1.48831,2.16714.1581,4.272.28806,2.35.17948,4.656.33607,3.433.23256,6.768.43209a1.57483,1.57483,0,0,0,.384.048q.75677.05495,1.488.096,3.91276.282,7.20005.81617a48.83369,48.83369,0,0,1,8.064,1.8724q1.13682.406,2.112.81618,1.05882.63782,2.016,1.29627a33.67168,33.67168,0,0,1,2.736,2.25648q1.1145,1.0793,2.112,2.25648a24.77229,24.77229,0,0,1,1.536,2.06444,33.25111,33.25111,0,0,1,3.072,5.32915m-87.45661,32.647a28.05817,28.05817,0,0,0,1.2,8.49782q-3.729,2.49147-10.56008,7.05751-3.27716,2.26041-7.29605,4.99306-.56475-.87243-1.152-1.63234a14.29166,14.29166,0,0,0-4.032-3.60077L49.34435,128.7801m5.52-2.20847q-.00468-.81709,0-1.68036l3.072-2.16046q-.05588,1.82364,0,3.55276.07239,1.13763.192,2.20847l6.24.24a32.82608,32.82608,0,0,0,1.008,4.417l-6.432-.192q.32081,1.2327.72,2.40051l6.62405.192a24.70428,24.70428,0,0,0,1.488,2.97664,14.98451,14.98451,0,0,0,5.76,5.80924,9.20134,9.20134,0,0,0,1.056.52811q-5.10228,1.12412-8.208-.38408,4.75821,3.49556,11.04007,1.05622h.048a9.28417,9.28417,0,0,0,1.152-.62413,7.25618,7.25618,0,0,0,.816-.57612.13525.13525,0,0,0,.096-.048,19.23313,19.23313,0,0,0,4.512-4.753,31.657,31.657,0,0,0,5.568-16.99563.92815.92815,0,0,1,0-.096h0q.0658-1.12262.048-2.20847.01407-1.38611-.096-2.73658a27.20519,27.20519,0,0,0-3.696-12.24262q-.45245-.76647-.96-1.48832l4.032-2.88061q.2565.42384.48.81617a33.12723,33.12723,0,0,1,4.656,15.79538q.07856,1.42567.048,2.88061.01313,1.06524-.048,2.16046h0a41.66461,41.66461,0,0,1-2.784,13.29884,31.35417,31.35417,0,0,1-2.4,4.94506,17.587,17.587,0,0,1-1.056,1.63235,9.64744,9.64744,0,0,1-.624.9602,10.76951,10.76951,0,0,1-.768.96021q-5.86635,7.59574-13.44009,7.68164h-.096q-7.42655-.00995-12.48009-7.29756a3.81009,3.81009,0,0,1-.24-.38408q-.327-.44035-.672-.96021a32.9481,32.9481,0,0,1-4.512-14.45108q-.0782-1.15638-.144-2.35251M4.8,160.1308a.14572.14572,0,0,0,.048-.048l2.4-1.72837a24.59089,24.59089,0,0,0-1.104,6.0973q-.03711,1.32179,0,2.54455.04858.74622.096,1.44031l4.08.144a20.24361,20.24361,0,0,0,.672,2.88061l-4.224-.144q.24245.82536.528,1.58434l4.272.096a18.50525,18.50525,0,0,0,.96,1.92041,9.26794,9.26794,0,0,0,4.416,4.12888,8.07178,8.07178,0,0,1-5.328-.24,7.2425,7.2425,0,0,0,7.248.72015,6.02207,6.02207,0,0,0,.72-.43209,4.62734,4.62734,0,0,0,.624-.43209,12.109,12.109,0,0,0,2.928-3.07266,20.31286,20.31286,0,0,0,3.6-11.09037v-.048a19.08052,19.08052,0,0,0-2.4-11.13838,9.61822,9.61822,0,0,0-4.176-4.03286l2.88-2.01643a11.77874,11.77874,0,0,1,1.536,1.29628,1.11519,1.11519,0,0,0,.096.144,14.91371,14.91371,0,0,1,1.824,2.44852,22.92159,22.92159,0,0,1,3.024,13.49088,26.54437,26.54437,0,0,1-1.824,8.54583,18.22518,18.22518,0,0,1-1.536,3.16868,7.78494,7.78494,0,0,1-.672,1.05622,3.58307,3.58307,0,0,1-.432.62414q-3.94,5.54631-9.12006,5.56919a.10046.10046,0,0,1-.096,0q-4.77378.024-8.064-4.657-.26963-.42514-.576-.91219a21.34278,21.34278,0,0,1-2.928-9.314q-.0317-.731-.048-1.48832-.03056-1.2629.048-2.59256a32.62962,32.62962,0,0,1,.528-4.513m42.6243-10.08215a6.66106,6.66106,0,0,0,1.008.86418l-7.29605,3.60077-.48-3.02464,5.328-3.2647q.04952.02382.048.048l.096-.048a10.16614,10.16614,0,0,0,.768,1.24826l.528.57613m-7.96806,12.57868q.64726-.12378,1.392-.33607.32081-.003.624,0a5.16425,5.16425,0,0,1,3.936,1.77638l.048.048a8.341,8.341,0,0,1,1.056,1.48832,13.1457,13.1457,0,0,1,1.632,7.29756,7.94686,7.94686,0,0,1-.096.81617,15.62026,15.62026,0,0,1-1.248,5.1371,11.15178,11.15178,0,0,1-.96,1.92041,6.29141,6.29141,0,0,1-.48.67214,2.05563,2.05563,0,0,1-.24.33608q-.14383.23385-.288.43209a6.9421,6.9421,0,0,1-5.328,2.97663h-.048a5.64422,5.64422,0,0,1-4.8-2.8326.3835.3835,0,0,0-.096-.144q-.0855-.19824-.192-.43209a12.4138,12.4138,0,0,1-1.584-5.6172q-.00018-.42459,0-.9122.00245-.7361.048-1.53633.05082-.4139.096-.81617a17.98525,17.98525,0,0,1,.336-1.8724,15.08517,15.08517,0,0,1,2.496-5.42516,8.6072,8.6072,0,0,1,3.696-2.97664m13.7281,7.29756q.17287-1.16519.432-2.30449a18.64939,18.64939,0,0,1,3.264-6.5774,10.775,10.775,0,0,1,4.56-3.69679,16.20186,16.20186,0,0,0,1.728-.38408q.38045-.01839.72-.048a6.2688,6.2688,0,0,1,4.8,2.20848.26972.26972,0,0,1,.096.096,8.992,8.992,0,0,1,1.248,1.82439,15.703,15.703,0,0,1,1.776,8.88189q-.03544.53262-.096,1.05623a20.024,20.024,0,0,1-1.68,6.28934,15.80509,15.80509,0,0,1-1.248,2.40051q-.2655.39121-.576.76817a2.4035,2.4035,0,0,1-.336.43209,2.46778,2.46778,0,0,1-.384.4801q-2.97828,3.63378-6.57606,3.64878h-.048a6.6895,6.6895,0,0,1-5.80805-3.45674q-.0358-.08307-.096-.192-.13368-.20854-.288-.4801a15.13329,15.13329,0,0,1-1.776-6.86547q.0092-.54235,0-1.10423.05438-.93545.144-1.92041.07294-.52343.144-1.05623m47.56834-52.42719q.25781-4.9265.24-9.93813l32.30422,2.06444v9.65007l-9.21606-.57613a.708.708,0,0,0-.528.192.78378.78378,0,0,0-.288.48011l-.192,3.07265a.116.116,0,0,1,0,.096,1.00739,1.00739,0,0,0,.192.48011.752.752,0,0,0,.528.24005l9.36006.62413a114.75143,114.75143,0,0,1-1.44,14.019.10638.10638,0,0,1-.096,0l-9.12006-.52811a.92717.92717,0,0,0-.528.144.8047.8047,0,0,0-.24.43209l-.624,3.07266a.595.595,0,0,0,.048.38408.57311.57311,0,0,0,.24.33607.69573.69573,0,0,0,.384.192l9.07207.52812q-.23419,1.14812-.48,2.30449a73.67048,73.67048,0,0,1-3.456,11.57047q-.07425-.02007-.192-.048l-9.55207-.43209a.92017.92017,0,0,0-.432.096,1.36485,1.36485,0,0,0-.288.33607l-1.296,3.02465a.85991.85991,0,0,0-.048.4801.78079.78079,0,0,0,.72.57612l9.26407.48011a2.81417,2.81417,0,0,1-.24.4801q-1.40663,3.12253-3.12,6.14531a48.08062,48.08062,0,0,1-4.032,6.0973,1.00513,1.00513,0,0,0-.48-.144l-9.79207-.144a.66237.66237,0,0,0-.288.096.789.789,0,0,0-.288.192l-2.448,2.97664a.848.848,0,0,0-.144.52811.76844.76844,0,0,0,.24.52811.60723.60723,0,0,0,.48.192l8.83207.144a38.49834,38.49834,0,0,1-4.128,3.55275,40.78134,40.78134,0,0,1-6.576,3.93684H70.32049A56.55745,56.55745,0,0,0,84.67259,170.597a87.259,87.259,0,0,0,11.18408-23.381q.45207-1.4116.864-2.88061a110.72437,110.72437,0,0,0,3.744-21.79666,6.64863,6.64863,0,0,0,.048-.76816q.16445-2.10889.24-4.27291M55.34439,169.9729q-.04782.46-.096.9122-.08888.85236-.096,1.63235-.01574.47709,0,.91219l2.64.096a13.64659,13.64659,0,0,0,.288,1.8724l-2.688-.096q.12171.5176.24,1.00822l2.784.048a8.12718,8.12718,0,0,0,.576,1.24826,5.86078,5.86078,0,0,0,2.304,2.49654,1.5609,1.5609,0,0,0,.432.192,3.55287,3.55287,0,0,1-.48.096,4.80251,4.80251,0,0,1-2.976-.24,4.4796,4.4796,0,0,0,4.608.43209,2.19751,2.19751,0,0,0,.528-.28806,1.10225,1.10225,0,0,0,.336-.192.04253.04253,0,0,0,.048-.048,8.405,8.405,0,0,0,2.016-1.96842,14.09769,14.09769,0,0,0,2.736-7.20154,8.37365,8.37365,0,0,0,.048-.9122,11.33393,11.33393,0,0,0-1.248-6.28934,5.34724,5.34724,0,0,0-3.12-2.8326q-.36057-.08178-.768-.144-.22424-.01087-.48-.048-2.73676.04651-5.04,3.02465a15.14033,15.14033,0,0,0-1.296,2.16046,15.58538,15.58538,0,0,0-1.296,4.12888m-14.2081-4.609q-.16482-.021-.384-.048a5.17728,5.17728,0,0,0-4.032,2.44852,12.95872,12.95872,0,0,0-1.056,1.77638,12.69935,12.69935,0,0,0-.96,3.36072q-.04593.37752-.096.72015-.03282.70365-.048,1.34429.02307.39159.048.76816l2.16.048a9.21084,9.21084,0,0,0,.288,1.53633l-2.208-.048q.0898.41916.192.81618l2.256.048q.23063.54836.48,1.00821a5.2967,5.2967,0,0,0,1.92,2.06444q.20005.08271.384.144a2.33894,2.33894,0,0,1-.384.048,3.80219,3.80219,0,0,1-2.448-.192,3.7214,3.7214,0,0,0,3.792.38408,2.09653,2.09653,0,0,0,.384-.24,3.10556,3.10556,0,0,0,.336-.144.051.051,0,0,0,0-.048,6.608,6.608,0,0,0,1.584-1.63235,11.09562,11.09562,0,0,0,2.112-5.90526,3.6864,3.6864,0,0,0,.048-.72015,9.50984,9.50984,0,0,0-1.104-5.1371,4.60794,4.60794,0,0,0-2.64-2.30449,4.87708,4.87708,0,0,0-.624-.096m66.09646-102.0698a2.02642,2.02642,0,0,0-.432.33607,2.19874,2.19874,0,0,0-.24,2.20847,1.69858,1.69858,0,0,0,.336.4801.9089.9089,0,0,0,.144.144,1.24449,1.24449,0,0,0,.24.192,1.34686,1.34686,0,0,0,.816.192,1.43487,1.43487,0,0,0,1.2-.57613,1.6967,1.6967,0,0,0,.432-1.34428,1.85975,1.85975,0,0,0-.528-1.3443,1.45244,1.45244,0,0,0-1.2-.5281,1.5726,1.5726,0,0,0-.768.24m.624-10.51425q-.06768-.06732-.144-.144h0a1.69193,1.69193,0,0,0-1.104-.38407,1.53419,1.53419,0,0,0-1.008.43209.54628.54628,0,0,1-.144.144,2.05173,2.05173,0,0,0-.48,1.3443q.00019.06036,0,.096a1.94074,1.94074,0,0,0,.528,1.24827,1.54079,1.54079,0,0,0,1.248.52811.76463.76463,0,0,0,.24,0,1.41828,1.41828,0,0,0,.912-.57613,1.7465,1.7465,0,0,0,.48-1.34428,1.92891,1.92891,0,0,0-.528-1.34429m-2.784-9.79409a1.568,1.568,0,0,0-1.2-.57612,1.66981,1.66981,0,0,0-1.2.57612,2.14634,2.14634,0,0,0-.48,1.39229,2.04577,2.04577,0,0,0,.576,1.3443,1.52777,1.52777,0,0,0,1.2.52811,1.31557,1.31557,0,0,0,.48-.096,1.55949,1.55949,0,0,0,.72-.4801,1.75475,1.75475,0,0,0,.432-1.20026.35455.35455,0,0,0,0-.192,1.75061,1.75061,0,0,0-.528-1.29628M140.785,108.27972a1.81348,1.81348,0,0,0,.576,1.34429,1.9202,1.9202,0,0,0,3.264-1.34429,1.9,1.9,0,0,0-.576-1.34428,1.9315,1.9315,0,0,0-1.344-.57613,1.96883,1.96883,0,0,0-1.92,1.92041m29.85621,2.64057a1.77647,1.77647,0,0,0-.576-1.34428h.048a1.82408,1.82408,0,0,0-1.344-.52812,2.00246,2.00246,0,0,0-1.392.52812,1.915,1.915,0,0,0-.528,1.34428,1.775,1.775,0,0,0,.528,1.34429,1.91654,1.91654,0,0,0,1.392.57612,1.64872,1.64872,0,0,0,1.296-.57612h.048a1.68675,1.68675,0,0,0,.528-1.34429m-13.58409-2.64057h0a1.77557,1.77557,0,0,0-1.344-.5281,1.91539,1.91539,0,0,0-1.344.5281,2.0432,2.0432,0,0,0-.576,1.34429,1.87587,1.87587,0,0,0,.576,1.34429h0a1.90088,1.90088,0,0,0,1.344.57612,1.74859,1.74859,0,0,0,1.344-.57612h0a1.7471,1.7471,0,0,0,.576-1.34429,1.90038,1.90038,0,0,0-.576-1.34429m25.34418,3.88884a1.87259,1.87259,0,0,0-.576-1.34429h0a1.87377,1.87377,0,0,0-1.344-.57612,2.00893,2.00893,0,0,0-1.344.57612,1.87158,1.87158,0,0,0-.576,1.34429,1.78157,1.78157,0,0,0,.576,1.34429h0a1.87343,1.87343,0,0,0,1.344.57612,1.749,1.749,0,0,0,1.344-.57612h0a1.77012,1.77012,0,0,0,.576-1.34429m51.88836-94.24413a5.45673,5.45673,0,0,0-1.008-3.64878L214.7055,25.03a9.14239,9.14239,0,0,1-2.064-3.6968l13.7281-12.6747a6.2629,6.2629,0,0,1,3.024.67214q.25407.10428.48.19205a9.75071,9.75071,0,0,0-3.36-2.40051q-.3885-.1568-.816-.28807a13.041,13.041,0,0,0-3.408-.62414,12.13892,12.13892,0,0,0-12.6721,11.71451,12.87177,12.87177,0,0,0,.384,3.45673h0a11.86911,11.86911,0,0,0,1.488,3.45675q.04688.04594.048.048.04743.0482.048.048a13.12075,13.12075,0,0,0,1.392,1.72837v.048q.23194.25167.48.4801a12.41245,12.41245,0,0,0,2.832,2.11245,12.27056,12.27056,0,0,0,5.232,1.39229h.048a11.70972,11.70972,0,0,0,8.83206-3.21668,8.1587,8.1587,0,0,0,2.736-3.84082l-14.3521,4.2249a9.49933,9.49933,0,0,1-2.304-1.20026l17.80813-8.40179Q234.32264,18.45742,234.28964,17.92443Z"/><path class="a" d="M100.99271,107.55957q.0178,5.01164-.24,9.93813-.07557,2.164-.24,4.27291a6.64863,6.64863,0,0,1-.048.76816,110.72437,110.72437,0,0,1-3.744,21.79666q-.41195,1.469-.864,2.88061a87.259,87.259,0,0,1-11.18408,23.381,56.55745,56.55745,0,0,1-14.3521,14.83516h32.78423a40.78134,40.78134,0,0,0,6.576-3.93684,38.49834,38.49834,0,0,0,4.128-3.55275l-8.83207-.144a.60723.60723,0,0,1-.48-.192.76844.76844,0,0,1-.24-.52811.848.848,0,0,1,.144-.52811l2.448-2.97664a.789.789,0,0,1,.288-.192.66237.66237,0,0,1,.288-.096l9.79207.144a1.00513,1.00513,0,0,1,.48.144,48.08062,48.08062,0,0,0,4.032-6.0973q1.71339-3.02277,3.12-6.14531a2.81417,2.81417,0,0,0,.24-.4801l-9.26407-.48011a.78079.78079,0,0,1-.72-.57612.85991.85991,0,0,1,.048-.4801l1.296-3.02465a1.36485,1.36485,0,0,1,.288-.33607.92017.92017,0,0,1,.432-.096l9.55207.43209q.11775.02794.192.048a73.67048,73.67048,0,0,0,3.456-11.57047q.24582-1.15636.48-2.30449l-9.07207-.52812a.69573.69573,0,0,1-.384-.192.57311.57311,0,0,1-.24-.33607.595.595,0,0,1-.048-.38408l.624-3.07266a.8047.8047,0,0,1,.24-.43209.92717.92717,0,0,1,.528-.144l9.12006.52811a.10638.10638,0,0,0,.096,0,114.75143,114.75143,0,0,0,1.44-14.019l-9.36006-.62413a.752.752,0,0,1-.528-.24005,1.00739,1.00739,0,0,1-.192-.48011.116.116,0,0,0,0-.096l.192-3.07265a.78378.78378,0,0,1,.288-.48011.708.708,0,0,1,.528-.192l9.21606.57613V109.624l-32.30422-2.06444M53.61637,167.6204q-.25912,1.13931-.432,2.30449-.07107.5328-.144,1.05623-.08963.985-.144,1.92041.0092.56187,0,1.10423a15.13329,15.13329,0,0,0,1.776,6.86547q.15432.27156.288.4801.06019.109.096.192a6.6895,6.6895,0,0,0,5.80805,3.45674h.048q3.59778-.015,6.57606-3.64878a2.46778,2.46778,0,0,0,.384-.4801,2.4035,2.4035,0,0,0,.336-.43209q.3105-.377.576-.76817a15.80509,15.80509,0,0,0,1.248-2.40051,20.024,20.024,0,0,0,1.68-6.28934q.06057-.52362.096-1.05623a15.703,15.703,0,0,0-1.776-8.88189,8.992,8.992,0,0,0-1.248-1.82439.26972.26972,0,0,0-.096-.096,6.2688,6.2688,0,0,0-4.8-2.20848q-.33957.02964-.72.048a16.20186,16.20186,0,0,1-1.728.38408,10.775,10.775,0,0,0-4.56,3.69679,18.64939,18.64939,0,0,0-3.264,6.5774m1.632,3.2647q.04818-.45216.096-.9122a15.58538,15.58538,0,0,1,1.296-4.12888,15.14033,15.14033,0,0,1,1.296-2.16046q2.30328-2.97815,5.04-3.02465.25576.03714.48.048.40745.06227.768.144a5.34724,5.34724,0,0,1,3.12,2.8326,11.33393,11.33393,0,0,1,1.248,6.28934,8.37365,8.37365,0,0,1-.048.9122,14.09769,14.09769,0,0,1-2.736,7.20154,8.405,8.405,0,0,1-2.016,1.96842.04253.04253,0,0,1-.048.048,1.10225,1.10225,0,0,1-.336.192,2.19751,2.19751,0,0,1-.528.28806,4.4796,4.4796,0,0,1-4.608-.43209,4.80251,4.80251,0,0,0,2.976.24,3.55287,3.55287,0,0,0,.48-.096,1.5609,1.5609,0,0,1-.432-.192,5.86078,5.86078,0,0,1-2.304-2.49654,8.12718,8.12718,0,0,1-.576-1.24826l-2.784-.048q-.11832-.4906-.24-1.00822l2.688.096a13.64659,13.64659,0,0,1-.288-1.8724l-2.64-.096q-.01574-.43509,0-.91219.00714-.78.096-1.63235m-14.4001-8.59384q-.74477.2123-1.392.33607a8.6072,8.6072,0,0,0-3.696,2.97664,15.08517,15.08517,0,0,0-2.496,5.42516,17.98525,17.98525,0,0,0-.336,1.8724q-.04519.40227-.096.81617-.04557.80024-.048,1.53633-.00018.48761,0,.9122a12.4138,12.4138,0,0,0,1.584,5.6172q.1065.23385.192.43209a.3835.3835,0,0,1,.096.144,5.64422,5.64422,0,0,0,4.8,2.8326h.048a6.9421,6.9421,0,0,0,5.328-2.97663q.1442-.19824.288-.43209a2.05563,2.05563,0,0,0,.24-.33608,6.29141,6.29141,0,0,0,.48-.67214,11.15178,11.15178,0,0,0,.96-1.92041,15.62026,15.62026,0,0,0,1.248-5.1371,7.94686,7.94686,0,0,0,.096-.81617,13.1457,13.1457,0,0,0-1.632-7.29756,8.341,8.341,0,0,0-1.056-1.48832l-.048-.048a5.16425,5.16425,0,0,0-3.936-1.77638q-.3032-.003-.624,0m-.096,3.02465q.21919.027.384.048a4.87708,4.87708,0,0,1,.624.096,4.60794,4.60794,0,0,1,2.64,2.30449,9.50984,9.50984,0,0,1,1.104,5.1371,3.6864,3.6864,0,0,1-.048.72015,11.09562,11.09562,0,0,1-2.112,5.90526,6.608,6.608,0,0,1-1.584,1.63235.051.051,0,0,1,0,.048,3.10556,3.10556,0,0,1-.336.144,2.09653,2.09653,0,0,1-.384.24,3.7214,3.7214,0,0,1-3.792-.38408,3.80219,3.80219,0,0,0,2.448.192,2.33894,2.33894,0,0,0,.384-.048q-.18395-.06132-.384-.144a5.2967,5.2967,0,0,1-1.92-2.06444q-.24937-.45984-.48-1.00821l-2.256-.048q-.1022-.397-.192-.81618l2.208.048a9.21084,9.21084,0,0,1-.288-1.53633l-2.16-.048q-.02495-.37658-.048-.76816.01519-.64064.048-1.34429.05006-.34263.096-.72015a12.69935,12.69935,0,0,1,.96-3.36072,12.95872,12.95872,0,0,1,1.056-1.77638,5.17728,5.17728,0,0,1,4.032-2.44852m7.68006-14.40308a6.66106,6.66106,0,0,1-1.008-.86418l-.528-.57613a10.16614,10.16614,0,0,1-.768-1.24826l-.096.048q.0015-.0242-.048-.048l-5.328,3.2647.48,3.02464,7.29605-3.60077m-43.5843,9.17a.14572.14572,0,0,1-.048.048,32.62962,32.62962,0,0,0-.528,4.513q-.07855,1.32966-.048,2.59256.01633.75729.048,1.48832a21.34278,21.34278,0,0,0,2.928,9.314q.30638.487.576.91219,3.29028,4.681,8.064,4.657a.10046.10046,0,0,0,.096,0q5.1801-.02289,9.12006-5.56919a3.58307,3.58307,0,0,0,.432-.62414,7.78494,7.78494,0,0,0,.672-1.05622,18.22518,18.22518,0,0,0,1.536-3.16868,26.54437,26.54437,0,0,0,1.824-8.54583,22.92159,22.92159,0,0,0-3.024-13.49088,14.91371,14.91371,0,0,0-1.824-2.44852,1.11519,1.11519,0,0,1-.096-.144,11.77874,11.77874,0,0,0-1.536-1.29628l-2.88,2.01643a9.61822,9.61822,0,0,1,4.176,4.03286,19.08052,19.08052,0,0,1,2.4,11.13838v.048a20.31286,20.31286,0,0,1-3.6,11.09037,12.109,12.109,0,0,1-2.928,3.07266,4.62734,4.62734,0,0,1-.624.43209,6.02207,6.02207,0,0,1-.72.43209,7.2425,7.2425,0,0,1-7.248-.72015,8.07178,8.07178,0,0,0,5.328.24,9.26794,9.26794,0,0,1-4.416-4.12888,18.50525,18.50525,0,0,1-.96-1.92041l-4.272-.096q-.28559-.759-.528-1.58434l4.224.144a20.24361,20.24361,0,0,1-.672-2.88061l-4.08-.144q-.04743-.6941-.096-1.44031-.03711-1.22277,0-2.54455a24.59089,24.59089,0,0,1,1.104-6.0973l-2.4,1.72837m50.01635-35.19152q-.00468.86325,0,1.68036.0658,1.19613.144,2.35251a32.9481,32.9481,0,0,0,4.512,14.45108q.345.51985.672.96021a3.81009,3.81009,0,0,0,.24.38408q5.05353,7.28761,12.48009,7.29756h.096q7.57374-.08589,13.44009-7.68164a10.76951,10.76951,0,0,0,.768-.96021,9.64744,9.64744,0,0,0,.624-.9602,17.587,17.587,0,0,0,1.056-1.63235,31.35417,31.35417,0,0,0,2.4-4.94506,41.66461,41.66461,0,0,0,2.784-13.29884h0q.06113-1.09522.048-2.16046.03055-1.45493-.048-2.88061a33.12723,33.12723,0,0,0-4.656-15.79538q-.2235-.39232-.48-.81617l-4.032,2.88061q.50757.72185.96,1.48832a27.20519,27.20519,0,0,1,3.696,12.24262q.11006,1.35048.096,2.73658.01782,1.08586-.048,2.20847h0a.92815.92815,0,0,0,0,.096,31.657,31.657,0,0,1-5.568,16.99563,19.23313,19.23313,0,0,1-4.512,4.753.13525.13525,0,0,1-.096.048,7.25618,7.25618,0,0,1-.816.57612,9.28417,9.28417,0,0,1-1.152.62413h-.048q-6.28185,2.43933-11.04007-1.05622,3.10577,1.50819,8.20805.38408a9.20134,9.20134,0,0,1-1.056-.52811,14.98451,14.98451,0,0,1-5.76-5.80924,24.70428,24.70428,0,0,1-1.488-2.97664l-6.62405-.192q-.39921-1.16781-.72-2.40051l6.432.192a32.82608,32.82608,0,0,1-1.008-4.417l-6.24-.24q-.11963-1.07085-.192-2.20847-.05588-1.72912,0-3.55276l-3.072,2.16046m-4.32,12.38665a28.05817,28.05817,0,0,1-1.2-8.49782L27.50419,144.09538a14.29166,14.29166,0,0,1,4.032,3.60077q.58725.7599,1.152,1.63234,4.01889-2.73264,7.29605-4.99306,6.831-4.566,10.56008-7.05751M137.473,97.81349q-.3043-.83586-.672-1.68035a33.25111,33.25111,0,0,0-3.072-5.32915,24.77229,24.77229,0,0,0-1.536-2.06444q-.9975-1.17718-2.112-2.25648a33.67168,33.67168,0,0,0-2.736-2.25648q-.95719-.65845-2.016-1.29627-.9752-.41016-2.112-.81618a48.83369,48.83369,0,0,0-8.064-1.8724q-3.28728-.5341-7.20005-.81617-.73126-.04108-1.488-.096a1.57483,1.57483,0,0,1-.384-.048q-3.33509-.19955-6.768-.43209-2.30608-.15658-4.656-.33607-2.10489-.13-4.272-.28806-2.35145.67946-4.8,1.48831Q80.904,81.343,76.03253,83.50644A162.56533,162.56533,0,0,0,51.21636,97.81349q-2.39534,1.67961-4.848,3.45674,3.27357-1.79775,6.336-3.45674,18.89037-10.0827,30.48021-13.971,2.76134-.91875,5.088-1.48832a14.59261,14.59261,0,0,1,3.552,1.96842q5.334,3.98111,7.96806,13.01078l38.64027,3.36072q-.49275-1.71355-.96-2.88062m54.62438,24.72528a1.30371,1.30371,0,0,1,0,.33608,101.0518,101.0518,0,0,1-2.832,20.83644q-.18845.85143-.432,1.68036a84.72977,84.72977,0,0,1-5.856,16.41951q-.35439.77266-.72,1.53633a66.227,66.227,0,0,1-9.16806,14.067l-4.08,4.36894-3.984,3.64877h26.11219a53.28282,53.28282,0,0,0,7.92005-6.28934l-8.78406-.144a.60465.60465,0,0,1-.48-.192.57472.57472,0,0,1-.192-.43209.87971.87971,0,0,1,.144-.52812,8.08048,8.08048,0,0,0,.72-.81617h.048a.27254.27254,0,0,0,.048-.096q.89419-1.00109,1.68-2.06444a1.94374,1.94374,0,0,1,.24-.192.83312.83312,0,0,1,.336-.048l9.69606.144a.693.693,0,0,1,.432.144,51.53817,51.53817,0,0,0,4.56-6.33735q1.13439-1.87223,2.16-3.79282l.48-.9602-9.45606-.43209a.83657.83657,0,0,1-.432-.192.95045.95045,0,0,1-.24-.38408.9102.9102,0,0,1,.048-.4321q.47982-.94407.912-1.8724a1.16176,1.16176,0,0,0,.144-.24h0a.70321.70321,0,0,1,.096-.24v-.048q.1603-.28919.288-.57612a.96112.96112,0,0,1,.24-.33607.98512.98512,0,0,1,.432-.048l9.84007.4321q.12732.03225.192.048a73.85058,73.85058,0,0,0,4.224-12.24262l-9.50406-.52811a.52239.52239,0,0,1-.384-.144.5848.5848,0,0,1-.24-.33607h0a.75186.75186,0,0,1,0-.38409q.30582-1.13255.576-2.30449h.048q.07612-.34056.144-.72015a.77765.77765,0,0,1,.288-.33607.75826.75826,0,0,1,.432-.144l9.55207.52811a.62516.62516,0,0,1,.096.048,84.7379,84.7379,0,0,0,1.632-13.5869l-8.88006-.57613a.563.563,0,0,1-.432-.24.69388.69388,0,0,1-.192-.52811q.1155-1.36416.192-2.73658v-.048a2.82862,2.82862,0,0,0,.048-.288.70821.70821,0,0,1,.24-.4321.72875.72875,0,0,1,.48-.144l8.59205.52811q.02194-.8051,0-1.63234v-.048q-.01931-.32465-.048-.67215-.08195-2.28818-.336-4.561l-26.73619-2.40051q.21676,3.48805.096,6.96148M180.91327,88.21144h-.192q-.19143-.01482-.384-.048a1.69259,1.69259,0,0,0,.384.144,4.79485,4.79485,0,0,0,.528.24,26.78945,26.78945,0,0,1,8.20805,5.56919,21.00049,21.00049,0,0,1,5.904,11.95456l31.00822,2.97663a53.109,53.109,0,0,0-3.84-7.05751,27.40122,27.40122,0,0,0-7.15206-7.87368,19.64218,19.64218,0,0,0-5.376-2.73658q-10.525-2.35983-28.6082-3.16868-.22837.003-.48,0M148.129,52.34778l6.96-4.849q-.44737-.34038-.96-.67214l-56.4964-8.16174q-2.39344-.1142-2.304,1.96842A93.92785,93.92785,0,0,1,99.5047,53.452q.17193.68115.336,1.34428.42918,1.86208.768,3.7448.19519,1.12167.336,2.20847.22725,1.42756.384,2.8326.0242.22806.048.43211.19687,1.86376.288,3.74479h.144l13.5841,1.72837h0a2.91354,2.91354,0,0,0,.048-.33607q.04255-2.72553-.096-4.705-.03469-1.05848-.192-2.40051-.13725-1.5446-.432-3.45675a55.2211,55.2211,0,0,0-1.92-8.20976,6.09686,6.09686,0,0,1,2.352-1.82438,6.16931,6.16931,0,0,1,1.92-.43209l31.05622,4.2249m-44.25631-9.93812a1.568,1.568,0,0,1,1.2.57612,1.75061,1.75061,0,0,1,.528,1.29628.35455.35455,0,0,1,0,.192,1.75475,1.75475,0,0,1-.432,1.20026,1.55949,1.55949,0,0,1-.72.4801,1.31557,1.31557,0,0,1-.48.096,1.52777,1.52777,0,0,1-1.2-.52811,2.04577,2.04577,0,0,1-.576-1.3443,2.14634,2.14634,0,0,1,.48-1.39229,1.66981,1.66981,0,0,1,1.2-.57612m3.84,10.22618q.07632.07671.144.144a1.92891,1.92891,0,0,1,.528,1.34429,1.7465,1.7465,0,0,1-.48,1.34428,1.41828,1.41828,0,0,1-.912.57613.76463.76463,0,0,1-.24,0,1.54079,1.54079,0,0,1-1.248-.52811,1.94074,1.94074,0,0,1-.528-1.24827q.00019-.03565,0-.096a2.05173,2.05173,0,0,1,.48-1.3443.54628.54628,0,0,0,.144-.144,1.53419,1.53419,0,0,1,1.008-.43209,1.69193,1.69193,0,0,1,1.104.38407h0m-.912,10.99435a2.02642,2.02642,0,0,1,.432-.33607,1.5726,1.5726,0,0,1,.768-.24,1.45244,1.45244,0,0,1,1.2.5281,1.85975,1.85975,0,0,1,.528,1.3443,1.6967,1.6967,0,0,1-.432,1.34428,1.43487,1.43487,0,0,1-1.2.57613,1.34686,1.34686,0,0,1-.816-.192,1.24449,1.24449,0,0,1-.24-.192.9089.9089,0,0,1-.144-.144,1.69858,1.69858,0,0,1-.336-.4801,2.19874,2.19874,0,0,1,.24-2.20847M172.99321,94.1167a34.02552,34.02552,0,0,0-4.368-1.53633L137.761,89.55572a33.28928,33.28928,0,0,1,3.6,7.05752q.21695.61587.384,1.20025a35.41479,35.41479,0,0,1,1.008,3.64878.54251.54251,0,0,1,0,.192.18574.18574,0,0,1,0,.144.19885.19885,0,0,1,0,.144v.19205a1.15936,1.15936,0,0,1-.384.62412l-6.336,6.14532q.03807,1.53746.048,3.02465l49.87235,4.561q.93957-9.79428-3.888-15.84338l.048.048a24.37988,24.37988,0,0,0-9.12006-6.57741m8.83206,16.70757a1.87259,1.87259,0,0,1,.576,1.34429,1.77012,1.77012,0,0,1-.576,1.34429h0a1.749,1.749,0,0,1-1.344.57612,1.87343,1.87343,0,0,1-1.344-.57612h0a1.78157,1.78157,0,0,1-.576-1.34429,1.87158,1.87158,0,0,1,.576-1.34429,2.00893,2.00893,0,0,1,1.344-.57612,1.87377,1.87377,0,0,1,1.344.57612h0m-24.76817-2.54455h0a1.90038,1.90038,0,0,1,.576,1.34429,1.7471,1.7471,0,0,1-.576,1.34429h0a1.74859,1.74859,0,0,1-1.344.57612,1.90088,1.90088,0,0,1-1.344-.57612h0a1.87587,1.87587,0,0,1-.576-1.34429,2.0432,2.0432,0,0,1,.576-1.34429,1.91539,1.91539,0,0,1,1.344-.5281,1.77557,1.77557,0,0,1,1.344.5281m13.00809,1.29629a1.77647,1.77647,0,0,1,.576,1.34428,1.68675,1.68675,0,0,1-.528,1.34429h-.048a1.64872,1.64872,0,0,1-1.296.57612,1.91654,1.91654,0,0,1-1.392-.57612,1.775,1.775,0,0,1-.528-1.34429,1.915,1.915,0,0,1,.528-1.34428,2.00246,2.00246,0,0,1,1.392-.52812,1.82408,1.82408,0,0,1,1.344.52812h-.048m-28.7042.048a1.81348,1.81348,0,0,1-.576-1.34429,1.96883,1.96883,0,0,1,1.92-1.92041,1.9315,1.9315,0,0,1,1.344.57613,1.9,1.9,0,0,1,.576,1.34428,1.90083,1.90083,0,0,1-3.264,1.34429m-6.768-24.53323h0l34.32024,3.55275,2.496-3.07265h0a3.4286,3.4286,0,0,1,2.928-1.48832l4.704.096-.144-3.16867-78.33655-9.506-.048,3.36072q1.7087.10222,3.072.192,1.65788.117,2.784.192h.048a.102.102,0,0,0,.096,0q2.89839.23874,5.472.57613h.048q1.65583.17478,3.168.38408a46.19748,46.19748,0,0,1,10.60807,2.73658.7261.7261,0,0,1,.192.096,34.169,34.169,0,0,1,3.888,2.16046q1.04157.70179,1.968,1.44031a22.51884,22.51884,0,0,1,2.304,2.01643l.096.096q.15938.15548.288.28806.0272.04744.048.048m4.704-26.59768,4.8-3.31272-23.56817-3.16867h0a1.39047,1.39047,0,0,0-.432.144,15.36228,15.36228,0,0,1,3.312,8.25777,17.27267,17.27267,0,0,1-1.776,9.12194,5.23491,5.23491,0,0,1-.384.72015l13.44009,1.53633q3.63453-11.98117,4.608-13.29883m28.60821,5.08907q-.08419-.25636-.192-.5281l-4.512,2.3525a23.63237,23.63237,0,0,1,.384,3.7448,20.3906,20.3906,0,0,1-.144,2.73659.46414.46414,0,0,1-.048.192,11.91841,11.91841,0,0,1-.288,1.68035q-.10181.44879-.24.86419l-.24.76816,8.30405,1.05623q-.05325-.74341-.144-1.3923-.21507-2.04718-.384-2.92862h0q-.10706-.58944-.24-1.15225-.18582-.951-.432-1.92041a41.801,41.801,0,0,0-1.824-5.47318m-8.01606,5.76124a17.11,17.11,0,0,0-.096-2.11245L149.233,72.80015a3.61889,3.61889,0,0,1-.192.52811v.33607l9.88807,1.29628a.1372.1372,0,0,0,0-.096,1.86486,1.86486,0,0,0,.144-.38408l.096-.24a.35458.35458,0,0,1,.048-.144q.17382-.55267.24-.81617v.048q.1453-.70833.24-1.4403v-.096a13.10068,13.10068,0,0,0,.192-2.44852M185.3293,32.61556a17.94806,17.94806,0,0,1,.048-2.01642L143.521,59.59733q-.00093.02362-.048.048a6.33241,6.33241,0,0,0-1.152.96021,5.28976,5.28976,0,0,0-1.2,2.54453q-.04595.236-.096.43209-.01557.51087,0,1.00822a6.85935,6.85935,0,0,0,.384,1.72837q.054.16073.096.28807l45.64832-27.74994v-.048a14.06076,14.06076,0,0,1-1.344-3.2167,17.14681,17.14681,0,0,1-.48-2.97664M233.76164,10.963l.048.048a20.61612,20.61612,0,0,0-1.776-2.25648,15.10507,15.10507,0,0,0-10.60807-4.94506,15.85715,15.85715,0,0,0-9.21606,2.35251l-3.36,2.54454q-7.36262,5.78-14.0641,11.57047l-4.128,3.50475a1.93551,1.93551,0,0,1-.288.28806,13.47778,13.47778,0,0,0-1.824,2.73659,14.945,14.945,0,0,0-.624,1.63235q.01332.04989,0,.048v.048h-.048v.096a9.56841,9.56841,0,0,0-.336,1.72837,14.63522,14.63522,0,0,0-.048,2.16046,14.18148,14.18148,0,0,0,.288,2.16046l16.70412-11.47445a10.77669,10.77669,0,0,1,1.344-5.76123q-.00432.37.048,1.8724a18.01137,18.01137,0,0,0,.432,3.16868l-.048.048a14.80473,14.80473,0,0,0,1.824,4.12888,18.06435,18.06435,0,0,0,1.824,2.3525,18.81877,18.81877,0,0,0,2.064,1.92041,1.62167,1.62167,0,0,1,.336.19205q.25087.205.48.38408a1.01146,1.01146,0,0,1,.144.048,14.80366,14.80366,0,0,0,7.63205,2.40052,15.10187,15.10187,0,0,0,5.472-.67214q.04781-.01221.048-.048.04895.01011.048,0a14.71635,14.71635,0,0,0,5.28-3.21669,14.04007,14.04007,0,0,0,4.752-10.37022,14.54782,14.54782,0,0,0-2.4-8.68984m-.48,3.3127a5.45673,5.45673,0,0,1,1.008,3.64878q.033.533,0,.33607l-17.80813,8.40179a9.49933,9.49933,0,0,0,2.304,1.20026l14.3521-4.2249a8.1587,8.1587,0,0,1-2.736,3.84082,11.70972,11.70972,0,0,1-8.83206,3.21668h-.048a12.27056,12.27056,0,0,1-5.232-1.39229,12.41245,12.41245,0,0,1-2.832-2.11245q-.24805-.22842-.48-.4801v-.048a13.12075,13.12075,0,0,1-1.392-1.72837q-.00057.00019-.048-.048-.00112-.00207-.048-.048a11.86911,11.86911,0,0,1-1.488-3.45675h0a12.87177,12.87177,0,0,1-.384-3.45673,12.13892,12.13892,0,0,1,12.6721-11.71451,13.041,13.041,0,0,1,3.408.62414q.4275.1313.816.28807a9.75071,9.75071,0,0,1,3.36,2.40051q-.22595-.08778-.48-.19205a6.2629,6.2629,0,0,0-3.024-.67214l-13.7281,12.6747a9.14239,9.14239,0,0,0,2.064,3.6968Z"/></svg>
