<svg xmlns="http://www.w3.org/2000/svg" viewBox="0 0 24 24">
  <path
    d="M12 0a12 12 0 1 0 0 24 12 12 0 0 0 0-24ZM5.92 12.4l.05-.08L9.1 7.44a.1.1 0 0 1 .2.01c.51 1.17.96 2.63.75 3.53-.09.37-.33.88-.61 1.34a2.4 2.4 0 0 1-.12.2.1.1 0 0 1-.09.05h-3.2a.1.1 0 0 1-.1-.17zm13.91 1.68a.1.1 0 0 1-.06.1 3.9 3.9 0 0 0-1.42.97c-.87 1.22-1.54 2.97-3.04 2.97H9.05a4.02 4.02 0 0 1-4.01-4.03v-.07c0-.06.05-.11.1-.11h3.5c.06 0 .11.06.1.13-.02.23.03.46.13.67.2.42.64.68 1.1.68h1.73v-1.34H9.99a.11.11 0 0 1-.09-.18l.06-.09a13.43 13.43 0 0 0 1.05-1.85l.07-.16.1-.27a4.57 4.57 0 0 0 .06-.22 3.54 3.54 0 0 0 .06-1.11l-.03-.36a3.42 3.42 0 0 0-.05-.3 6.5 6.5 0 0 0-.1-.48l-.01-.06-.1-.31a11.82 11.82 0 0 0-.32-.98 5.21 5.21 0 0 0-.14-.35l-.21-.49a3.56 3.56 0 0 1-.1-.2 4.66 4.66 0 0 0-.1-.21l-.07-.15-.21-.39c-.03-.05.02-.12.07-.1l1.32.36h.01l.18.05.19.05.07.02v-.78c0-.38.3-.69.68-.69a.66.66 0 0 1 .47.2.69.69 0 0 1 .2.49v1.16l.15.04s.02 0 .03.02l.14.1c.05.04.1.1.17.14a10.35 10.35 0 0 1 .57.5 10.2 10.2 0 0 1 .88.92l.19.24c.08.1.16.2.23.32.04.05.08.1.1.16a4.96 4.96 0 0 1 .36.65c.09.2.16.4.2.6a.65.65 0 0 1 .03.13l.03.2a2.06 2.06 0 0 1-.11.87l-.1.25a3.6 3.6 0 0 1-.26.5l-.12.19-.12.18a3.89 3.89 0 0 1-.18.22l-.16.2a4.76 4.76 0 0 1-.4.45l-.16.16-.2.2-.14.13a.1.1 0 0 1-.08.03h-1.05v1.34h1.33c.3 0 .57-.1.8-.3a8 8 0 0 0 .82-.8.1.1 0 0 1 .05-.03l3.65-1.05a.1.1 0 0 1 .13.1z" />
</svg>
