<svg xmlns="http://www.w3.org/2000/svg" viewBox="0 0 24 24">
  <path
    d="M12.02 0a11.99 11.99 0 0 0-4.37 23.15c-.1-.95-.2-2.4.04-3.44l1.4-5.96s-.35-.72-.35-1.78c0-1.66.96-2.9 2.16-2.9 1.03 0 1.52.76 1.52 1.68 0 1.03-.65 2.57-1 4-.28 1.18.6 2.16 1.78 2.16 2.13 0 3.77-2.25 3.77-5.5 0-2.85-2.06-4.86-5-4.86a5.19 5.19 0 0 0-5.41 5.2c0 1.03.39 2.14.88 2.74.1.12.12.22.09.34-.1.38-.3 1.2-.33 1.37-.06.22-.18.27-.4.16-1.5-.69-2.44-2.88-2.44-4.64 0-3.78 2.75-7.26 7.92-7.26 4.16 0 7.4 2.97 7.4 6.93 0 4.13-2.61 7.46-6.24 7.46-1.21 0-2.35-.63-2.76-1.38l-.75 2.85c-.27 1.04-1 2.35-1.5 3.14A12 12 0 1 0 11.99.02l.04-.02z" />
</svg>
