<svg xmlns="http://www.w3.org/2000/svg" width="1000" height="1000"><path fill="#5d212a" d="M298 89c-18 0-32 16-44 28-29 31-52 68-70 106-6 14-11 29-18 43-2 4-7 4-9 7-1 3 2 6 5 6 11 1 10-10 13-17 10-19 18-39 27-58a315 315 0 0 1 89-107c3-2 9-2 12-5 15-21 14-58 39-72 12-7 27 6 39 3 6-2 5-10 9-14 4-5 15-5 21-7 7-1 14 1 21 2 35 3 66 15 94 37 10 7 19 21 31 27 4 2 11-3 16-1 12 4 22 14 34 19 13 4 29 5 41 13 24 17 30 59 44 82 4 6 12 8 17 12 8 6 16 14 23 22 13 14 31 35 36 54 2 4 4 9 3 13 0 3-4 6-3 9 2 9 13 18 17 26 16 30 29 59 21 93-6-13-8-29-14-42-9-20-24-36-37-53-8-10-16-25-29-30 3 25 22 45 35 65 3 5 14 29 17 13h2c1 9 8 15 11 23 1 5-2 9-1 14 3 12 10 22 12 34 1 7 2 16 1 23-1 5-4 12-2 17 5 9 14 19 21 27 17 22 40 53 44 82 2 17 0 35-8 51-5 9-13 17-17 27-4 11-1 26-4 38-4 17-15 32-18 49-1 6 2 13 2 19-4-4-6-9-11-10 0 20 13 41 20 60 14 40 31 81 38 123l10 40c1 4 3 13-1 16-6 6-26 2-34 2-35 3-71 0-107 0H363c-32 0-65 2-97 0-8 0-25 4-31-2-4-3-4-10-5-14l-8-35c-8-47-7-92-7-139-15-2-29-33-31-46-1-11 4-25 10-35 4-7 13-15 12-24 0-6-12-11-14-19-1-8-4-21-2-29 2-5 8-9 6-14-2-8-12-18-17-26-1-2-3-8-6-8-5 1-10 8-13 12-8 12-21 24-25 38-5-4-4-10-3-16 4-14 17-24 24-36 18-30 41-51 50-85 2-8 6-15 5-23-4-24-27-43-29-66 5 4 6 11 12 15 0-14-6-28-7-43 0-9 4-18 4-27-5 3-8 6-9 12l-3-9c-6 11-1 31-1 43h-3c-5-33-25-67-25-101 0-9 18-33 4-34-1 14-10 26-10 40 0 9 5 16 6 24 5 24 9 47 18 70 9 25 38 55 35 83-5 45-38 70-59 106-10 16-21 32-19 52 4 33 47 39 73 40-5 19-23 36-23 57 0 14 10 29 18 40 4 5 10 10 12 16 10 47 0 96 11 143 3 10 3 34 12 41 3 2 9 1 13 1h645c0-22-6-43-11-64-7-30-16-60-27-89l-17-48c-2-6-8-14-8-20s9-5 13-5c7-1 14-6 15-13-10 2-27 4-23-13 3-15 13-28 17-43 2-11-2-26 2-35 11-30 31-55 26-89-7-40-38-73-60-105-6-8-3-16-3-25 0-7-5-14-4-20 0-5 5-10 7-15 4-9 5-22 5-32-2-33-25-58-37-87-3-7-1-14-1-22 0-7-4-13-7-19-17-36-51-58-77-87-17-21-18-55-38-73-9-7-26-10-37-13l-73-29c-6-3-13-16-20-21-19-12-40-21-61-30-16-7-37-3-54-3-7 0-16-1-22 1s-9 9-15 11c-4 2-9-1-13-1-8-1-20 0-27 4-7 3-11 11-15 17-10 16-21 38-23 57z"/><path fill="#eb9fa5" d="M461 0v1-1m-73 1 1 1-1-1m75 0 3 1-3-1m-77 1c-5 5-9 9-16 9 7 2 14-3 16-9z"/><path fill="#ce5a6f" d="m387 2 1 1-1-1M157 272l-4 2-1 8-6-4c3 6 12 8 14 12 1 3-3 8-4 11-3 9-7 15-6 25 3 32 17 65 25 96h3c0-14-4-30 1-43l2 9 10-12c0 10-5 18-4 28 1 14 7 28 7 42-5-4-6-12-12-15 1 23 25 43 29 66 1 8-4 15-6 23-8 35-35 69-58 96-5 6-26 35-12 41l8-15c-4 3-6 8-9 11-2-10 6-20 11-28 11-15 25-28 34-43 8-13 15-33 31-38 0 8 2 21-2 28-10 18-37 23-45 44 2-2 7-9 10-8 3 0 5 6 6 8 4 6 17 20 17 27 0 4-5 7-6 11-2 9 0 22 2 31 2 7 15 13 14 19-1 10-10 17-15 26-11 23-8 42 7 62 5 7 8 16 17 16 0 36-2 71 1 107 2 18 9 36 9 54h2c-1-26-8-51-10-77-3-47 1-92 11-137-5 6-14 15-16 22l6-3-2 11-4-3c0 2 1 9-3 6-15-10 8-47 18-53l-3 9 5-1-1 9c11-15 18-31 32-44 16-15 41-24 61-32-9 14-28 22-42 29-7 3-17 8-20 16 11-3 19-10 29-14 22-10 40-12 54-36-4 0 3-20 3-24 6-27 5-52 5-80 9 30 3 67-5 96 4-1 24-14 23-9l8-4-2-2c6-6 12-11 20-14-8-32-31-61-39-94-2-9-5-31-14-35-3 9-4 13 0 22-4-5-7-7-13-7 4 6 11 20-2 18l3 7 9-1c0-2 4-15 8-9 4 9-9 12-14 11 7 13 8 40 8 55h-2c0-8-5-2-7-3 1 17 4 32 4 49 0 8 3 15-5 21-2-10 1-21-1-31-2 5 1 11-1 16-3 6-11-11-12-13l8 3-1-17h2l2 10c3-8-3-20-5-28-5-22-14-44-23-65-3-8-5-17-12-23 0 16-7 37-20 48 1-9 6-16 8-24 5-16 5-39-4-53-10 23-13 49-21 73-7 18-18 33-25 51 5-2 8-6 12-9-2 9-9 14-15 20-10 12-22 27-27 42-3-12 3-17 8-27l16-39c8-21 18-41 25-62 8-27 12-60 12-88 6 9 9 20 14 30 8 13 18 25 25 38 5 8 10 21 17 27-3-20-13-38-15-59 15 8 29 9 34 28 4-11-5-29-10-39-1-3-2-9-5-11-3-3-9 2-13 2-9-1-15-9-24-10 0 7-1 16 1 22 3 9 8 17 10 27-13-13-25-39-28-57 3 5 5 9 10 12-5-20-20-32-30-48-11-17-15-36-18-55-3 5-2 12-1 18 3 15 6 29 15 42 4 5 11 10 13 16 2 9-1 21-2 30-1 27-5 57-15 82-2 6-2 13-6 19 0-11 5-25 0-35h-2l-2 8c-6-6-4-14-4-21v-56c0-57-12-118-2-174 1-5 3-14 6-18 5-7 12-11 14-19-15 12-26 29-48 28l2-3h-3c23-23 52-41 72-67 4-6 5-14 8-20s8-12 9-19h2v5c4-3 4-10 4-15 1-7 5-16 7-23 8-27 16-59 34-80 4-6 8-16 11-23 1-3 3-8 6-6l4-6 3 2c5-3 23-4 25 4 1 4-2 10-3 14-2 10-4 19-4 29 0 30 7 60 11 89 1 12 3 39 14 47 0-10-4-21-6-31 13 21 27 41 44 60 5 5 12 7 17 13-23-5-41-24-66-26 16-4 32 10 47 13-5-5-12-6-17-11-7-6-11-21-14-30-3 9 7 22 10 31l-30-9 2 2c-3 3-1 9-4 8 8 19 22 29 34 45h-10c11 5 26 5 37 10l3-4c-8-5-14-13-18-21 11 8 31 13 44 16-2-4-6-7-7-11l-4-2v5c-22-7-38-12-50-33 20 7 38 21 59 27l-2-6 3 2 5-2c-21-8-29-26-40-44-9-15-19-30-19-48-7 2 1 16 2 21 9 22 25 39 34 60-6-2-11-5-16-9l8 3c-5-10-15-17-23-25-7-7-13-16-18-25-26-43-20-88-17-135 1-25 13-54 44-44-8 12 15 21 24 28 29 23 44 58 56 92-6-7-9-16-14-23-14-20-32-42-51-58-10-8-20-18-34-20-8-1-12 24-12 30-4 34-3 62 8 94 3-8-3-18-4-26l-3-57 3 4 5-4c0 13-8 33 9 33-5 1-15 2-7 8-9 6 0 37 3 47 12-3 27-11 37-1 8-2 13-1 20 1 5-7 15 1 22 1l-2-4 11 5c0-4-2-7-4-10 7 5 13 22 23 15-6-6 0-7 6-7l-1 6 12-3-2 3 3 1-3 2c4 2 9 2 14 2l-3 5c7 3 15 4 22 6l-6 1c9 8 27 1 32 15 2-7-2-17-4-24-4-18-8-35-15-52-2-7-5-17-12-20l8 25-11-14-1 3c-3-2-13-17-15-9-2-4-3-9-3-14 5 2 8 7 12 10-2-5-11-18-17-17-3 0-6 5-9 7 0-8 2-19 12-20-1-9-10-13-16-18-11-8-22-16-34-22-8-4-16-6-23-12 22 0 38 13 55 23 67 40 94 140 85 214h-3c0-19-6-38-7-57l-2 12-1-3c-3 12 4 37 8 48-14 6-28 15-43 20-4 1-11 5-15 4-2 0-3-4-5-5-2 13 0 15 13 14l-6 7c11-4 23-11 33-17-5-1-13 2-18 3 4-7 15-10 23-11l-2-3c6 0 19-2 21-8l-4 2c2-3 3-4 7-5l-2 10-3-2v17c6-8 6-19 7-28l1 6c5-1 11-2 14-6h-8l2 1c-2 1-5 1-6-1-2-4 1-10 2-14 2-8 1-15 1-23 7 10 12 24 14 36l6-1c-1-15-15-34-22-47-7-14-10-34-11-50 7 2 11 9 16 14 12 14 29 31 33 49 2 7-6 21-2 26-3 0-3 0-5-2-4 4 5 4 4 7 15-11 10-36 1-49s-17-28-27-40c-7-7-18-11-23-18-4-8-5-21-8-29-4-14-14-26-18-40 10 0 16 5 24 9 27 12 47 40 68 61 8 8 24 20 26 31l-8-3c2 11 15 15 23 21 16 12 30 28 46 41-6-14-22-28-34-37-6-4-13-6-17-12-3-4-3-9-5-14-10-20-20-49-35-65-11-11-31-11-45-16-12-5-22-15-35-19-5-2-11 2-16 1-11-5-21-21-31-28-32-23-74-42-114-38-6 1-18 2-22 7-5 4-3 12-10 14-12 2-26-9-38-3-15 7-26 35-31 50-2 6-4 18-10 22-4 4-12 5-17 9a327 327 0 0 0-101 144c-4 9-7 22-12 30-4 6-13 4-14-3M465 2l3 1-3-1z"/><path fill="#eb9fa5" d="m469 3 3 2-3-2m-82 164 8-4c0 21 19 33 23 52 3-4-3-11-6-15-7-12-15-27-15-41l7-1c-5-15-11-30-14-45-3-17 0-38 3-55 0-6 4-32 12-32 12 2 24 12 33 20 18 17 36 37 52 58 5 7 7 18 14 23-8-33-27-66-52-89-9-9-34-18-28-31-27-11-38 13-43 34-6 29-8 64-4 93 2 11 7 22 10 33z"/><path fill="#ce5a6f" d="M472 5v1-1z"/><path fill="#eb9fa5" d="M474 5v1-1zm4 2v1-1m6 2v1-1m-139 1 10 1-10-1z"/><path fill="#ce5a6f" d="M355 10c7 2 16 3 23 3-7-3-15-3-23-3m129 0c4 3 10 5 15 7-4-4-10-6-15-7z"/><path fill="#eb9fa5" d="M487 10v1-1m-148 2h4-4z"/><path fill="#ce5a6f" d="M341 12h11-11z"/><path fill="#eb9fa5" d="M460 16c5 6 12 7 19 10l25 16c4 2 11 10 13 2 12 5 24 14 32 25 1 2 9 15 4 15s-15-17-20-20v4c-10 1-12 11-12 20 3-1 7-7 10-7 4 0 8 7 10 9 9 10 14 23 24 32l-8-25c11 7 17 30 19 42 9 37 21 75 21 114h3c3-19 1-36 0-55-3 0-3-1-3-4l-4 1c-1-6-2-12 2-17l3 16c2-6-1-13-3-19-2-14-5-28-10-41-9-22-16-45-31-64-11-14-26-22-40-32a96 96 0 0 0-54-22m39 0 3 2-3-2m-169 1-1 2 1-2z"/><path fill="#ce5a6f" d="M502 18v1-1z"/><path fill="#eb9fa5" d="M508 20v1-1m-181 1-1 2 1-2m22 3-3-2-4 6-2-2c-19 30-33 59-44 93l-11 38c-2 6-1 12-5 18v-5h-2c-7 33-37 61-62 82-9 8-19 14-27 24h3l-2 2c17 8 38-16 48-27-5 13-16 20-19 35-4 17-3 37-3 55 0 41 4 83 4 124v54c0 7-2 16 4 20l2-8h2c4 11 0 23 0 35 4-5 4-13 6-19 11-25 13-56 15-83 1-9 5-23 1-31-2-7-10-13-14-19a77 77 0 0 1-13-55c4 12 4 24 9 36 6 16 17 27 26 41l6-3c-12-13-19-23-18-41 1-13 15-31-2-41l-3 36c-3-8-2-18-3-27-5-38 6-75 9-112h2c0 16-4 32-5 48-2 37 7 74 32 102 23 25 72 40 102 20 8-6 15-10 18-20-11 6-22 14-36 14-13 0-29-11-39-19-29-25-46-62-46-100 9 17 7 38 15 56 9 19 29 33 46 45 10 7 10 13 24 14l-38-33c14 7 30 11 45 6l17-8c2-4 4-8 4-12-16 4-31-3-45-9l16 4c-11-12-34-30-28-50-10-4-25-6-33-13 11 0 21-3 32-3 0-5-3-5-5-9-3-6-2-16-1-22 2 8-2 16 9 18 0-13 3-25 3-38-14 16-22 35-37 50 12-17 24-31 27-53l-1 3c-3-12 1-25 1-37-10 6-18 15-28 20 9-20 32-25 37-48 3 13-3 28-4 41v-11c-2 5-2 10-1 16l-1-3v11c8-4 8-15 9-23 2 6 1 11 2 17 7-3 12-4 19-4l2-23h2v11c7-4 4-20 4-27l1 5c3-8-1-15 10-18 0-31-12-62-11-94 0-11 2-21 4-31 1-4 5-10 3-14-2-7-21-7-25-3m160-2 4 2-4-2z"/><path fill="#ce5a6f" d="M544 50h1-1z"/><path fill="#eb9fa5" d="m310 50 1 1-1-1m235 0c2 3 3 3 7 3l-7-3m8 1 7 5c-2-3-3-5-7-5m-244 1 1 1-1-1z"/><path fill="#ce5a6f" d="M546 53h1-1m4 0 11 5c-3-4-6-6-11-5m-241 0 1 1-1-1m238 1 3 1-3-1zm20 5v1-1z"/><path fill="#eb9fa5" d="M305 61v3-3z"/><path fill="#5d212a" d="M394 67c0 33 5 63 11 95 14-4 24-8 39-8-8-10-27-2-37 1-2-11-12-39-3-47-6-6 2-7 7-7-3-1-7 0-9-3-5-4 0-24 0-31l-5 4-1-4h-2z"/><path fill="#eb9fa5" d="m303 68 1 1-1-1m285 1v1-1m-23 1c3 14 14 27 18 41 3 8 4 22 8 28 5 7 14 10 19 16 8 7 12 16 18 25 10 15 21 26 21 45 2-5 1-9 5-13 3 11 0 38-9 45 10 31 39 63 39 97h-2c-1-25-19-57-30-79-3-6-9-21-16-24-3-1-9 2-12 3 5 27 17 48 17 76h5c-7 4-6 16-7 24-3 19-10 46-32 49 21 9 35-17 43-32 2 4 2 8 2 12 5-4 4-13 4-19 0-17-1-33-4-49 19 37 35 79 35 121 5-2 5-9 6-14 2-14-1-32-4-46 10 2 14 18 17 26 10 25 19 50 26 76h2c13-22 14-50 15-75 0-8-5-25 0-31 4-6 11 11 12 13 9 15 18 35 20 52h4c0-5 3-11 7-4 3 6 0 16 9 18 0-32-19-66-37-92-5-7-9-21-18-24v8c-7-9-8-22-12-32-5-14-13-27-19-40 11 5 22 21 30 30 25 28 44 53 59 87 6-16-5-29-11-43-4-8-5-15-10-23s-7-17-12-26c-16-24-38-49-57-70l-29-29c-6-6-13-9-18-16 11 0 15 8 23 14 10 8 17 19 27 28 5 5 12 8 18 13 7 6 12 16 22 18-3-18-20-30-33-41-8-8-16-17-25-24-8-7-20-11-24-21l8 3c-1-11-19-24-26-31-24-25-54-70-92-70z"/><path fill="#ce5a6f" d="M588 70c4 3 8 5 13 6-4-3-8-5-13-6z"/><path fill="#eb9fa5" d="M591 70v1-1z"/><path fill="#ce5a6f" d="M302 72h1-1z"/><path fill="#eb9fa5" d="M597 73c3 2 5 3 8 3l-8-3m-296 1 1 1-1-1zm198 4c-3 6-1 18 0 24 4 15 10 31 12 46h2c1-19 3-58-14-70z"/><path fill="#ce5a6f" d="M609 78v1-1z"/><path fill="#eb9fa5" d="M611 78v1-1z"/><path fill="#ce5a6f" d="M613 79v1-1zm5 2v1-1z"/><path fill="#eb9fa5" d="M620 81v1-1z"/><path fill="#ce5a6f" d="M621 82v1-1z"/><path fill="#eb9fa5" d="M623 82v1-1m-325 2h1-1z"/><path fill="#ce5a6f" d="M624 83v1-1z"/><path fill="#eb9fa5" d="M626 83v1-1z"/><path fill="#ce5a6f" d="M626 84c2 2 4 2 7 3l-7-3z"/><path fill="#eb9fa5" d="M628 84c2 2 4 2 7 3-2-2-4-2-7-3m-331 2-2 2c2 0 2 0 2-2z"/><path fill="#ce5a6f" d="M635 87v1-1z"/><path fill="#eb9fa5" d="M637 87v1-1z"/><path fill="#5d212a" d="m535 88 2 14 1-3c6 3 9 9 15 12-1-9-10-20-18-23z"/><path fill="#ce5a6f" d="M638 88v1-1z"/><path fill="#eb9fa5" d="M640 88v1-1m-353 1 1 1-1-1zm356 0v1-1m-358 1 1 1-1-1zm369 3v1-1m-376 1-1 2 1-2z"/><path fill="#ce5a6f" d="m657 95 4 6c0-3-2-4-4-6m-381 1-2 3c2-1 2-1 2-3m73 0c-4 6-4 16-5 23-4 21-6 42-6 63h2c2-17 2-35 6-52 2-10 7-24 3-34z"/><path fill="#eb9fa5" d="m273 98-1 2 1-2m389 2 2 3-2-3m-392 1-2 3c2-1 2-1 2-3z"/><path fill="#ce5a6f" d="m662 102 3 8c0-3-1-6-3-8m-395 2-2 3c2-1 2-1 2-3z"/><path fill="#eb9fa5" d="m665 107 1 3-1-3m-403 1-6 7c3-2 5-4 6-7zm-84 159c15-1 29-14 40-24 15-12 30-24 40-41 6-10 8-21 13-32 4-11 11-21 11-33-8 2-16 15-21 22l-35 44c-5 6-7 14-13 19 1-9 8-18 13-25 11-16 21-33 33-49 3-5 17-20 15-27-2-4-10 5-11 6-12 8-18 20-29 29-9 8-13 19-18 30l-25 50c-5 10-12 20-13 31m494-148 1 1-1-1z"/><path fill="#ce5a6f" d="m250 121-2 3c2-1 2-1 2-3z"/><path fill="#5d212a" d="M561 125c1 7 5 15 11 19-1-6-5-17-11-19z"/><path fill="#eb9fa5" d="m675 125 1 1-1-1m-430 1-3 4 3-4m431 2 2 5c0-2 0-3-2-5zm-436 4-2 3c2-1 2-1 2-3zm440 4 1 1-1-1m-444 1-2 3c2-1 2-1 2-3z"/><path fill="#ce5a6f" d="m680 137 4 9c0-4-2-6-4-9z"/><path fill="#eb9fa5" d="m685 145 5 12c0-4-2-9-5-12m-456 1 1 1-1-1m262 1 4 9h5c-3-4-5-7-9-9z"/><path fill="#ce5a6f" d="M685 148h1-1m-458 1 1 1-1-1m459 1h1-1zm1 2h1-1m-462 0 1 1-1-1z"/><path fill="#eb9fa5" d="M421 198c8-15 9-35 28-39l-1 2c5-1 9-4 14-6-10-5-29-2-40 1-4 1-10 2-12 6-3 11 7 26 11 36m42-42c3-1 4-1 5-4-3 1-4 1-5 4m7-4 5 1-5-1m14 0c2 3 3 4 7 4l-7-4m110 0c1 15 6 29 8 44l1-4c11 6 38 21 38 34 6-5 1-16-2-22-7-14-19-28-30-40-4-5-8-11-15-12m-370 1-1 2 1-2z"/><path fill="#ce5a6f" d="M402 154h1-1m286 0h1-1m-261 0v1-1z"/><path fill="#eb9fa5" d="M478 154v1-1z"/><path fill="#5d212a" d="M520 155c-17-1-2 12 0 0z"/><path fill="#ce5a6f" d="M423 155v1-1m266 1h1-1m-467 0 1 1-1-1m197 0v1-1zm-3 1v1-1z"/><path fill="#eb9fa5" d="M493 157v1-1zm8 1 1 1-1-1m17 3 4 1v4l19 1-1 3 3-4-14-1c2-2 4-4 0-4l2-3-13 3zm-113 2h1-1m288-1 1 1-1-1m-476 1 1 1-1-1m288 0 1 1-1-1m7 0 1 1-1-1m-2 1 1 1-1-1m184 0 1 1-1-1zm-288 2h1-1zm-40 5c0 17-7 33-26 37v-25c10-2 17-10 26-12m-155 1 1 1-1-1m198 2h1-1m139-1v1-1m-338 1-1 2 1-2m341 0v1-1m2 1 3 1-3-1zm-167 1c0 2 0 2 2 3l-2-3m24 1h1-1m145 2 7-1c-3-2-5-2-7 1m-347-2 1 1-1-1z"/><path fill="#ce5a6f" d="m207 179 1 1-1-1m160 0c0 8 3 21-4 27v-11h-2l-2 23c-5 0-14 3-19 2v5c6-4 21-7 28-7l-6-1 1-6h2v4h3v-15c2 4 2 8 6 11 1-8-4-24-7-32z"/><path fill="#eb9fa5" d="M381 182h1-1m178-1c10 15 22 30 29 47 8-20-9-45-29-47z"/><path fill="#ce5a6f" d="M667 181c6 12 23 21 32 31 14 15 28 30 40 46 9 11 17 24 28 33 8-14 0-37-13-47l3 10c-9-3-14-12-21-18-11-10-24-18-34-30-8-10-21-25-35-25z"/><path fill="#5d212a" d="M574 183c5 9 11 15 13 25 5-12 0-23-13-25z"/><path fill="#eb9fa5" d="M382 185h1-1m-179 0 1 1-1-1m193 0 1 1-1-1zm318 0 10 10-10-10m-512 2 1 1-1-1m167 2h1-1m-168 0 1 1-1-1m192 0-2 4-1-3c-1 5 2 11 2 17-3-4-5-8-6-13-3 3-8 2-12 3-3 20 15 27 33 29-2-11-9-20-11-31l2 3c0-4-2-6-5-9m6 1 1 1-1-1zm-29 1v3-3z"/><path fill="#ce5a6f" d="M333 196c-2 6-3 13-3 19 2-5 5-14 3-19z"/><path fill="#eb9fa5" d="m405 199 1 1-1-1m15 0 1 1-1-1m184 0c5 17 20 32 23 49 5-1 8-3 8-9l6 3-25-32c-4-4-7-9-12-11zm-273 2h1-1z"/><path fill="#5d212a" d="M368 200v18c-6 0-9 0-11 6l8-1-1 21c2-5 3-29 12-16l3-10c-3-3-4-5-5-9-4-1-4-6-6-9z"/><path fill="#ce5a6f" d="M585 202h1-1z"/><path fill="#eb9fa5" d="m193 203 1 1-1-1m210 0-2 2c5 16 12 23 27 30-16-1-30-13-47-13 8 4 18 5 27 9 13 5 25 16 39 18-4-7-12-8-17-13-9-10-17-23-27-33m-211 2 1 1-1-1z"/><path fill="#ce5a6f" d="M338 205c-1 7-1 21-10 22-2 10-4 22-9 32-5 11-15 19-20 30 13-10 31-35 36-50l1 4c3-9 5-29 2-38z"/><path fill="#eb9fa5" d="m737 208 9 9-9-9m-547 1 1 1-1-1m-1 2 1 1-1-1m174 0-1 6h6c-1-2-3-3-3-6h-2zm244 3c0 12 1 23-1 35l15-1c-3-11-6-26-14-34m-420 1 1 1-1-1z"/><path fill="#ce5a6f" d="M329 216v4-4z"/><path fill="#eb9fa5" d="M429 216c0 7 5 14 9 20l-8-3c4 5 10 8 16 9-3-8-10-20-17-26m-243 1 1 1-1-1z"/><path fill="#ce5a6f" d="M186 219h1-1m560-1 2 2-2-2z"/><path fill="#5d212a" d="M338 219c-1 13-3 26-3 40l2-3 3 2 1-3c5 7 8 18 17 20-9 6-20 7-31 7l4 1c-1 7-6 7-12 7-1 4-4 6-6 10 11 2 21 6 25 17 8-1 14 0 22 3-2-7-9-15-14-21 11-5 20-13 33-15-9 6-22 26-3 25l-4-1c5-6 6-12 13-17-2 4-2 7-1 11l3-1-1 9h2c0-5 4-17 10-9 5 0 8-1 12-4 2 4 9 7 14 8 0-7-2-16-9-19 14-2 25 12 36 18-4-8-14-14-15-24-15 1-32-8-47-11-10-2-15 3-25-3l-1 8c-21-2-17-42-25-55z"/><path fill="#ce5a6f" d="M364 220v2h2v-2h-2z"/><path fill="#eb9fa5" d="m748 220 3 3-3-3m-385 54c-1-17 1-34 2-51-12 1-7 38-7 48-4-8-4-22-3-31 1-4 3-11 1-16-2-4-12-4-14 0-5 12 8 49 21 50m-179-52 1 1-1-1m242 0 2 2-2-2z"/><path fill="#ce5a6f" d="m367 229 7-6c-4 0-6 2-7 6zm-184-5 1 1-1-1m174 0c-2 15-4 32 0 47 5-13 1-33 2-47h-2z"/><path fill="#eb9fa5" d="m373 224-6 6c-4 10-6 39 7 41-7-14 2-32 1-47h-2m6 0c7 25 27 52 55 54-3-6-10-8-13-14-7-10-11-27-21-34-6-4-14-4-21-6m-197 1 1 1-1-1z"/><path fill="#ce5a6f" d="m752 225 1 1-1-1m-570 1-4 11c3-3 5-7 4-11zm182 2v6-6z"/><path fill="#eb9fa5" d="M648 229h1-1z"/><path fill="#ce5a6f" d="M341 229v8-8z"/><path fill="#eb9fa5" d="m589 229 1 5c1-2 0-3-1-5z"/><path fill="#5d212a" d="M721 231c6 14 27 40 42 44 0-16-12-21-23-31-6-5-11-12-19-13z"/><path fill="#eb9fa5" d="m179 232 1 1-1-1m225 0c9 21 29 28 50 33-1-16-36-30-50-33z"/><path fill="#ce5a6f" d="m758 233 4 7c0-3-2-5-4-7zm-11 2c1 3 2 4 5 6-1-3-3-4-5-6z"/><path fill="#eb9fa5" d="M177 237h1-1z"/><path fill="#ce5a6f" d="M365 236v4-4zm-23 1v4-4zm-166 3-3 8c2-3 3-5 3-8z"/><path fill="#eb9fa5" d="M592 241h1-1m-417 0 1 1-1-1z"/><path fill="#ce5a6f" d="M343 243h1-1m421-1 2 3-2-3z"/><path fill="#5d212a" d="M602 257v-6l-3 9c6-2 19-9 24-2 4-7 13-7 18-14-11-1-28 9-39 13z"/><path fill="#ce5a6f" d="m364 244-1 23c4-5 3-17 1-23zm-29 2h1-1z"/><path fill="#eb9fa5" d="m385 246 2 2-2-2m70 0 1 1-1-1m13 8 13-7c-5-1-11 2-13 7m171-8-1 3 1-3m-46 1c0 3 0 4 2 6l-2-6m10 1h1-1m165-1 1 1-1-1z"/><path fill="#ce5a6f" d="M247 248c-7 45-15 93-7 139 4-10 3-25 4-36 5 5 9 14 10 21l3-2 1 3c0-5-4-11-6-16-4-13-7-25-8-38-2-24 5-47 5-71h-2m98 1h1-1m291 0c16 32 42 68 46 105h2c0-26-20-59-32-82-4-7-7-22-16-23zm-302 2-1 26c-10-3-8-9-8-18-4 4-4 23 2 24l-2-3c2 0 10-1 7 1l8 1-2-8 10 1c-3-2-6-3-10-3 0-5 2-11-1-16l-1 3-2-8m12 1h1-1z"/><path fill="#5d212a" d="M446 251c6 9 21 20 32 22-2-6-11-17-17-20l2 6-17-8z"/><path fill="#eb9fa5" d="M604 252v1-1z"/><path fill="#5d212a" d="M604 253h6-6z"/><path fill="#eb9fa5" d="M465 254v2l2-2h-2z"/><path fill="#5d212a" d="m592 259 4-2c-4 6-15 8-21 8v2c7-1 15-5 22-3l2-10c-4 0-6 1-7 5z"/><path fill="#eb9fa5" d="M341 255c-2 5-3 11-3 17l10 2h-10v4c6 0 12 1 18-2-6-6-9-15-15-21zm260 7c17 1 23 24 21 38l-3-1 2 4h4c6-15 6-25 0-40-4-10-18-10-24-1m172-7 1 1-1-1m-604 2h1-1z"/><path fill="#ce5a6f" d="M608 257v1-1m16 0c0 8 5 14 6 22 3-6-3-17-6-22zm-22 1 3 1-3-1m172 0 5 13c1-5-1-10-5-13zm-425 2h1-1z"/><path fill="#eb9fa5" d="m427 262 13 4c-3-4-8-8-13-4zm43 0 5 5-5-5m-13 1 14 19h2c3-2 26-10 12-16l2 2c-3 1-8 4-11 4-7-1-12-8-19-9m114 0 1 1-1-1m21 0 1 1-1-1z"/><path fill="#ce5a6f" d="M166 265h1-1m185-1 1 1-1-1m236 0 3 1-3-1z"/><path fill="#eb9fa5" d="m383 265 6 1-6 1c4 3 8 1 12 0l-3 4 17 1c-4-8-18-7-26-7z"/><path fill="#ce5a6f" d="M584 265v1-1z"/><path fill="#eb9fa5" d="m554 279 18-4c-10 7-29 11-36 20-13-3-16 17-15 26l3-2 1 7c4-8 4-15 12-21l-2-3c8-2 15-6 23-7l-2 1c9 3 22-1 31-3-10-7-16 1-17-14 6-4 15-8 19-14-9 1-31 4-35 14m45-14 1 1-1-1m-434 2h1-1zm216-1v1-1z"/><path fill="#ce5a6f" d="M375 268c5 1 9-1 14-1-5-2-9 0-14 1m204-2 3 1-3-1z"/><path fill="#eb9fa5" d="M779 266c1 7 2 14 1 21 3-6 3-16-1-21m-634 6 6-2c-3-3-5-1-6 2z"/><path fill="#ce5a6f" d="M353 268h1-1m9-1v3-3m28 1 1 3 4-3h-5m93 2 4-2c-2-1-3 0-4 2m-318-2 1 1-1-1m184 0 1 1-1-1z"/><path fill="#eb9fa5" d="M598 269h1-1z"/><path fill="#5d212a" d="M152 282c5-18-14-8 0 0z"/><path fill="#eb9fa5" d="M381 269v1-1z"/><path fill="#ce5a6f" d="M383 269v1-1z"/><path fill="#eb9fa5" d="m531 269-1 16c2-4 3-12 1-16m26 1h4-4m36-1v3-3m-434 1 1 1-1-1zm396 1v1-1m42 1h1-1z"/><path fill="#ce5a6f" d="M715 271c4 14 13 27 19 40 3-8-7-18-8-26l6 3c-5-6-9-15-17-17m-570 1v5-5zm213 1v1-1zm422 0-1 17c2-5 3-12 1-17m-427 1 1 1-1-1m3 1v2l2-2h-2z"/><path fill="#5d212a" d="M593 275v6-6z"/><path fill="#ce5a6f" d="M354 277v1-1z"/><path fill="#5d212a" d="M631 278c-1 10-2 23-12 28l1-3c-7 4-15 1-14-8-26 0-70-1-70 34 7-8 7-5 15 0 1-8 9-15 9-3h4l-1-7c7 1 24 4 23 14 0 3-3 5-4 8h3l-1 4 3 1 3-2c-3-13 3-32-14-38 13-1 22 7 29 17 2 2 7 7 7 10-1 6-11 12-15 15 18 10 24-10 40-13-3 23-9 47-21 66 17-9 21-35 24-52 1-6-1-13 3-18-4-6-3-13-3-20-1-11-3-24-9-33z"/><path fill="#eb9fa5" d="M325 280c3 2 6 2 9 0h-9zm119 1 3-1c-5-2-15 2-8 7 5 4 10-2 5-6m150-1h1-1m-447 1h1-1z"/><path fill="#ce5a6f" d="M344 280v1-1m100 0c3 5 2 8-4 9l3 5c4-5 12-13 1-14m188 0 1 1-1-1m-40 1-1 6 3-6h-2z"/><path fill="#eb9fa5" d="M212 282c-6 5-15 5-20 11-5 7-3 19-4 27-2 18-4 37-4 55 7-7 9-19 13-28 4-11 12-21 15-32 3-10 2-23 2-33h-2m241 14c3-2 7-4 9-7 1-2-1-7-4-6-3 2-4 10-5 13z"/><path fill="#ce5a6f" d="m327 283 3 5 1-5h-4m49 1 1 2 2-2h-3z"/><path fill="#eb9fa5" d="M450 285h1-1zm-98 24c5-2 8-6 13-9v5c3-8 3-14 12-19-6-2-27 7-29 13-1 3 3 7 4 10zm64-24 5 6 3-1c-2-3-4-4-8-5z"/><path fill="#ce5a6f" d="M419 285v1-1m215 1h1-1m-213 0 1 1-1-1m16 0 1 1-1-1z"/><path fill="#eb9fa5" d="m540 286 5 1-5-1m50 0-1 6c2-2 2-3 1-6z"/><path fill="#ce5a6f" d="m373 287 1 1-1-1m45 0 1 1-1-1m4 0c6 8 17 17 25 23-3-12-11-22-25-23m16 0 1 1-1-1zm-74 1 1 1-1-1m8 0 1 1-1-1m67 0 1 1-1-1m-119 1 4 1-4-1m42 0 1 1-1-1m9 0 1 1-1-1m49 0 1 1-1-1m215 0 1 1-1-1m-275 1 1 1-1-1m10 0 1 1-1-1m364 0c2 3 4 5 7 6l-7-6z"/><path fill="#eb9fa5" d="M779 290v3-3z"/><path fill="#ce5a6f" d="m296 291-1 2h2l-1-2m2 2c6 7 18 8 21-2l-21 2m71-2 1 1-1-1m13 2 3-1-3 1m39-1h1-1m167-1-3 2 3 2v-4m179 0 3 4-3-4m-614 1 1 1-1-1m204 0 1 1-1-1z"/><path fill="#eb9fa5" d="m383 292 1 1-1-1M171 399h2c5-20 2-42 4-63 2-14 8-29 8-43-6 0-15-1-20 2-22 13-8 48-4 66 3 13 4 26 10 38z"/><path fill="#ce5a6f" d="M275 293c0 50 36 123 94 118-4-6-13-10-19-14v5l10 5c-14 3-15-8-25-14-19-12-40-30-48-52-4-14-4-36-12-48z"/><path fill="#eb9fa5" d="M378 310h-7v2c7 0 14 0 15-8-7-1-4-6-3-11-7 4-8 10-5 17m51-17 1 1-1-1m169 1h4-4m-446 0 1 1-1-1zm270 0v3-3z"/><path fill="#ce5a6f" d="M581 294v1-1z"/><path fill="#eb9fa5" d="M591 294v1-1z"/><path fill="#ce5a6f" d="m600 294 6 1-1 6 1-4c7 0 10 3 15 7-3-9-13-10-21-10zm-448 1 1 1-1-1m144 0c-4 3-6 5-8 10 3-3 8-6 8-10m86 0c-2 6-1 8 5 10v-4l-3 1-2-7m153 9 23-8c-6-2-20 3-23 8m38-9 1 1-1-1zm64 1h1-1m143-1c2 8 8 16 12 23 0-8-7-18-12-23m-430 1 1 1-1-1m16 1h1-1zm26 0 1 1-1-1m19 2c-3-6-4 3-8 3-1 0-1-4-4-2-4 3 3 13 7 10s1-12 5-11m151-2 3 1-3-1z"/><path fill="#eb9fa5" d="M606 297c2 17 20 2 5 0h-5z"/><path fill="#ce5a6f" d="m627 297 1 1-1-1m4 0c-4 8-9 13-18 13 8 14 20-4 20-13h-2m7 0v4-4m103 0c2 4 5 7 9 10-2-4-5-8-9-10m30 0 3 4-3-4zm-348 2h1-1zm138-1-2 3c2-1 2-1 2-3m-215 1 1 1-1-1z"/><path fill="#eb9fa5" d="M397 299v9c-4 7-13 3-16 10l40-2c-4-2-9-1-13-1 3-2 5-3 9-3-4-1-7 0-10-4-7 2-8-4-10-9z"/><path fill="#ce5a6f" d="M150 301h1-1m166-1 1 1-1-1z"/><path fill="#eb9fa5" d="m409 300-1 5c1-2 2-3 1-5m40 0 1 1-1-1z"/><path fill="#ce5a6f" d="m412 301 2 4 5-2c-2-2-4-2-7-2zm213 0 1 1-1-1m149 0c10 30 31 54 31 87-4-6-4-14-8-20-9-18-20-33-34-48-4-4-7-10-13-13 5 11 15 17 21 27 16 25 26 47 34 76 4-6 4-16 4-23 0-23-10-44-20-63-4-8-8-18-15-23m-452 1v1-1m26 0 1 1-1-1m27 0-3 5 4 1-1-6m13 0 1 1-1-1z"/><path fill="#eb9fa5" d="M416 302v3h4l-4-3z"/><path fill="#5d212a" d="M415 304h1-1z"/><path fill="#ce5a6f" d="M424 303c-5 6-12 7-16 12h22l-9-6h5l-2-6m25 0 1 1-1-1m101 0 1 1-1-1m89 0v5-5m-312 1 1 1-1-1m22 0 1 1-1-1z"/><path fill="#eb9fa5" d="m622 304-3 1h4l-1-1zm-201 2h1-1m4 0h1-1m21-1v3-3z"/><path fill="#ce5a6f" d="m546 305 1 1-1-1m30 0 3 2c-1-2-1-2-3-2m35 0v1-1zm-280 1c-7 12 10 34 19 43 4 4 15 10 14 12 7 0 19 4 24-2-19 7-55-20-45-42h-5c-1-5-3-8-7-11z"/><path fill="#eb9fa5" d="M366 307h1-1zm213-1c4 6 7 10 9 17 4 1 4 4 4 8l-1-3c-2 6-1 14 4 18-2-8-1-17-1-25h8c-5-10-12-13-23-15z"/><path fill="#ce5a6f" d="m581 306 3 1-3-1m33 0 3 1-3-1m-466 2h1-1m203-1 1 1-1-1m191 0-2 3c2-1 2-1 2-3m13 0 4 1-3 1c2 1 3 0 4-2h-5zm-188 2c2 5 4 10 4 15l23-6h-13c2-4 5-5 10-5l-6-4c-4 3-9 3-14 3v-2h7c-3-2-7-1-11-1z"/><path fill="#eb9fa5" d="m421 311 4-3-4 3m5-3 3 6c0-3-1-4-3-6z"/><path fill="#ce5a6f" d="M520 308c-7 11-8 29 4 37-3-7-7-14-7-22 0-5 4-10 3-15m30 3h4c-1-2-3-1 0-2-2 0-3 0-4 2z"/><path fill="#eb9fa5" d="M552 309h7-7m-405 0 1 1-1-1m272 0 1 1-1-1z"/><path fill="#5d212a" d="M423 313h6c-2-4-5-4-6 0z"/><path fill="#ce5a6f" d="m147 310-1 4 1-4m206 0 3 3-3-3m184 1-5 6 6-3-1-3m46 0 1 1-1-1m152 0c1 10 5 23 10 32l1-8c10 6 18 24 24 34 1-6-4-12-7-17l-22-29c-3-4-3-9-6-12m-138 1 1 1-1-1z"/><path fill="#eb9fa5" d="M145 313v3-3m212 0c3 5 5 10 12 7l-6-1 2-3c-2-1-2 0-1-2l-7-1m12 1h1-1m166-1 1 1-1-1z"/><path fill="#ce5a6f" d="m598 313 4 6c-1-3-1-4-4-6m42 0v16c2-5 2-11 0-16z"/><path fill="#eb9fa5" d="m791 313 2 5c0-2 0-3-2-5m-256 2 3 1v-2l-3 1z"/><path fill="#ce5a6f" d="M432 315v2h2l-2-2m220 0 2 18c2-6 2-13-2-18m-507 2h1-1m199-1 6 1-6-1m15 0 1 1-1-1z"/><path fill="#eb9fa5" d="m427 316 5 1-5-1m-82 19c2-3 9-9 9-12 1-6-9-8-12-4-2 3 2 12 3 16z"/><path fill="#ce5a6f" d="M352 317c3 6 15 15 16 3-5 2-10-2-16-3z"/><path fill="#eb9fa5" d="m530 319 3-1c-2-1-2-1-3 1z"/><path fill="#ce5a6f" d="m586 317 1 1-1-1m48 0-10 6c3 5 7 6 13 6l-3-12z"/><path fill="#5d212a" d="m369 318-1 7c3-2 3-4 3-7h-2z"/><path fill="#eb9fa5" d="M514 318v12-12z"/><path fill="#ce5a6f" d="M794 318c1 9 9 16 11 25 2-7-7-19-11-25m-650 1v3-3z"/><path fill="#eb9fa5" d="M517 319v8-8z"/><path fill="#ce5a6f" d="M560 319v3-3m3 0 1 6c8-3 11 1 9 9 11-11 1-14-10-15m39 0v3-3z"/><path fill="#eb9fa5" d="M378 321v1-1m160 6 8-1c-2-5-6-3-8 1m14-6 1 1-1-1z"/><path fill="#ce5a6f" d="M749 321c3 12 15 28 25 35 0-11-14-32-25-35m-214 1v5-5m5 0 1 1-1-1z"/><path fill="#eb9fa5" d="M559 322v5-5m-6 9c0 3-2 3-5 3-1-3-8-4-11-4 8 5 16 3 25 5l18 6-6-4 1-4-2 1c6-19-13-3-20-3m50-9 1 1-1-1z"/><path fill="#ce5a6f" d="m604 322 6 14c5-4-2-11-6-14z"/><path fill="#eb9fa5" d="M143 323v11-11m230 0v1-1z"/><path fill="#ce5a6f" d="m539 323 1 1-1-1m12 0v8c5 0 9 0 12-5l-11 2-1-5z"/><path fill="#eb9fa5" d="M357 326h12-12m43-1c-5 7-7 16-14 22 4-6 6-11 6-18-3 0-5 1-7-1-6 6-12 22 0 25l-3 5c14 1 28-17 34-28-6 3-9 10-15 11l8-14-10 7c0-3 2-6 1-9m179 0 4 1-4-1m10 0 1 1-1-1z"/><path fill="#5d212a" d="m655 325 1 54 4-1c0-14 4-41-5-53z"/><path fill="#ce5a6f" d="M589 327h1-1z"/><path fill="#eb9fa5" d="M535 327v3-3z"/><path fill="#ce5a6f" d="m537 327-1 3c2-1 2-1 1-3m11 0 1 1-1-1zm109 1h1-1zm1 1 2 49c-2-1-2-1-3 1l-1-7c-1 4-1 8-4 11 0-4 0-8-2-12-8 10-14 24-25 31-8 4-16 0-23 6 6 2 13 2 15 8 3-7 10-8 17-11-3 2-8 4-9 7-2 11 13 30 16 41l-13-28c-1-2-3-9-6-7-8 6-2 18-6 25l2 7c5 2 7 10 10 15l23 41c-13-13-21-33-30-49-6 6-10 13-19 14-13 26-21 53-33 79 2-13 11-26 15-39 1-3 4-12 2-15-3-3-17 14-20 16-5 6-17 12-20 20s-5 44 10 42c7-1 15-13 20-18-3 4-8 8-8 13 13-9 22-22 36-29 5-3 18-3 22-8 5-7 2-23 2-32h2v24c0 3-3 8 0 10 2 2 8 1 11 1l-4 1c8 3 18 2 26 3 14 2 29 7 41 14 48 27 74 83 90 133 3 9 2 19 5 28 2 4 6 7 8 12 2 7-3 16-2 24 4 22 14 45 22 65 3 7 4 20 10 25-5-28-26-54-27-83 5 2 7 7 11 10l-2-18c3-17 14-32 18-49 3-13 0-27 4-39 10-24 28-40 26-69-5-48-43-78-65-118-3-5 0-11 1-16 1-8 0-17-1-25-2-11-9-21-11-32-2-6 2-10 0-16-3-8-10-13-11-22h-2c-1 4-3 5-6 7 12 26 29 52 29 81-5-2-16-35-16-14h-4c-1-17-11-38-20-53-1-2-8-18-12-13-5 6 0 24 0 32-2 26-4 50-15 75h-2c-5-27-16-52-26-77-3-8-7-24-17-25 2 14 6 32 3 46-1 5 0 11-5 14 0-31-8-56-20-84-3-8-5-16-9-23m-72 2h1-1m57-1 3 1-3-1z"/><path fill="#eb9fa5" d="M801 331h1-1z"/><path fill="#ce5a6f" d="M590 331v7-7z"/><path fill="#eb9fa5" d="m586 332-1 5c1-2 2-3 1-5z"/><path fill="#ce5a6f" d="M640 332v10-10m-496 1v3-3z"/><path fill="#eb9fa5" d="M367 333v1-1m152 0c2 12 12 22 12 34l-1-5-4 18c2 0 2 0 2 2 3-1 6-2 9-5 18-16-6-32-18-44z"/><path fill="#ce5a6f" d="m548 333 3 1-3-1m-189 1-1 4 3-4h-2z"/><path fill="#eb9fa5" d="M361 335h1-1z"/><path fill="#ce5a6f" d="m367 334 5 5-5-5m190 0c9 5 20 7 29 13 5 3 9 8 15 5l-1 4c3-1 3-2 5-4-3-2-5-3-8-3l2-1-10-8c-1 2-1 2 1 3l-3 3-3-1 1-4-11-6 6 6c-8-3-15-7-23-7z"/><path fill="#eb9fa5" d="M609 334v3-3z"/><path fill="#ce5a6f" d="M618 346c1 5-2 8-4 12l7-4c-1 5-2 9-1 14h-5l10 1-2 18c9-12 13-37 14-52-8 1-12 7-19 11z"/><path fill="#eb9fa5" d="M144 337h1-1z"/><path fill="#ce5a6f" d="M655 336v5-5m-510 1v3-3z"/><path fill="#eb9fa5" d="M359 338v1-1zm159 1 1 1-1-1m89 0-4 5 4-5m-461 2 1 6c1-2 0-4-1-6z"/><path fill="#ce5a6f" d="m147 341 6 31c2-7-2-25-6-31zm509 2v21c2-6 2-15 0-21z"/><path fill="#eb9fa5" d="m351 346 1 1-1-1m245 0 4 1-4-1m212 0 1 4-1-4m-204 7 2 3h-5c2 3 5 5 4 9 4-3 7-8 9-12 4 0 5-3 6-6-6 1-10 5-16 6m-456-5v4-4z"/><path fill="#ce5a6f" d="M809 351h1-1m-466 0c3 3 8 5 12 6-3-4-8-5-12-6m183 0 4 16c2-5-1-12-4-16z"/><path fill="#eb9fa5" d="m810 351 1 5c1-2 0-3-1-5m-210 1-4 2 4 2v-4zm-451 1v4-4z"/><path fill="#ce5a6f" d="M638 353v3-3m172 1h1-1z"/><path fill="#eb9fa5" d="M619 354c-2 3-3 3-6 3 2 4 5 0 6 4l2-7h-2m-256 1 1 1-1-1z"/><path fill="#5d212a" d="m664 355-1 33c2-5 2-12 3-18 3 4 4 10 8 13 0-8-4-22-10-28m-309 1c3 3 6 4 10 4l-10-4z"/><path fill="#eb9fa5" d="M594 356c-3 8-8 13-11 21 7-4 12-14 14-21h-3z"/><path fill="#ce5a6f" d="M811 356c1 4 1 7 4 10l-4-10z"/><path fill="#eb9fa5" d="m813 358 3 12c1-4-1-8-3-12z"/><path fill="#ce5a6f" d="M637 359v3-3z"/><path fill="#eb9fa5" d="M150 361h1-1m1 2v4-4m467 2c0 2 0 2 2 3l-2-3z"/><path fill="#ce5a6f" d="M636 366h1-1m179 1 1 7c1-3 0-5-1-7m-286 1c-3 6-5 12-6 19 3-4 7-14 6-19m106 1h1-1z"/><path fill="#5d212a" d="M612 369c4 5 8 4 13 1-4-2-9-1-13-1m-357 1c-2 3-6 5-6 9-2 7 5 2 6-1h2c4 11 14 19 22 26l-3 6c2 0 8 2 9-1 0-4-7-9-9-11-7-8-14-18-19-28h-2z"/><path fill="#eb9fa5" d="m619 379-1-5c-2 5 0 12 0 18 7-3 6-15 7-21-5 1-6 3-6 8z"/><path fill="#ce5a6f" d="M634 371v3-3z"/><path fill="#eb9fa5" d="M153 372v3-3z"/><path fill="#ce5a6f" d="M382 372c-19 17-39 10-60 3 4 5 11 9 16 13l-5-6c9 6 48 6 49-10zm-228 1v3-3m462 0 2 6 1-6h-3z"/><path fill="#eb9fa5" d="M525 376h1-1z"/><path fill="#ce5a6f" d="M633 376h1-1m184-1v5-5z"/><path fill="#eb9fa5" d="m154 376 1 9c1-3 0-6-1-9z"/><path fill="#ce5a6f" d="M155 377c0 7 2 15 4 22 2-6-1-17-4-22z"/><path fill="#eb9fa5" d="m818 377-1 27c3-7 4-20 1-27z"/><path fill="#ce5a6f" d="M256 378v1-1z"/><path fill="#eb9fa5" d="M339 385c7 17 19 7 32 5l-4-1 12-11c-14 5-25 7-40 7z"/><path fill="#ce5a6f" d="M247 379c0 24-1 53 30 59-7-5-41-25-23-37-4-7-5-9-3-17l-4-5z"/><path fill="#eb9fa5" d="M254 401c-8 3-2 17 1 22 4-3 3-7 6-11s13-5 18-7c-10-3-28-9-7-6-3-4-11-18-16-19-11-1-5 18-2 21zm269-19h1-1z"/><path fill="#5d212a" d="M333 382c5 7 11 15 18 19-2-7-12-16-18-19z"/><path fill="#eb9fa5" d="M156 386v3-3z"/><path fill="#ce5a6f" d="m628 387 1 1-1-1m-360 1 1 1-1-1m72 0 1 1-1-1m282 0c-2 4-4 6-4 10 3-3 6-6 4-10z"/><path fill="#eb9fa5" d="M655 389c-4 5-12 10-15 16-10 23 12 55 16 78 41-4 9-57 9-80-6 5-10 20-13 27 0-14 5-27 5-41h-2zm-498 4 2 9c1-3 0-6-2-9zm195 5 1 1-1-1m239 0c3 6 8 10 14 8l-14-8z"/><path fill="#ce5a6f" d="M816 398v8-8m-539 1 1 1-1-1m-117 1v3-3m118 0 1 1-1-1zm338 1v1-1m-336 1 1 1-1-1m435 0c1 12 8 23 11 35 2 9 1 19 5 28 3-5 1-10 0-16-2-12-2-42-16-47z"/><path fill="#eb9fa5" d="M160 403c1 12 9 34 18 43-4-12-10-33-18-43z"/><path fill="#5d212a" d="M751 403c0 15 5 13 13 23 5 6 7 14 12 20 7-15-10-40-25-43z"/><path fill="#ce5a6f" d="M162 404v3-3z"/><path fill="#5d212a" d="M468 557c25 22 50-7 71-19l3 29c2 6 7 10 4 16 4-2 7-5 9-9-12-6-16-32-8-43 4-7 13-11 19-17 2-3 15-19 19-18 2 1 1 6 1 8l-8 23c-3 8-8 15-10 23 15-14 17-40 23-58 5-14 15-28 22-42 4-9 3-15 5-24 1-2 2-8 5-8s4 6 5 8l12 27c4-17-27-35-6-47-4 0-13 2-15 6-11 18-9 43-21 62-17 26-43 43-66 62-11 9-25 22-39 25-8 1-17-4-25-4z"/><path fill="#ce5a6f" d="M163 407v3-3zm111 6c5-2 7-1 12 1v-4l9 9c23-1 27 31 32 48l-6-5c4 5 7 10 12 14-2-18-10-35-16-51 13 5 20 16 24 29 2 7 2 17 8 22 0-15 1-31-5-45 15 0 37-7 44-21-23 15-42 21-70 13-10-4-35-22-44-10m541-4h1-1z"/><path fill="#eb9fa5" d="M606 409v1-1m-320 1v4c-8-4-22 2-17 13 3 6 11 8 15 13l-8-2c3 2 8 6 9 1 5 3 10 3 15 4l-2-2c16-4 2-14-8-14 7-8 4-11-4-17m323 0 4 1-4-1m206 0v3-3z"/><path fill="#ce5a6f" d="m164 411 2 9c1-3 0-6-2-9z"/><path fill="#eb9fa5" d="M614 411c-4 4-15 7-16 11-2 4 10 7 11 12 1 13-12 32-18 42-20 28-57 43-75 72 36-21 78-56 92-96 2-8 13-35 6-41z"/><path fill="#ce5a6f" d="M814 411v3-3z"/><path fill="#eb9fa5" d="M814 415h1-1m-431 0-2 3c2-1 2-1 2-3z"/><path fill="#ce5a6f" d="M813 415c-3 8-10 14-6 23 1-7 7-16 6-23m-197 2v3-3z"/><path fill="#5d212a" d="M708 417v14c8-3 7-10 0-14m-412 1c2 8 9 13 12 20 10-3-7-18-12-20z"/><path fill="#eb9fa5" d="M299 418c4 7 12 18 19 22 0-12-8-19-19-22m514 0-2 6c2-2 2-3 2-6m-435 1 1 1-1-1z"/><path fill="#ce5a6f" d="m296 420-6 7c5 0 10-1 6-7m-129 2h1-1z"/><path fill="#eb9fa5" d="m344 431 2 11c11-7 32-8 40-20-15 0-27 9-42 9zm411-8c0 17-7 32-13 47-1 4-5 7-6 12s2 10 2 15v38c8-9 4-32 4-43 9 7 7 21 8 32 2 13 3 27 2 40 0 8-4 15-1 23 2 8 9 13 14 19 11-12 29-30 33-47 3-12-1-30-4-41-2-6-3-20-9-23-5-3-17 1-23 0v-2c14-4 24-13 24-28-11 3-28 18-37 3 10-1 26-10 24-22-1-3-5-6-6-10-3-5-6-11-12-13zm-438 2c8 27 16 52 21 79 20-19 4-72-21-79z"/><path fill="#ce5a6f" d="M614 425v3-3m-309 1 1 1-1-1z"/><path fill="#eb9fa5" d="M528 427c-1 6-7 6-12 5-13-1-26-4-39-4l1 3 42 6c4-5 16 3 23 0-6-3-8-9-15-10m280 0-2 8 2-8m-390 3 22 1c-4-2-19-4-22-1z"/><path fill="#ce5a6f" d="M171 429v3-3m247 6 4-5c-4 0-4 2-4 5z"/><path fill="#eb9fa5" d="M446 429c5 2 12 1 18 1-5-2-12-1-18-1z"/><path fill="#ce5a6f" d="M440 430c10 4 28 3 39 0-11-4-28 0-39 0m173-1v3-3z"/><path fill="#5d212a" d="M433 444c-3-9 8-11 15-12-3-1-27-2-29 0-3 6 10 13 14 12z"/><path fill="#ce5a6f" d="M425 431v1-1m8 0 3 1-3-1zm-261 1 3 8c0-3-1-5-3-8z"/><path fill="#eb9fa5" d="m445 432-1 10c3-3 4-6 6-10h-5m-179 1v1-1z"/><path fill="#ce5a6f" d="m440 433 5 3c-1-3-2-3-5-3m-134 1c-1 4-4 6-8 7 5 1 11-2 8-7zm214 0c1 6 6 5 11 4-3-3-6-4-11-4m92 1h1-1m-299 1h1-1z"/><path fill="#eb9fa5" d="m548 435-6 8c3-2 6-4 6-8z"/><path fill="#5d212a" d="M528 438c4 8-2 16-9 21 12 1 23-15 29-23-7 0-13 3-20 2z"/><path fill="#eb9fa5" d="M309 438v1-1m112 0 5 5-5-5z"/><path fill="#ce5a6f" d="M533 438v1-1m78 0v3-3z"/><path fill="#eb9fa5" d="M808 439h1-1z"/><path fill="#ce5a6f" d="M285 439c2 6 8 5 13 4l-13-4z"/><path fill="#eb9fa5" d="M523 439c2 10-6 23-17 25-19 2-37-5-55-9 5-7 0-10-1-2-2 0-3 0-3 2-5-2-10-6-16-6 3 7 13 14 19 19 25 16 58 17 79-5 6-6 12-10 13-19-8 7-14 13-24 17 4-5 20-21 5-22z"/><path fill="#ce5a6f" d="M536 439v1-1m-360 1 1 4-1-4m354 0v4-4m278 0v3-3m-377 1 2 3-4 1c11 10 14 4 2-4m179 2h1-1z"/><path fill="#eb9fa5" d="M809 443h1-1m-522 0 1 1-1-1m32 1h1-1m115-1 1 1-1-1z"/><path fill="#ce5a6f" d="m541 443 1 1-1-1m-363 1c3 12 12 23 17 35 2-9-11-28-17-35z"/><path fill="#5d212a" d="m264 444 15 33c2-6 0-13 0-19 8 1 14 8 22 10 4 0 11-4 14-2 4 2 5 9 6 12 6 13 13 28 8 43 6-1 8 2 11 6 0-4-2-6-3-10 0-4 3-8 4-12 10 6 12 28 15 39 9 31 26 60 38 90-8 2-16 7-20 15 7-2 14-12 20-12a381 381 0 0 0 20 37c4-14-16-41-23-54-13-26-21-54-31-81-7-18-16-32-13-52 9 9 17 20 30 22-11-13-25-18-30-35-4 10-6 23-9 34-4-16-2-31-15-44-8-8-15 2-24 0-13-4-22-16-35-20z"/><path fill="#eb9fa5" d="M347 445h1-1m256 27c10-5 15-17 15-28-6 3-13 21-15 28z"/><path fill="#ce5a6f" d="M809 445h1-1z"/><path fill="#eb9fa5" d="m268 445 1 1-1-1m169 0 3 2c-1-2-1-2-3-2z"/><path fill="#ce5a6f" d="M609 447h1-1z"/><path fill="#eb9fa5" d="M810 447v15c2-4 2-11 0-15z"/><path fill="#5d212a" d="M781 487c9-2 16-22 15-31-1-2-6-11-8-6-3 6 1 16-2 23l-5 14zm-162-38-11 21c5-4 9-7 12-13 10 14 16 39 31 49-5-13-14-25-21-37-3-6-6-15-11-20z"/><path fill="#eb9fa5" d="M262 450c2 16 14 48 28 57-2-20-16-42-28-57zm56 0v5l-6-3 2 8c5 0 9 4 13 7-1-7-3-12-9-17m124 0 2 2-2-2zm-94 1v7-7zm119 1v2l5 1c-1-3-2-3-5-3z"/><path fill="#eb9fa5" d="m181 452 8 17c1-6-5-13-8-17m75 0c0 36-6 76-20 109l-33 78c-4 11-9 16-9 29 11-13 17-28 28-41 6-7 14-12 15-21-5 2-8 6-12 9 15-28 26-54 35-84 4-13 10-26 10-40 10 14 10 36 5 52-2 9-7 16-8 25 14-8 20-33 20-48 10 12 14 29 19 44 10 26 19 51 24 78 1 9-2 18 0 26 8-4 5-12 5-20 0-17-3-33-4-50 4 0 6-1 7 3h2c0-15-1-38-6-52l-8-11c12 2 8-12 2-17 12-19-19-28-31-33 1 21 11 39 15 59-7-9-12-20-18-30l-25-38c-4-9-6-20-13-27z"/><path fill="#ce5a6f" d="M444 452c0 2 1 3 3 3l-3-3z"/><path fill="#eb9fa5" d="M502 452c3 3 7 4 11 5-3-3-7-4-11-5z"/><path fill="#ce5a6f" d="M524 458v1-1m81 0v3-3m4 1h1-1m5 0h1-1m-325 0 1 1-1-1m26 0 3 1-3-1m203 0v2h2l-2-2m3 0 1 1-1-1m288 0v5-5z"/><path fill="#eb9fa5" d="M298 463v1-1zm511 1v6-6zm-618 7 2 3-2-3m289 5c4-11 16 3 0 0m242 84c-2-19-13-38-18-57-2-8-3-23-9-30-2-2-5-1-7 1-6 3-25 6-29 12-2 5 9 17 12 21 13 19 27 47 51 53m88-88 1 1-1-1z"/><path fill="#ce5a6f" d="M277 474h1-1m321-1 1 1-1-1m187 2h1-1z"/><path fill="#eb9fa5" d="M194 477h1-1m154-1v3-3z"/><path fill="#ce5a6f" d="m326 478 8 33c4-10 1-26-8-33m7 1h1-1z"/><path fill="#eb9fa5" d="m196 479 1 7c1-3 0-5-1-7z"/><path fill="#ce5a6f" d="M348 479v4-4m246 0 1 1-1-1m-397 1v3-3m137 0v7-7z"/><path fill="#eb9fa5" d="M349 480c2 13 20 22 29 30-12-4-22-13-30-23-6 14 1 24 7 37 7 20 16 41 21 62 3-5 0-10 0-15-1-13-4-26-4-39 11 4 20 13 30 19l58 40c13 9 28 21 43 26 11 3 30-19 36-27 3-3 7-7 8-11s-4-10-5-14c-3-8-2-17-3-26-16 5-29 23-45 26-7 2-15-2-21-5-18-6-35-16-52-24 10 1 19 10 29 11-2-8-19-11-26-15-18-10-36-22-52-35-8-6-14-14-23-17zm468 2 3 3-3-3m12 66 1-8c7 4 8 12 9 19 4 19-5 48-19 62 0-11 7-21 9-32 3-13 2-27 2-40-5 13-1 31-6 46-3 12-9 28-18 37-5 6-14 10-18 16-4 5 0 18 4 21 7 7 23-8 28-12 21-16 47-32 43-64-6 4-9 14-12 21-5 10-14 22-25 26 0-7 8-15 12-21 8-10 20-29 20-42 0-29-24-51-39-72-3-4-15-30-21-19-4 7 5 13 9 18 9 14 20 26 21 44z"/><path fill="#ce5a6f" d="m198 484 2 9c1-3 0-6-2-9m151 0 1 1-1-1m241 0 1 1-1-1m-245 1v3-3m5 0 1 1-1-1m1 1 1 1-1-1m469 0 1 1-1-1z"/><path fill="#eb9fa5" d="M198 488h1-1z"/><path fill="#5d212a" d="M607 492c3 2 5 2 8-1l-8 1zm183 2c1 6 2 14 6 18 4 6 11 7 15 15 10 20 10 40 8 62h-2c-2-18-8-38-14-55-5 14 5 38 9 52 0 3 3 18 8 14 5-3 6-17 8-22 6-24-4-46-18-65-5-7-12-16-20-19z"/><path fill="#eb9fa5" d="M201 496h1-1z"/><path fill="#ce5a6f" d="M336 497h1-1m25-1 1 1-1-1m-159 1 1 1-1-1m140 0 1 1-1-1m22 1 1 1-1-1m465 0 1 1-1-1m-488 1 1 1-1-1m24 0 1 1-1-1z"/><path fill="#5d212a" d="M628 500c0 9 3 25-3 32-3 4-10 4-14 5-8 2-15 7-22 11 6 1 13-5 19-7 11-3 22-4 33-5-3-1-9 0-11-3-4-4 0-27 0-33h-2z"/><path fill="#ce5a6f" d="M337 501v7-7m24 0 1 1-1-1m213 0 1 1-1-1m-229 1v3-3m24 0 1 1-1-1m204 0 1 1-1-1z"/><path fill="#5d212a" d="M663 502c3 12 11 24 17 35 2-8-10-30-17-35z"/><path fill="#ce5a6f" d="M202 503v3-3m137 0 1 1-1-1m233 0 1 1-1-1zm-226 4h1-1m28-1 1 1-1-1m194 0 1 1-1-1m267 0 1 1-1-1m-268 1 1 1-1-1z"/><path fill="#eb9fa5" d="M616 513h1-1m6-1v3-3z"/><path fill="#ce5a6f" d="m200 513-2 11c3-3 3-7 2-11m360 0 1 1-1-1z"/><path fill="#eb9fa5" d="M674 517c1 12 8 26 20 27-3-10-12-20-20-27m-476 2h1-1zm647 1 1 1-1-1m-648 1v3-3m605 1c0 12 6 26 9 38 2-7-2-18-3-25l7 6c1-8-5-18-13-19m44 0 2 2-2-2z"/><path fill="#ce5a6f" d="M354 524h1-1m40-1c4 4 9 5 14 6-4-4-8-6-14-6m152 1 1 1-1-1m263 1h1-1z"/><path fill="#eb9fa5" d="M196 526h1-1z"/><path fill="#ce5a6f" d="M355 527h1-1m455 0h1-1m-268 0 1 1-1-1m-1 1 1 1-1-1m270 1h1-1zm-616 1h1-1m345-1 1 1-1-1z"/><path fill="#eb9fa5" d="M194 532h1-1z"/><path fill="#ce5a6f" d="M357 533h1-1m179-1 1 1-1-1m316 0c3 11 11 22 15 32 1-10-9-25-15-32m-658 2h1-1m341-1 1 1-1-1m278 1h1-1z"/><path fill="#eb9fa5" d="m853 533 1 1-1-1m-660 2h1-1m153-1-2 7c2-2 3-4 2-7z"/><path fill="#ce5a6f" d="M421 535c11 11 34 20 48 24 0-3 2-2 4-2-14-8-37-19-52-22m111 0 1 1-1-1m282 1h1-1zm-621 0-2 7c2-2 3-4 2-7z"/><path fill="#eb9fa5" d="M338 536v3-3zm229 34c-10 16-26 34-30 52l1-2c2 9-4 25-6 34l-1-10c-10 26-5 58-9 85-5 27-23 51-8 78 8 16 14 26 28 37 6 5 8 10 16 10 1 4 4 7 7 10-20-2 12 21 19 24l-8-9c11 0 20 2 22 15-4-2-8-5-13-6 21 27 36 49 39 84l3-1c0 5 3 9 2 14 3 2 3 5 5 8l-4 1 5 2-5 1c10 4 25 1 36 1l-5-1 1-4c-8-5-13-22-19-31-8-13-11-27-17-41-11-23-26-49-29-74-10-4-16-33-20-43-25-52-22-108-20-164l-2 1c2-14 9-27 13-40 3-10 4-20 11-29 8-10 22-16 29-25 9 1 17-5 26-6 13-1 27 1 40 1-23-10-61-7-82 6-8 5-16 20-25 22z"/><path fill="#5d212a" d="M338 540v4h-8v2c7 1 11 2 15-5l-7-1z"/><path fill="#eb9fa5" d="M858 542h1-1zm-42 1h1-1m-626 1h1-1z"/><path fill="#ce5a6f" d="M361 544h1-1m161-1 1 1-1-1z"/><path fill="#eb9fa5" d="M134 653c13-9 24-32 34-45 6-7 14-15 22-21 6-4 15-9 19-15 3-8 1-20 1-28-13 3-14 12-21 22-15 19-31 39-44 59-6 8-14 18-11 28m154-109c-1 6-10 16-9 21 0 4 4 7 6 10 2 4 4 6 8 7 0 3 1 3 3 5 0-12-4-32-8-43z"/><path fill="#ce5a6f" d="m521 544 1 1-1-1m296 1h1-1m-628 0-1 5 3-5h-2m338 0 1 1-1-1zm281 0c0 11 4 21 5 32h2c-1-10-3-23-7-32m-446 2h1-1m156-1 1 1-1-1z"/><path fill="#eb9fa5" d="M817 547h1-1m44-1 5 13c1-5-2-9-5-13z"/><path fill="#ce5a6f" d="M818 547v4-4z"/><path fill="#eb9fa5" d="m187 548-9 14c4-3 10-8 9-14m327 0-1 2 1-2zm182 1c4 4 10 8 16 10-4-5-10-8-16-10m-238 1v1-1zm-128 55c-6-3-7-9-9-15-4-12-9-23-12-35 7 0 8 6 10 12 5 12 11 25 11 38z"/><path fill="#ce5a6f" d="M365 555h1-1z"/><path fill="#eb9fa5" d="M468 554v1-1m37 0 1 1-1-1z"/><path fill="#ce5a6f" d="M513 554v1-1m306 1h1-1z"/><path fill="#5d212a" d="M574 556c-10 13-27 26-27 44 11-11 22-30 29-44h-2z"/><path fill="#ce5a6f" d="M366 558h1-1m108-1 3 1-3-1zm33 0 1 1-1-1m-15 3c3 1 4 0 7-1l-7 1m48-2v3-3z"/><path fill="#eb9fa5" d="M484 559v1-1z"/><path fill="#ce5a6f" d="M474 560v1-1zm-295 1c-8 11-20 21-25 34 7-6 26-25 25-34m298 0v1-1m25 0 1 1-1-1z"/><path fill="#eb9fa5" d="M715 561c4 9 15 13 21 21 16 18 32 40 40 63 2-7-5-16-8-22-10-22-30-52-53-62m97 0 2 12c1-4 0-8-2-12z"/><path fill="#ce5a6f" d="M820 561v15c2-4 2-11 0-15m-341 1v1-1z"/><path fill="#eb9fa5" d="M868 564h1-1z"/><path fill="#5d212a" d="M350 567c0 16 3 33 1 49-3 19-10 37-11 56 9-6 22-12 29-20-9 1-16 7-24 11 8-21 8-43 8-65 0-10 1-22-3-31z"/><path fill="#ce5a6f" d="M542 568h1-1z"/><path fill="#eb9fa5" d="m869 567 2 8c1-3 0-5-2-8m-696 1-1 2 1-2z"/><path fill="#ce5a6f" d="M370 570h1-1z"/><path fill="#eb9fa5" d="m171 571-3 4 3-4m388 0c-13 17-31 32-46 47 4 8-8 16-6 25-7 4-14 26-15 34-1 4-3 11 2 12l-2 3 2 8c26-13 15-53 30-73 2-4 15-24 18-22l19-34h-2zm256 4v3-3z"/><path fill="#ce5a6f" d="M871 576h1-1m-317 0 1 1-1-1m3 0 1 1-1-1m5 0 1 1-1-1m-9 1 1 1-1-1z"/><path fill="#5d212a" d="m800 577-1 20 7-3c0-6-2-11-3-17h-3z"/><path fill="#ce5a6f" d="M373 579h1-1m175 0h1-1m4-1 1 1-1-1m263 0v5-5m57 1h1-1m-321 0 1 1-1-1m4 0 1 1-1-1m-181 2h1-1m176-1 1 1-1-1m9 0 1 1-1-1z"/><path fill="#eb9fa5" d="M873 580v5-5z"/><path fill="#ce5a6f" d="m546 581 1 1-1-1m273 0v4-4m-274 1c-3 4-6 7-8 12 5-3 10-7 13-12h-5zm-170 2h1-1m182-1 1 1-1-1m-5 1 1 1-1-1m321 1v16c2-5 2-11 0-16zm-497 1 1 4-1-4m179 0 1 1-1-1m262 0v3h2v-3h-2z"/><path fill="#eb9fa5" d="M874 586v10-10m-496 5h1-1m-223 0-1 2 1-2z"/><path fill="#5d212a" d="M536 593c-11 11-33 24-38 39 11-6 19-18 29-27 4-3 9-7 9-12z"/><path fill="#ce5a6f" d="m546 595-5 18c4-5 8-12 5-18m-166 1 1 1-1-1m152 0 1 1-1-1m-1 1 1 1-1-1z"/><path fill="#eb9fa5" d="M803 597v4-4m-653 1 1 1-1-1z"/><path fill="#5d212a" d="M375 598c-3 15-8 33-9 48 8-9 13-37 9-48z"/><path fill="#ce5a6f" d="M381 599h1-1m149-1 1 1-1-1z"/><path fill="#eb9fa5" d="M805 598v4-4zm-423 2 1 1-1-1m-234 1-1 2 1-2m725 0-2 17c3-5 4-12 2-17zm-71 2v3-3z"/><path fill="#ce5a6f" d="m522 605 1 1-1-1m4 0 1 1-1-1m-381 1a95 95 0 0 0-21 53c0 9 2 20 11 23-8-17-13-28-5-47 4-8 15-20 15-29z"/><path fill="#eb9fa5" d="M541 606v3-3zm259 4h1-1z"/><path fill="#ce5a6f" d="M871 615h1-1zm-711 2c-5 8-12 15-16 24 7-6 14-16 18-24h-2m10 1 3 1v-2l-3 1zm700-1v3-3m-480 1 1 1-1-1z"/><path fill="#5d212a" d="M791 619c-5 6-7 16-13 20 5 18 27-6 29-16-7 2-12 7-19 10 0-5 4-9 3-14z"/><path fill="#ce5a6f" d="M173 620c4 13 16 21 12 34 10-9-4-27-12-34m218 0 1 1-1-1m147 0c-4 11-7 22-7 34 4-6 9-27 7-34z"/><path fill="#eb9fa5" d="M870 621h1-1m-478 0 1 1-1-1m113 0c-4 4-9 8-12 13 4-3 10-8 12-13m5 0-5 6c2-2 4-3 5-6z"/><path fill="#ce5a6f" d="M869 622h1-1z"/><path fill="#eb9fa5" d="m805 622-1 2 1-2m-412 1 1 1-1-1m85 0c-2 3-13 27-7 29 2 2 5-3 6-5 4-7 4-17 1-24m391 0v3-3zm-695 1 3 7c0-3-1-5-3-7z"/><path fill="#ce5a6f" d="M868 624c-6 14-14 27-19 41 8-8 21-29 19-41z"/><path fill="#eb9fa5" d="m132 625-5 13c2-4 5-8 5-13m262 0 1 1-1-1m400 0 2 4-2-4m7 0 1 1-1-1z"/><path fill="#ce5a6f" d="M150 644c6-5 11-12 14-18-7 2-11 12-14 18z"/><path fill="#5d212a" d="m323 626 1 17-8-3c1 3 10 21 12 13 3-9-2-19-3-27h-2z"/><path fill="#eb9fa5" d="m799 626 1 1-1-1m-636 1-1 2 1-2m705 0c-2 3-3 6-3 10 2-3 3-7 3-10z"/><path fill="#ce5a6f" d="m395 628 1 1-1-1m401 0 1 1-1-1m-400 2 1 1-1-1m101 0c-6 6-16 21-24 24l-1 4c10-7 20-18 28-27l-3-1z"/><path fill="#eb9fa5" d="M534 631h1-1z"/><path fill="#ce5a6f" d="M397 633h1-1z"/><path fill="#eb9fa5" d="m533 633-2 9c2-3 3-6 2-9m-135 1 1 1-1-1m98 0-3 4 3-4m-340 1c-3 6-7 11-9 18 5-5 8-12 11-18h-2m237 0c-12 14-31 20-46 31-10 7-15 19-25 27-11 8-23 8-35 14l-28 14c3-5 8-8 12-12-5 2-9 6-14 7l10-11c-6-1-11 7-15 11-13 14-21 29-27 47-18 54-8 122-2 178 1 14 5 27 8 41 2 7 1 14 9 16-7-10-7-21-9-33a519 519 0 0 1-6-182c3-17 6-37 18-51 3-3 9-3 13-5 14-7 29-14 44-19 10-4 20-11 31-12 25-2 40 26 60 33l1-15 1 8 2-3c0 3 0 5-2 8 21 13 27-23 27-35-2 6-3 10-8 14 15-22-8-51-17-71h-2m98 0 1 1-1-1zm-365 5h1-1m57-1 1 1-1-1zm-58 3v3-3z"/><path fill="#ce5a6f" d="M149 646h1-1m232-1 1 1-1-1z"/><path fill="#eb9fa5" d="M778 645c3 29 19 57 24 86 3 16-1 32-2 48h-5c-1-20-8-38-16-55-3-6-6-15-13-18 4 18-1 37 3 55l20 62c2 7 6 13 7 20 2-5 0-10-1-15 13 5 10 18 6 28 8-2 6-13 6-20 0-19 0-40 2-59l7 7c-3-12-9-23-11-36-1-7 3-14 2-21-1-6-7-10-8-16-4-21-8-48-21-66m-654 1v3-3z"/><path fill="#ce5a6f" d="M148 648h1-1m230-1 1 1-1-1z"/><path fill="#eb9fa5" d="m406 649 1 1-1-1m-283 2v14c2-4 2-10 0-14zm353 0-2 3c2-1 2-1 2-3z"/><path fill="#ce5a6f" d="M146 653h1-1z"/><path fill="#eb9fa5" d="m382 706 8 4c-8 3-40-8-41-17-22-5 20-28 27-33 3-1 9-8 13-6 13 4 6 27 6 36 0 4 1 11-1 14-3 3-9 2-12 2zm-236-52c0 10 4 19 13 24-6-8-9-15-13-24z"/><path fill="#ce5a6f" d="M184 656h1-1z"/><path fill="#5d212a" d="M223 698c-1-14-13-27-14-43-9 2-14 16-10 24 4 10 14 15 24 19z"/><path fill="#eb9fa5" d="m472 655-8 9c3-1 4-1 4-4l1-1 2 1 1-1v-4z"/><path fill="#ce5a6f" d="M145 656v6-6z"/><path fill="#eb9fa5" d="m854 657-7 13c4-3 8-8 7-13z"/><path fill="#ce5a6f" d="M183 659h1-1m223-1 1 1-1-1m64 0 1 1-1-1m-112 1 1 1-1-1zm-176 3v13-13m226 0 1 1-1-1m58 0 1 1-1-1m-115 1 1 1-1-1m62 1h1-1m52-1c-15 11-33 23-36 43l26-31c3-3 10-7 10-12z"/><path fill="#eb9fa5" d="m181 664 1 14c1-4 0-10-1-14z"/><path fill="#ce5a6f" d="M414 667c1 14 5 26-2 39 12-7 9-30 2-39zm432 3h1-1z"/><path fill="#eb9fa5" d="M125 671h1-1zm720 1 1 34c4-9 3-25-1-34zm-396 3-2 3c2-1 2-1 2-3zm-133 2c2 1 3 1 5-1l-5 1m102-1v3-3z"/><path fill="#ce5a6f" d="m156 677 1 1-1-1m1 1c3 3 5 5 9 6-3-3-5-5-9-6z"/><path fill="#eb9fa5" d="M162 680v1-1m21 0 1 1-1-1m-52 1c2 2 3 4 6 5-1-3-3-4-6-5m177 0v1-1m111 0v3-3z"/><path fill="#ce5a6f" d="M136 682c1 4 3 6 7 7l-7-7m48 0 1 1-1-1z"/><path fill="#eb9fa5" d="M435 705c5-8 13-14 16-23-6 1-25 19-16 23m-269-22 3 2-3-2m19 1 1 1-1-1zm101 7c6 1 10-1 14-6-5 1-10 3-14 6m134-6v6-6m-247 1v1-1m13 0 1 1-1-1z"/><path fill="#ce5a6f" d="M173 687c5 3 10 4 16 5l-1-5c-5 4-9 1-15 0z"/><path fill="#eb9fa5" d="M179 688v1-1m-38 1c3 3 7 5 11 6-3-3-7-5-11-6m161 2h4-4m132-1-1 2 1-2z"/><path fill="#ce5a6f" d="m146 691 3 1-3-1m4 1v1-1m696 1v7-7m-694 1 5 2-5-2m196 0c6 10 31 16 42 17-7-7-15-6-24-9l-18-8z"/><path fill="#eb9fa5" d="m431 694 1 1-1-1m-278 1c2 2 4 2 7 3-2-2-4-2-7-3m199 0c6 5 14 8 22 8l-22-8z"/><path fill="#ce5a6f" d="M159 696v1-1z"/><path fill="#eb9fa5" d="M274 706c6 1 14-5 19-8-6 0-14 5-19 8m-110-8v1-1z"/><path fill="#ce5a6f" d="M166 698v1-1zm4 1v1-1z"/><path fill="#eb9fa5" d="M173 700v1-1z"/><path fill="#ce5a6f" d="M175 700v1-1m670 0-2 12c3-4 4-8 2-12z"/><path fill="#eb9fa5" d="m189 702 8 3c2-4-5-3-8-3z"/><path fill="#ce5a6f" d="m196 706-4 8c3-2 4-4 4-8z"/><path fill="#eb9fa5" d="M845 707v3-3m-651 1-2 4 2-4m650 3-1 4 1-4m-653 2-2 6c2-2 2-3 2-6z"/><path fill="#ce5a6f" d="M842 713v3-3m-450 1-1 12c2-4 3-8 1-12m-201 1-1 4 1-4z"/><path fill="#eb9fa5" d="m842 716-4 12c3-3 5-8 4-12z"/><path fill="#ce5a6f" d="m841 717-2 6c2-2 3-3 2-6m-652 2c-10 19-20 37-11 58 3 7 8 13 12 20 1-12-15-24-15-38 0-9 5-19 9-27 3-4 7-8 5-13zm649 4-4 11c3-3 5-7 4-11z"/><path fill="#eb9fa5" d="m185 725-3 7c2-2 3-4 3-7m651 7-5 12c3-3 6-7 5-12m-655 2h1-1z"/><path fill="#5d212a" d="m229 743-5 1 3-9c-11 4-21 27-23 38 0 4 0 14 5 16s3-11 4-13c2-5 7-7 10-11 5-6 5-15 6-22z"/><path fill="#ce5a6f" d="m833 735-2 5c2-2 2-3 2-5zm-3 6c-6 12-1 25 14 22-6-2-14-2-15-11 0-4 2-7 1-11z"/><path fill="#eb9fa5" d="m175 747-1 4 1-4m654 1v7-7m-656 4c0 13 2 25 9 36 8 13 21 22 21 38 7-17-18-35-25-49-3-8-2-17-5-25m677 6c4 5-1 9-3 14 3-3 13-15 3-14z"/><path fill="#ce5a6f" d="m846 762 5-1c-4 12-15 13-26 13 12 5 26-2 28-15-3 0-5 1-7 3z"/><path fill="#eb9fa5" d="m834 761 3 1-3-1m9 0 3 1-3-1m-627 24 2-11c-6 2-8 8-2 11m609 1c3-10 7-9 17-11-12-3-19 0-17 11z"/><path fill="#ce5a6f" d="M822 776v5-5m-611 2v3-3m612 3 1 4c1-2 1-3-1-4z"/><path fill="#eb9fa5" d="M816 785c0 9 5 16 7 24 2-6-5-18-7-24zm11 2 4 12c1-4-2-8-4-12z"/><path fill="#ce5a6f" d="M788 793c-1 6 0 13 2 18 2-6 0-12 0-18h-2m41 2h1-1m1 3h1-1m-638 0 1 1-1-1m1 1 1 1-1-1m638 1h1-1zm1 3h1-1m1 2h1-1z"/><path fill="#eb9fa5" d="M834 806h1-1z"/><path fill="#ce5a6f" d="m199 806 1 1-1-1m1 1 3 4-3-4m634 0 5 15c1-5-2-11-5-15z"/><path fill="#eb9fa5" d="m836 810 2 6c0-3 0-4-2-6z"/><path fill="#ce5a6f" d="M203 811c0 8 1 15 3 23 1-5 0-18-3-23z"/><path fill="#eb9fa5" d="m825 812 3 9c1-3 0-7-3-9m14 6h1-1m1 2v3-3m-11 2 1 4-1-4z"/><path fill="#ce5a6f" d="M840 824h1-1z"/><path fill="#eb9fa5" d="M841 824c4 19 13 39 19 58 1-5-2-12-4-17-4-13-7-30-15-41m-637 3v3-3z"/><path fill="#ce5a6f" d="M841 828h1-1m-46 0c1 9 2 18 6 26h2c3-9 4-23-8-26z"/><path fill="#eb9fa5" d="M831 828c3 20 13 41 20 60 2 7 2 17 7 22-1-13-7-25-11-37-5-15-7-32-16-45z"/><path fill="#ce5a6f" d="M842 830h1-1z"/><path fill="#eb9fa5" d="m205 831 1 6c1-2 0-4-1-6z"/><path fill="#ce5a6f" d="M843 833h1-1m-636 2c4 29-3 58 2 87 2-5 0-13 0-19v-45c0-7 2-17-2-23m637 1h1-1m1 1v4-4z"/><path fill="#eb9fa5" d="m207 838-1 63c2-5 1-11 1-17 1-13 5-33 0-46zm590 6 1 7c1-3 1-5-1-7z"/><path fill="#ce5a6f" d="M848 847h1-1m-8 1h1-1m10 6h1-1m-8 1h1-1z"/><path fill="#eb9fa5" d="M419 855c-5 8-4 16-8 25-1 5-7 8-9 12-3 6-3 12-6 17-1 4-7 17-11 18-6 1-21-10-27-11l2-3-5-1c-4 3-14 1-17-4l-5 2v4c-10-8-24 17-33 9-8-8-14-31-16-42-2-8-3-21-11-25 1 11-4 28 0 38 4 12 12 23 17 35 1 4 4 8 3 12-1 6-9 11-13 16-10 13-22 25-31 40l38-1c-1-2-1-2-3-2 14-15 37-37 60-31 4-5 12-6 18-6l-3 4h4c-1 13-11 23-11 37h2l5-12 1 12h16l-6-1 4-1c2-13 11-20 16-31 10-18 14-40 24-58 4-8 20-27 14-35l1-3-3 1v-8l-4 3 1-3-3 1-1-8z"/><path fill="#ce5a6f" d="M843 857v3-3m8 0c0 2 0 2 2 3l-2-3m-7 3v3-3m9 2 1 4-1-4m-8 2h1-1m1 2c0 5 1 9 4 12 0-4-2-8-4-12m9 1 1 8c1-3 0-5-1-8z"/><path fill="#eb9fa5" d="M809 868v6l-2-1c0 10 6 18 9 26 2 4 1 11 2 15l12 49c1 6 2 19 5 24 2 4 6 8 5 11h14c0-13-6-24-10-36-6-21-11-42-19-63-3-8-8-27-16-31z"/><path fill="#ce5a6f" d="M857 876h1-1m1 1 2 9c1-3 0-6-2-9m-282 2c4 8 14 12 22 15-1-13-11-15-22-15m275 0 1 6c1-2 0-4-1-6z"/><path fill="#eb9fa5" d="m861 883 2 9c1-3-1-6-2-9z"/><path fill="#ce5a6f" d="m853 885 2 10c1-4 0-7-2-10m8 3h1-1m-583 1c0 7 3 15 10 19 0-7-2-16-10-19m584 2h1-1m1 1 2 11c1-4 0-8-2-11z"/><path fill="#eb9fa5" d="m864 894 3 13c1-4 0-10-3-13z"/><path fill="#ce5a6f" d="M856 895c1 35 21 67 19 103 8-4 3-19 1-26-6-24-8-55-20-77m11 12v3-3z"/><path fill="#eb9fa5" d="M207 908c0 23 4 48 10 70 2 7 1 17 8 22l-13-57c-2-11-1-25-5-35m661 0 2 9c1-3 0-6-2-9z"/><path fill="#ce5a6f" d="M868 911v3-3z"/><path fill="#eb9fa5" d="m858 913 12 61c1 6 0 18 4 22l-11 1c14 5 13-7 12-17-3-19-6-51-17-67z"/><path fill="#ce5a6f" d="M869 914v3-3m1 3v4-4z"/><path fill="#eb9fa5" d="M871 918c0 6 3 13 4 19 1-6-1-14-4-19z"/><path fill="#ce5a6f" d="M210 924v8-8m662 2h1-1m-661 6 2 16c2-5 0-11-2-16m663 2v3-3m1 4h1-1m-43 0c0 11 3 30 11 38 3-10-4-31-11-38z"/><path fill="#eb9fa5" d="M876 940h1-1z"/><path fill="#ce5a6f" d="M876 941v3-3z"/><path fill="#eb9fa5" d="M877 944c1 8 5 15 6 23 2-6-2-18-6-23z"/><path fill="#ce5a6f" d="M214 948c0 13 4 25 7 37 1 6 1 11 6 15-4-17-7-36-13-52m664 1 1 7c1-3 0-5-1-7m2 8v3-3m1 3c0 13 5 26 5 40 4-11 1-30-5-40z"/><path fill="#eb9fa5" d="M884 970v3-3z"/><path fill="#ce5a6f" d="m227 971 5 21c2-6-1-16-5-21z"/><path fill="#eb9fa5" d="M887 984v13h2c0-5 1-9-2-13z"/><path fill="#ce5a6f" d="m359 986-5 12h6l-1-12m-126 7 2 4-2-4m4 4v1-1m12 0 8 1-8-1m405 0 5 1-5-1m192 0 6 1-6-1m-577 1c7 3 18 1 26 1h55c-7-3-18-1-26-1h-55m295 0c12 4 30 1 42 1-12-4-30-1-42-1m234 0c12 4 30 1 42 1-12-4-30-1-42-1z"/></svg>