<svg xmlns="http://www.w3.org/2000/svg" width="150" height="150" fill="none"><path fill="currentColor" fill-rule="evenodd" d="M53.015 13.333A15.15 15.15 0 0 1 68.162 28.48v103.542a6.318 6.318 0 0 1-6.31 6.311H47.967a6.313 6.313 0 0 1-6.312-6.311V45.895a6.316 6.316 0 0 0-6.312-6.312h-2.525a6.316 6.316 0 0 0-6.311 6.312v86.127a6.318 6.318 0 0 1-6.31 6.311H6.312A6.313 6.313 0 0 1 0 132.022V19.645a6.316 6.316 0 0 1 6.312-6.312h46.703Zm81.837 0A15.15 15.15 0 0 1 150 28.48v26.053a5.047 5.047 0 0 1-5.048 5.049h-17.674a5.052 5.052 0 0 1-5.048-5.049V43.37a3.786 3.786 0 0 0-3.787-3.787h-6.311a3.786 3.786 0 0 0-3.787 3.787v64.938a2.524 2.524 0 0 0 2.525 2.525h10.098a2.524 2.524 0 0 0 2.525-2.525V95.833h-2.525a5.051 5.051 0 0 1-5.048-5.048V74.633a5.047 5.047 0 0 1 5.048-5.048h23.984A5.048 5.048 0 0 1 150 74.632v48.553a15.15 15.15 0 0 1-15.147 15.148H96.985a15.151 15.151 0 0 1-15.147-15.146V28.48a15.15 15.15 0 0 1 15.147-15.147h37.867Z" clip-rule="evenodd"/></svg>
