<svg xmlns="http://www.w3.org/2000/svg" width="113" height="150" fill="none"><g clip-path="url(#a)"><path fill="currentColor" d="M81.496 54.879c3.139-2.93 5.573-6.208 7.28-9.82 1.697-3.61 2.666-7.303 2.909-11.088.265-4.038-.312-8.007-1.708-11.884-1.396-3.889-3.623-7.385-6.68-10.5-3.058-3.127-6.97-5.723-11.736-7.777C66.796 1.733 61.165.498 54.692.094 49.754-.229 45.046.28 40.57 1.606c-4.477 1.327-8.665 3.334-12.577 6.023-3.911 2.7-7.477 6-10.707 9.888-3.231 3.9-6.035 8.262-8.435 13.085-2.412 4.835-4.35 10.039-5.827 15.646C1.546 51.844.612 57.683.231 63.775 0 67.33-.058 71.125.058 75.152c.115 4.027.45 8.054 1.004 12.058.565 4.004 1.361 7.857 2.434 11.573 1.062 3.704 2.435 7.004 4.13 9.911 1.697 2.885 3.74 5.239 6.116 7.027 2.389 1.8 5.158 2.804 8.331 3 2.965.196 5.746-.196 8.32-1.131a24.527 24.527 0 0 0 7.084-4.026c2.146-1.743 4.062-3.808 5.746-6.197a49.172 49.172 0 0 0 4.362-7.638 51.417 51.417 0 0 0 2.977-8.388c.738-2.874 1.234-5.654 1.488-8.354.012-.231.046-.658.104-1.27.057-.611.127-1.326.207-2.169.058-.83.139-1.742.254-2.734.093-1.004.208-2.008.3-3 .231-2.354.485-4.927.785-7.743 6.115-.542 11.492-1.8 16.13-3.796 4.64-1.984 8.528-4.454 11.666-7.396Zm-26.584-2.377.807-4.546 4.477-14.643c.012-.15.023-.276.058-.369.023-.092.046-.277.058-.553.057-.958-.093-1.766-.462-2.4a4.688 4.688 0 0 0-1.42-1.581 5.696 5.696 0 0 0-1.938-.877 11.857 11.857 0 0 0-2.134-.335c-2.273-.15-4.212.3-5.827 1.339-1.627 1.038-2.966 2.4-4.039 4.073a22.447 22.447 0 0 0-2.561 5.584 48.63 48.63 0 0 0-1.454 5.931c-.335 1.892-.554 3.577-.67 5.066-.115 1.476-.184 2.469-.207 2.976a21.12 21.12 0 0 1-2.273-.842 43.946 43.946 0 0 1-2.596-1.246c-1.016-.508-2.135-1.154-3.37-1.927-.484-.3-.876-.53-1.2-.704a2.525 2.525 0 0 0-1.061-.311c-.565-.035-1.039.103-1.385.404-.346.311-.623.726-.83 1.234-.208.508-.347 1.096-.439 1.777-.07.67-.138 1.35-.184 2.042-.093 1.316-.035 2.47.15 3.462.196 1.004.727 1.973 1.592 2.92.865.957 2.192 1.96 3.957 3.045 1.766 1.085 4.224 2.354 7.339 3.843l-.173 2.711a177.854 177.854 0 0 1-.52 6.45c-.23 2.515-.588 5.158-1.026 7.915a88.432 88.432 0 0 1-1.742 8.227c-.716 2.724-1.604 5.147-2.666 7.258-1.062 2.123-2.33 3.831-3.808 5.112-1.476 1.269-3.207 1.857-5.169 1.73-1.892-.115-3.415-1.015-4.558-2.7-1.153-1.684-2.065-3.807-2.734-6.392-.67-2.584-1.12-5.446-1.339-8.596-.23-3.15-.334-6.254-.334-9.323 0-3.058.069-5.93.23-8.608.15-2.677.277-4.823.381-6.404.243-3.853.773-7.8 1.581-11.827a74.499 74.499 0 0 1 3.37-11.7c1.43-3.761 3.138-7.28 5.169-10.569 2.03-3.277 4.361-6.115 6.992-8.504 2.62-2.377 5.55-4.2 8.815-5.492 3.266-1.28 6.843-1.8 10.731-1.558 5.204.335 9.485 1.2 12.842 2.62 3.358 1.419 6 3.103 7.927 5.088 1.927 1.973 3.231 4.13 3.923 6.439.693 2.319.958 4.546.82 6.703a16.326 16.326 0 0 1-1.72 6.346c-.992 2.02-2.446 3.854-4.35 5.47-1.915 1.615-4.269 2.977-7.084 4.084-2.816 1.096-6.139 1.812-9.947 2.158Zm55.892 8.746a7.706 7.706 0 0 0-2.296-2.157c-.889-.543-1.777-.924-2.654-1.131-2.227-.531-4.431-.346-6.612.542-2.18.9-4.303 2.32-6.38 4.27-2.066 1.95-4.073 4.326-6.035 7.119a95.286 95.286 0 0 0-5.608 9.092A141.383 141.383 0 0 0 76.2 89.16a257.61 257.61 0 0 0-4.373 10.338c-1.35 3.381-2.562 6.6-3.612 9.669-1.061 3.07-1.984 5.77-2.734 8.135a262.807 262.807 0 0 0-1.754 5.688 144.662 144.662 0 0 0-.67 2.343 69.435 69.435 0 0 0-.992 4.95 52.428 52.428 0 0 0-.6 5.123 31.562 31.562 0 0 0 .07 4.915c.15 1.581.473 3.012.957 4.293.485 1.28 1.189 2.376 2.089 3.265.9.9 2.065 1.523 3.496 1.869 1.42.346 2.758.346 4.027.023a11.005 11.005 0 0 0 3.554-1.627 16.105 16.105 0 0 0 3.069-2.792 29.508 29.508 0 0 0 2.584-3.508 37.147 37.147 0 0 0 2.066-3.727 59.73 59.73 0 0 0 1.523-3.45c.415-1.05.738-1.938.992-2.665.243-.727.393-1.212.45-1.454.485-1.984.681-4.027.623-6.092a46.222 46.222 0 0 0-.496-5.712c-.334-2.03-.738-4.004-1.257-5.93 1.823.357 3.692.611 5.596.773 1.638.127 3.45.15 5.434.08a25.917 25.917 0 0 0 5.862-.888l3.115-9.208c-1.431.854-3.046 1.512-4.823 1.996-1.523.427-3.335.704-5.446.843-2.112.127-4.442-.116-7.004-.727a2.026 2.026 0 0 1-.635-.254 6.815 6.815 0 0 1-.473-.335 6.738 6.738 0 0 0-.507-.346c-.196-.115-.462-.208-.796-.3a3.543 3.543 0 0 0-.843-.081c-.265.012-.703.093-1.28.231l.23-.6c2.089-1.65 4.177-3.473 6.277-5.434 2.1-1.962 4.142-3.993 6.116-6.07a114.21 114.21 0 0 0 5.607-6.346c1.754-2.146 3.346-4.246 4.743-6.288 1.407-2.043 2.584-3.993 3.542-5.85.958-1.87 1.615-3.566 1.973-5.077.404-1.685.485-3.162.231-4.443-.254-1.269-.693-2.353-1.327-3.242Zm-31.846 60.796a75.564 75.564 0 0 1-.416 4.27c-.173 1.361-.369 2.48-.588 3.38a71.785 71.785 0 0 1-1.154 4.166 26.756 26.756 0 0 1-1.511 3.9c-.566 1.165-1.212 2.077-1.927 2.746-.727.681-1.523.911-2.4.704-.277-.07-.52-.312-.716-.727-.184-.416-.254-1.223-.196-2.435.058-1.223.288-2.965.692-5.25.393-2.284 1.05-5.319 1.962-9.115.127-.543.335-1.281.611-2.216.277-.934.589-1.938.924-3.011.346-1.085.703-2.169 1.084-3.289a82.45 82.45 0 0 1 1.073-3c.335-.888.635-1.615.912-2.169.265-.554.461-.808.553-.784.312.069.566.496.75 1.28.22.796.347 1.789.427 3 .081 1.2.104 2.562.093 4.062a97.907 97.907 0 0 1-.173 4.488Zm25.004-51.127c-.231.981-.981 2.32-2.25 4.004-1.27 1.685-2.85 3.612-4.731 5.77-1.881 2.169-3.97 4.488-6.266 6.992a560.468 560.468 0 0 0-6.877 7.627c.52-1.385 1.074-2.885 1.662-4.5a75.386 75.386 0 0 1 2.308-5.573c.969-2.089 2.215-4.454 3.75-7.073 1.534-2.62 3.496-5.608 5.884-8.977.797-1.143 1.581-1.962 2.354-2.447.773-.484 1.754-.576 2.942-.288.681.162 1.131.6 1.362 1.327.231.727.196 1.765-.138 3.138Z"/></g><defs><clipPath id="a"><path fill="#fff" d="M0 0h112.269v150H0z"/></clipPath></defs></svg>
