<svg xmlns="http://www.w3.org/2000/svg" width="150" height="150" fill="none"><path fill="currentColor" d="M122.422 31.3c5.272 0 6.659 3.988 5.1 13.35-1.784 10.706-6.925 46.153-11.025 68.219-1.569 8.444-4.397 12.084-8.512 12.084-2.263 0-4.913-1.1-7.957-3.109-4.125-2.725-24.95-16.497-29.472-19.731-4.124-2.947-9.815-6.494-2.678-13.475 2.541-2.488 19.188-18.385 32.157-30.757 1.384-1.322.225-3.337-1.313-3.337-.35 0-.722.106-1.084.347C80.156 66.484 55.916 82.575 52.83 84.67c-3.084 2.095-6.09 3.438-10.096 3.438-2.047 0-4.357-.35-7.072-1.13-6.072-1.745-12-3.823-14.31-4.617-8.89-3.05-6.78-7.003 1.853-10.803 34.62-15.228 79.416-33.796 85.6-36.365 6.025-2.503 10.5-3.894 13.616-3.894Zm0-9.375c-4.275 0-9.422 1.378-17.206 4.606l-.935.388c-33.234 13.8-63.368 26.606-84.85 36.056-3.356 1.478-13.565 5.969-13.168 15.363.168 4.053 2.4 9.578 12.05 12.887l.712.244c2.694.928 8.303 2.862 14.053 4.515 3.5 1.007 6.663 1.494 9.66 1.494 5.2 0 9.228-1.484 12.378-3.212-.016.525-.003 1.053.037 1.584.57 7.225 6.157 11.188 9.494 13.556l.466.332c4.928 3.525 27.231 18.259 29.756 19.925 4.753 3.137 9.044 4.659 13.122 4.659 6.412 0 14.697-3.425 17.728-19.744 2.878-15.478 6.203-37.1 8.631-52.887 1.035-6.738 1.885-12.263 2.425-15.504 1.091-6.543 1.591-13.956-2.962-19.328-1.913-2.25-5.438-4.934-11.391-4.934Z"/></svg>
