<svg xmlns="http://www.w3.org/2000/svg" viewBox="0 0 52.313 52.313"><path stroke="rgba(0,0,0,0)" stroke-miterlimit="10" d="M13.525 51.813A13.06 13.06 0 0 1 .5 38.765v-25.24A13.039 13.039 0 0 1 13.525.5h25.24a13.058 13.058 0 0 1 13.048 13.025v25.24a13.078 13.078 0 0 1-13.048 13.048Zm-2.679-25.657a15.565 15.565 0 1 0 15.565-15.564 15.586 15.586 0 0 0-15.565 15.564ZM39.181 9.53a3.707 3.707 0 1 0 3.7-3.7 3.711 3.711 0 0 0-3.7 3.7ZM15.756 26.156a9.976 9.976 0 1 1 9.977 9.953 9.994 9.994 0 0 1-9.977-9.953Z"/></svg>
