<svg xmlns="http://www.w3.org/2000/svg" width="228" height="150" fill="none" viewBox="0 0 228 150">
  <g fill="currentColor">
    <path
      d="M80.485 0a71.773 71.773 0 0 1 27.537 5.492 71.909 71.909 0 0 1 23.345 15.643 72.155 72.155 0 0 1 15.599 23.412 72.326 72.326 0 0 1 5.479 27.616c0 29.188-17.533 55.5-44.423 66.668-26.89 11.169-57.84 4.996-78.42-15.642-20.579-20.639-26.735-51.676-15.6-78.642C25.143 17.582 51.382 0 80.486 0Zm0 93.81a21.528 21.528 0 0 0 15.273-6.332 21.648 21.648 0 0 0 6.316-15.317c0-8.758-5.26-16.65-13.326-20.002a21.54 21.54 0 0 0-23.526 4.694 21.698 21.698 0 0 0-4.68 23.592c3.341 8.09 11.215 13.364 19.945 13.364h-.002Z" />
    <path
      d="M161.367 54.123c18.284 5.276 39.865 0 39.865 0-6.262 27.421-26.126 44.595-54.765 46.685a72.03 72.03 0 0 1-10.931 17.785 71.878 71.878 0 0 1-15.559 13.887 71.728 71.728 0 0 1-18.881 8.825 71.633 71.633 0 0 1-20.611 3.019l21.589-68.807C124.265 4.793 135.641.003 188.271.003h36.135c-6.043 26.7-26.879 47.096-63.036 54.12h-.003Z" />
  </g>
</svg>
