<svg xmlns="http://www.w3.org/2000/svg" width="158" height="158" fill="none"><g clip-path="url(#a)" filter="url(#b)"><path fill="currentColor" d="M54.004 75c0-13.806 11.19-25.002 24.996-25.002S104.002 61.194 104.002 75 92.807 100.002 79 100.002c-13.806 0-24.996-11.195-24.996-25.002Zm-13.516 0c0 21.27 17.242 38.512 38.512 38.512S117.512 96.27 117.512 75 100.27 36.488 79 36.488 40.488 53.73 40.488 75Zm69.548-40.038c0 4.967 4.029 9.002 9.002 9.002 4.968 0 9.003-4.035 9.003-9.002 0-4.968-4.029-8.997-9.003-8.997-4.973 0-9.002 4.029-9.002 8.997ZM48.697 136.048c-7.312-.333-11.286-1.551-13.928-2.581-3.501-1.363-5.997-2.986-8.626-5.61-2.624-2.623-4.253-5.119-5.61-8.62-1.03-2.642-2.248-6.616-2.581-13.928-.364-7.906-.436-10.28-.436-30.309 0-20.028.079-22.397.436-30.309.333-7.312 1.557-11.28 2.58-13.928 1.364-3.501 2.987-5.997 5.61-8.627 2.624-2.623 5.12-4.252 8.627-5.61 2.642-1.03 6.616-2.247 13.928-2.58 7.906-.364 10.28-.436 30.303-.436 20.028 0 22.397.078 30.309.436 7.312.333 11.28 1.557 13.928 2.58 3.501 1.358 5.997 2.987 8.627 5.61 2.623 2.624 4.246 5.126 5.609 8.627 1.03 2.642 2.248 6.616 2.581 13.928.364 7.912.436 10.28.436 30.309 0 20.022-.072 22.397-.436 30.309-.333 7.312-1.557 11.286-2.581 13.928-1.363 3.501-2.986 5.997-5.609 8.62-2.624 2.624-5.126 4.247-8.627 5.61-2.642 1.03-6.616 2.248-13.928 2.581-7.906.364-10.28.436-30.309.436-20.022 0-22.397-.072-30.303-.436ZM48.08.454c-7.985.364-13.437 1.63-18.205 3.484-4.93 1.914-9.111 4.483-13.285 8.65-4.168 4.169-6.737 8.349-8.651 13.286-1.854 4.768-3.12 10.22-3.484 18.205C4.084 52.076 4 54.632 4 75s.085 22.924.454 30.921c.364 7.984 1.63 13.437 3.484 18.205 1.914 4.931 4.477 9.117 8.65 13.285 4.169 4.168 8.349 6.731 13.286 8.651 4.774 1.854 10.22 3.12 18.205 3.484 8.003.363 10.553.454 30.921.454 20.374 0 22.924-.085 30.921-.454 7.985-.364 13.437-1.63 18.205-3.484 4.931-1.92 9.111-4.483 13.285-8.651 4.168-4.168 6.731-8.354 8.651-13.285 1.854-4.768 3.126-10.221 3.484-18.205.363-8.003.448-10.553.448-30.921 0-20.367-.085-22.924-.448-30.92-.364-7.986-1.63-13.438-3.484-18.206-1.92-4.93-4.483-9.111-8.651-13.285-4.168-4.168-8.354-6.737-13.279-8.651-4.774-1.854-10.226-3.126-18.205-3.484C101.93.091 99.374 0 79.007 0 58.631 0 56.081.085 48.078.454Z"/></g><defs><clipPath id="a"><path fill="#fff" d="M4 0h150v150H4z"/></clipPath><filter id="b" width="158" height="158" x="0" y="0" color-interpolation-filters="sRGB" filterUnits="userSpaceOnUse"><feFlood flood-opacity="0" result="BackgroundImageFix"/><feColorMatrix in="SourceAlpha" result="hardAlpha" values="0 0 0 0 0 0 0 0 0 0 0 0 0 0 0 0 0 0 127 0"/><feOffset dy="4"/><feGaussianBlur stdDeviation="2"/><feComposite in2="hardAlpha" operator="out"/><feColorMatrix values="0 0 0 0 0 0 0 0 0 0 0 0 0 0 0 0 0 0 0.25 0"/><feBlend in2="BackgroundImageFix" result="effect1_dropShadow_1_6"/><feBlend in="SourceGraphic" in2="effect1_dropShadow_1_6" result="shape"/></filter></defs></svg>
